<svg width="22" height="22" viewBox="0 0 22 22" fill="none" xmlns="http://www.w3.org/2000/svg">
<path d="M15.1206 16.7214H11.5628L7.6048 19.3542C7.01776 19.7455 6.22617 19.3275 6.22617 18.616V16.7214C3.55783 16.7214 1.77893 14.9426 1.77893 12.2742V6.93747C1.77893 4.26913 3.55783 2.49023 6.22617 2.49023H15.1206C17.789 2.49023 19.5679 4.26913 19.5679 6.93747V12.2742C19.5679 14.9426 17.789 16.7214 15.1206 16.7214Z" stroke="#1C2A3A" stroke-width="1.33417" stroke-miterlimit="10" stroke-linecap="round" stroke-linejoin="round"/>
<path d="M10.6732 10.4322V10.2455C10.6732 9.64063 11.0468 9.32041 11.4204 9.06247C11.7851 8.81343 12.1497 8.49324 12.1497 7.9062C12.1497 7.08791 11.4915 6.42969 10.6732 6.42969C9.85494 6.42969 9.19678 7.08791 9.19678 7.9062" stroke="#1C2A3A" stroke-width="1.33417" stroke-linecap="round" stroke-linejoin="round"/>
<path d="M10.6694 12.559H10.6774" stroke="#1C2A3A" stroke-width="1.33417" stroke-linecap="round" stroke-linejoin="round"/>
</svg>
