<svg width="53" height="38" viewBox="0 0 53 38" fill="none" xmlns="http://www.w3.org/2000/svg">
<path d="M38.7003 11.9072L31.7478 5.72533C31.0953 5.14595 30.0997 5.2022 29.5203 5.8547L18.2309 18.5503C17.6516 19.2028 17.7078 20.1984 18.3603 20.7778L25.3128 26.9597C25.9653 27.5391 26.9609 27.4828 27.5403 26.8303L38.8297 14.1347C39.4091 13.4822 39.3528 12.4866 38.7003 11.9072Z" fill="#7DC266"/>
<path d="M41.0738 14.1515L35.2294 6.90648C34.6838 6.22585 33.6882 6.1246 33.0132 6.67023L19.7888 17.3409C19.1082 17.8865 19.0069 18.8821 19.5526 19.5571L25.3913 26.7965C25.9369 27.4771 26.9326 27.5784 27.6076 27.0327L40.8319 16.3621C41.5126 15.8221 41.6194 14.8265 41.0738 14.1515Z" fill="#93CB7A"/>
<path d="M43.0423 16.7503L38.4692 8.65025C38.0417 7.89088 37.0798 7.62088 36.3205 8.054L21.5267 16.4015C20.7673 16.829 20.4973 17.7909 20.9305 18.5503L25.5036 26.6503C25.9311 27.4096 26.893 27.6796 27.6523 27.2465L42.4517 18.899C43.2055 18.4715 43.4698 17.5096 43.0423 16.7503Z" fill="#7DC266"/>
<path d="M44.3932 19.259L41.035 10.5853C40.72 9.77529 39.8088 9.37029 38.9932 9.68529L23.1475 15.8222C22.3375 16.1372 21.9325 17.0484 22.2475 17.864L25.6057 26.5378C25.9207 27.3478 26.8319 27.7528 27.6475 27.4378L43.4932 21.3009C44.3032 20.9859 44.7082 20.0747 44.3932 19.259Z" fill="#93CB7A"/>
<path d="M41.2491 20.3616L28.6716 25.2329C28.3454 24.3835 27.3891 23.9616 26.5398 24.2935L24.4473 18.8879C25.2966 18.5616 25.7185 17.6054 25.3866 16.756L37.9641 11.8848C38.2904 12.7341 39.2466 13.156 40.0904 12.8298L42.1829 18.2354C41.3448 18.5616 40.9229 19.5123 41.2491 20.3616Z" fill="#B4D89C"/>
<path d="M35.9613 17.5377C35.2075 15.5858 33.4075 14.4608 31.9506 15.0289C30.4938 15.5971 29.92 17.6333 30.6794 19.5852C31.4388 21.5371 33.2331 22.6621 34.69 22.0939C36.1469 21.5258 36.715 19.4896 35.9613 17.5377Z" fill="#93CB7A"/>
<path d="M34.69 22.094C33.2275 22.6622 31.4331 21.5372 30.6794 19.5853C30.2012 18.3422 30.2575 17.0653 30.7356 16.1597C30.4544 17.009 30.4825 18.0722 30.8875 19.1128C31.6412 21.0647 33.4412 22.1897 34.8981 21.6215C35.4212 21.419 35.8262 21.0309 36.0962 20.519C35.8487 21.2559 35.365 21.8353 34.69 22.094Z" fill="#7DC266"/>
<path d="M33.2273 18.3198C33.846 18.0779 34.5435 18.3873 34.7798 19.0061C34.971 19.5011 34.8135 20.0411 34.4254 20.3617L34.5154 20.5979C34.5492 20.6823 34.5042 20.7779 34.4198 20.8117L34.0148 20.9692C33.9304 21.0029 33.8348 20.9579 33.801 20.8736L33.711 20.6373C33.2723 20.6542 32.8448 20.4348 32.6198 20.0467C32.5692 19.9567 32.6085 19.8442 32.7042 19.8104L33.1204 19.6473C33.1879 19.6192 33.2667 19.6417 33.3117 19.7036C33.4242 19.8554 33.6323 19.9173 33.8179 19.8498C34.0429 19.7598 34.1554 19.5067 34.0654 19.2873C33.9754 19.0623 33.7279 18.9498 33.5029 19.0342C32.8842 19.2704 32.1867 18.9667 31.9504 18.3479C31.7592 17.8529 31.9167 17.3129 32.3048 16.9923L32.2148 16.7561C32.181 16.6717 32.226 16.5761 32.3104 16.5423L32.7154 16.3848C32.7998 16.3511 32.8954 16.3961 32.9292 16.4804L33.0192 16.7167C33.4579 16.6998 33.8854 16.9192 34.1104 17.3073C34.161 17.3973 34.1217 17.5098 34.026 17.5436L33.6098 17.7067C33.5423 17.7348 33.4635 17.7123 33.4185 17.6504C33.306 17.4986 33.0979 17.4367 32.9123 17.5042C32.6873 17.5886 32.5748 17.8473 32.6648 18.0667C32.7492 18.2973 33.0023 18.4098 33.2273 18.3198Z" fill="#7DC266"/>
<path d="M33.1316 18.0835C33.7503 17.8416 34.4478 18.151 34.6841 18.7697C34.8753 19.2647 34.7178 19.8047 34.3297 20.1254L34.4197 20.3616C34.4535 20.446 34.4085 20.5416 34.3241 20.5754L33.9191 20.7329C33.8347 20.7666 33.7391 20.7216 33.7053 20.6372L33.6153 20.401C33.1766 20.4179 32.7491 20.1985 32.5241 19.8104C32.4735 19.7204 32.5128 19.6079 32.6085 19.5741L33.0247 19.411C33.0922 19.3829 33.171 19.4054 33.216 19.4672C33.3285 19.6191 33.5366 19.681 33.7222 19.6135C33.9472 19.5235 34.0597 19.2704 33.9697 19.051C33.8797 18.826 33.6322 18.7135 33.4072 18.7979C32.7885 19.0341 32.091 18.7304 31.8547 18.1116C31.6635 17.6166 31.821 17.0766 32.2091 16.756L32.1191 16.5197C32.0853 16.4354 32.1303 16.3397 32.2147 16.306L32.6197 16.1485C32.7041 16.1147 32.7997 16.1597 32.8335 16.2441L32.9235 16.4804C33.3622 16.4635 33.7897 16.6829 34.0147 17.071C34.0653 17.161 34.026 17.2735 33.9303 17.3072L33.5141 17.4704C33.4466 17.4985 33.3678 17.476 33.3228 17.4141C33.2103 17.2622 33.0022 17.2004 32.8166 17.2679C32.5916 17.3522 32.4791 17.611 32.5691 17.8304C32.6591 18.061 32.9122 18.1735 33.1316 18.0835Z" fill="#B4D89C"/>
<path d="M38.4871 17.5716C39.0463 17.5716 39.4996 17.1183 39.4996 16.5591C39.4996 15.9999 39.0463 15.5466 38.4871 15.5466C37.9279 15.5466 37.4746 15.9999 37.4746 16.5591C37.4746 17.1183 37.9279 17.5716 38.4871 17.5716Z" fill="#93CB7A"/>
<path d="M28.1482 21.5765C28.7074 21.5765 29.1607 21.1232 29.1607 20.564C29.1607 20.0048 28.7074 19.5515 28.1482 19.5515C27.5891 19.5515 27.1357 20.0048 27.1357 20.564C27.1357 21.1232 27.5891 21.5765 28.1482 21.5765Z" fill="#93CB7A"/>
<path d="M14.8896 21.3066V29.8116H30.2965C30.769 29.8116 31.2415 29.7216 31.6859 29.5473L41.2653 25.7898C42.2159 25.4185 42.6715 24.3329 42.2721 23.3935C41.9178 22.5554 40.9953 22.1166 40.1234 22.3585L30.2009 25.1091L23.0853 21.3066H14.8896Z" fill="#F398A1"/>
<path d="M33.0922 24.3102L30.201 25.109L28.536 24.2202L23.7041 23.804L28.4347 25.379C29.3966 25.6996 30.4485 25.6265 31.3597 25.1708L33.0922 24.3102Z" fill="#EF8391"/>
<path d="M25.7349 19.3546C23.0293 18.0721 18.8105 19.1915 16.2793 20.4009V21.7003L23.7043 23.804L28.5024 25.154C30.1843 25.6265 31.9505 24.749 32.5805 23.1178C32.6818 22.859 32.5637 22.5609 32.3105 22.4428L25.7349 19.3546Z" fill="#F398A1"/>
<path d="M16.6503 19.186H14.8672V30.4192H16.6503C17.0047 30.4192 17.2916 30.1323 17.2916 29.7779V19.8217C17.2916 19.4729 17.0047 19.186 16.6503 19.186Z" fill="#ECF0F2"/>
<path d="M15.1825 17.9766H8.5V32.6747H14.1981C15.3456 32.6747 16.2737 31.7466 16.2737 30.5991V19.0734C16.2794 18.4716 15.7844 17.9766 15.1825 17.9766Z" fill="#313890"/>
<path d="M12.6008 30.3966C13.2842 30.3966 13.8383 29.8426 13.8383 29.1591C13.8383 28.4757 13.2842 27.9216 12.6008 27.9216C11.9173 27.9216 11.3633 28.4757 11.3633 29.1591C11.3633 29.8426 11.9173 30.3966 12.6008 30.3966Z" fill="#2E2D7A"/>
</svg>
