<svg id="Layer_1" height="512" viewBox="0 0 64 64" width="512" xmlns="http://www.w3.org/2000/svg" xmlns:xlink="http://www.w3.org/1999/xlink" data-name="Layer 1"><linearGradient id="linear-gradient" gradientUnits="userSpaceOnUse" x1="17.13" x2="30.41" y1="12.98" y2="40.18"><stop offset="0" stop-color="#134287"/><stop offset="1" stop-color="#061f4a"/></linearGradient><linearGradient id="linear-gradient-2" x1="31.67" x2="44.95" xlink:href="#linear-gradient" y1="5.88" y2="33.09"/><linearGradient id="linear-gradient-3" gradientUnits="userSpaceOnUse" x1="29.59" x2="33.35" y1="6.38" y2="21.42"><stop offset="0" stop-color="#ff005d"/><stop offset="1" stop-color="#ff5924"/></linearGradient><linearGradient id="linear-gradient-4" gradientUnits="userSpaceOnUse" x1="8" x2="56" y1="42" y2="42"><stop offset="0" stop-color="#e3effc"/><stop offset="1" stop-color="#9cbfe5"/></linearGradient><linearGradient id="linear-gradient-5" x1="16.55" x2="48.73" xlink:href="#linear-gradient" y1="42.03" y2="54.22"/><linearGradient id="linear-gradient-6" x1="17.37" x2="49.55" xlink:href="#linear-gradient" y1="39.87" y2="52.07"/><linearGradient id="linear-gradient-7" x1="18.55" x2="50.73" xlink:href="#linear-gradient" y1="36.76" y2="48.95"/><linearGradient id="linear-gradient-8" x1="19.59" x2="51.78" xlink:href="#linear-gradient" y1="34.01" y2="46.2"/><linearGradient id="linear-gradient-9" x1="20.63" x2="52.81" xlink:href="#linear-gradient" y1="31.27" y2="43.47"/><path d="m17 32a2 2 0 0 1 -1.28-3.54l12-10a2 2 0 1 1 2.56 3.08l-12 10a2 2 0 0 1 -1.28.46z" fill="url(#linear-gradient)"/><path d="m47 32a2 2 0 0 1 -1.28-.46l-12-10a2 2 0 0 1 2.56-3.08l12 10a2 2 0 0 1 -1.28 3.54z" fill="url(#linear-gradient-2)"/><circle cx="32" cy="16" fill="url(#linear-gradient-3)" r="6"/><rect fill="url(#linear-gradient-4)" height="28" rx="5.05" width="48" x="8" y="28"/><path d="m13.6 44.92a2.86 2.86 0 0 1 -.92-2.15c0-.2 0-.51 0-.94s0-.76 0-1a2.83 2.83 0 0 1 .93-2.13 3.55 3.55 0 0 1 2.39-.7 4.37 4.37 0 0 1 1.7.31 2.7 2.7 0 0 1 1.19.89 2.4 2.4 0 0 1 .46 1.38.22.22 0 0 1 -.07.16.23.23 0 0 1 -.17.07h-1.52a.34.34 0 0 1 -.22-.06.41.41 0 0 1 -.12-.22 1.28 1.28 0 0 0 -.45-.73 1.41 1.41 0 0 0 -.81-.21c-.8 0-1.21.45-1.24 1.34v.89s0 .7 0 .9c0 .9.44 1.34 1.24 1.34a1.43 1.43 0 0 0 .81-.21 1.19 1.19 0 0 0 .45-.72.41.41 0 0 1 .12-.22.32.32 0 0 1 .22-.06h1.51a.27.27 0 0 1 .17.06.26.26 0 0 1 .07.16 2.41 2.41 0 0 1 -.46 1.39 2.7 2.7 0 0 1 -1.19.89 4.37 4.37 0 0 1 -1.7.31 3.59 3.59 0 0 1 -2.39-.74z" fill="url(#linear-gradient-5)"/><path d="m21.56 45.46a.25.25 0 0 1 -.08-.18v-6.92a.26.26 0 0 1 .08-.19.29.29 0 0 1 .19-.08h1.49a.27.27 0 0 1 .27.27v5.51h3.19a.27.27 0 0 1 .28.28v1.13a.26.26 0 0 1 -.08.19.29.29 0 0 1 -.2.07h-4.95a.25.25 0 0 1 -.19-.08z" fill="url(#linear-gradient-6)"/><path d="m29.55 44.92a2.8 2.8 0 0 1 -.92-2.16c0-.2 0-.51 0-.92s0-.72 0-.93a2.76 2.76 0 0 1 .93-2.16 3.51 3.51 0 0 1 2.38-.75 3.49 3.49 0 0 1 2.36.76 2.8 2.8 0 0 1 .94 2.16v.93s0 .52 0 .92a2.84 2.84 0 0 1 -.93 2.16 3.54 3.54 0 0 1 -2.37.73 3.59 3.59 0 0 1 -2.39-.74zm3.27-1.2a1.46 1.46 0 0 0 .35-1c0-.41 0-.7 0-.88s0-.47 0-.86a1.45 1.45 0 0 0 -.35-1 1.21 1.21 0 0 0 -.88-.34 1.22 1.22 0 0 0 -.9.34 1.49 1.49 0 0 0 -.35 1v.86s0 .68 0 .88a1.51 1.51 0 0 0 .35 1 1.22 1.22 0 0 0 .9.33 1.2 1.2 0 0 0 .88-.33z" fill="url(#linear-gradient-7)"/><path d="m38.59 45.35a2.66 2.66 0 0 1 -1.1-.78 1.83 1.83 0 0 1 -.39-1.07.2.2 0 0 1 .07-.16.23.23 0 0 1 .16-.06h1.42a.46.46 0 0 1 .21 0 .73.73 0 0 1 .17.15 1.09 1.09 0 0 0 .43.42 1.61 1.61 0 0 0 .78.16 1.8 1.8 0 0 0 .89-.17.56.56 0 0 0 .31-.49.48.48 0 0 0 -.16-.36 1.5 1.5 0 0 0 -.51-.26c-.24-.07-.58-.16-1-.25a4.35 4.35 0 0 1 -1.93-.78 1.79 1.79 0 0 1 -.64-1.49 1.92 1.92 0 0 1 .37-1.17 2.38 2.38 0 0 1 1-.81 4 4 0 0 1 1.6-.23 3.84 3.84 0 0 1 1.62.32 2.9 2.9 0 0 1 1.06.81 1.79 1.79 0 0 1 .39 1 .26.26 0 0 1 -.07.17.22.22 0 0 1 -.16.07h-1.49a.42.42 0 0 1 -.36-.19.63.63 0 0 0 -.33-.38 1.24 1.24 0 0 0 -.66-.16 1.3 1.3 0 0 0 -.69.16.55.55 0 0 0 .07 1 5.35 5.35 0 0 0 1.19.35 7 7 0 0 1 1.6.45 2.09 2.09 0 0 1 .87.71 1.92 1.92 0 0 1 .28 1.09 2 2 0 0 1 -.41 1.25 2.6 2.6 0 0 1 -1.15.82 4.64 4.64 0 0 1 -1.69.28 4.57 4.57 0 0 1 -1.75-.4z" fill="url(#linear-gradient-8)"/><path d="m45.76 45.46a.22.22 0 0 1 -.08-.18v-6.91a.29.29 0 0 1 .07-.2.26.26 0 0 1 .19-.08h5a.27.27 0 0 1 .19.08.26.26 0 0 1 .08.2v1.05a.24.24 0 0 1 -.08.2.26.26 0 0 1 -.19.07h-3.34v1.31h3.13a.27.27 0 0 1 .28.28v1a.26.26 0 0 1 -.08.19.24.24 0 0 1 -.2.08h-3.13v1.45h3.45a.26.26 0 0 1 .2.08.27.27 0 0 1 .08.19v1.06a.26.26 0 0 1 -.08.19.29.29 0 0 1 -.2.07h-5.11a.22.22 0 0 1 -.18-.13z" fill="url(#linear-gradient-9)"/></svg>