<svg width="26" height="26" viewBox="0 0 26 26" fill="none" xmlns="http://www.w3.org/2000/svg">
<path d="M17.7125 21.8594H9.16562C7.06562 21.8594 5.35938 20.1531 5.35938 18.0531V10.8219C5.35938 10.6625 5.4875 10.5312 5.65 10.5312C5.8125 10.5312 5.94063 10.6594 5.94063 10.8219V11.0594C5.94063 12.0531 6.75 12.8625 7.74375 12.8625H17.7125C18.1719 12.8625 18.5438 13.2375 18.5438 13.6938V21.0281C18.5438 21.4844 18.1719 21.8594 17.7125 21.8594ZM5.94063 12.6125V18.0531C5.94063 19.8344 7.3875 21.2812 9.16875 21.2812H17.7125C17.8531 21.2812 17.9656 21.1688 17.9656 21.0281V13.6938C17.9656 13.5531 17.8531 13.4406 17.7125 13.4406H7.74375C7.40133 13.4403 7.063 13.3662 6.75182 13.2233C6.44065 13.0804 6.16396 12.8721 5.94063 12.6125Z" fill="#151B28"/>
<path d="M17.7125 21.8593H9.16562C7.06562 21.8593 5.35938 20.1531 5.35938 18.0531V10.9718C5.35938 9.70308 6.39375 8.6687 7.6625 8.6687H17.6531C17.8125 8.6687 17.9438 8.79683 17.9438 8.95933C17.9438 9.12183 17.8156 9.24995 17.6531 9.24995H7.6625C6.7125 9.24995 5.9375 10.025 5.9375 10.975V11.0593C5.9375 12.0531 6.74688 12.8625 7.74063 12.8625H17.7094C18.1688 12.8625 18.5406 13.2375 18.5406 13.6937V21.0281C18.541 21.1371 18.5199 21.2451 18.4785 21.3459C18.4371 21.4468 18.3761 21.5384 18.2992 21.6157C18.2222 21.6929 18.1308 21.7542 18.0301 21.796C17.9295 21.8378 17.8215 21.8593 17.7125 21.8593ZM5.94063 12.6125V18.0531C5.94063 19.8343 7.3875 21.2812 9.16875 21.2812H17.7125C17.8531 21.2812 17.9656 21.1687 17.9656 21.0281V13.6937C17.9656 13.5531 17.8531 13.4406 17.7125 13.4406H7.74375C7.40133 13.4403 7.063 13.3662 6.75182 13.2233C6.44065 13.0804 6.16396 12.872 5.94063 12.6125Z" fill="#525252"/>
<path d="M15.4157 13.1562H9.02197V7.00933C9.02197 6.69058 9.28135 6.43433 9.59697 6.43433H14.8376C15.1563 6.43433 15.4126 6.6937 15.4126 7.00933V13.1562H15.4157Z" fill="url(#paint0_linear_1061_9715)"/>
<path d="M15.4157 13.4218H9.02197C8.95152 13.4218 8.88396 13.3938 8.83415 13.344C8.78433 13.2942 8.75635 13.2266 8.75635 13.1562V7.00933C8.75635 6.54683 9.13447 6.1687 9.59697 6.1687H14.8376C15.3001 6.1687 15.6782 6.54683 15.6782 7.00933V13.1562C15.6813 13.3031 15.5626 13.4218 15.4157 13.4218ZM9.2876 12.8906H15.1532V7.00933C15.1532 6.83745 15.0126 6.69683 14.8407 6.69683H9.59697C9.4251 6.69683 9.28447 6.83745 9.28447 7.00933V12.8906H9.2876Z" fill="#525252"/>
<path d="M10.1938 6.61572H11.597V12.9688H10.1938V6.61572Z" fill="white"/>
<path d="M11.5968 13.1156H10.1937C10.1539 13.1156 10.1158 13.0998 10.0876 13.0716C10.0595 13.0435 10.0437 13.0054 10.0437 12.9656V6.61558C10.0437 6.53433 10.1093 6.46558 10.1937 6.46558H11.5968C11.6781 6.46558 11.7468 6.5312 11.7468 6.61558V12.9687C11.7468 13.05 11.6781 13.1156 11.5968 13.1156ZM10.3437 12.8187H11.45V6.76245H10.3437V12.8187ZM12.675 7.2562H13.1593V8.58433H12.675V7.2562ZM12.675 9.06558H13.1593V12.3312H12.675V9.06558ZM13.9437 7.2562H14.4281V12.3312H13.9437V7.2562Z" fill="#525252"/>
<path d="M18.6905 15.3999H13.2968C12.4937 15.3999 11.778 15.9874 11.703 16.7843C11.6155 17.6999 12.3343 18.4718 13.2312 18.4718H18.6905C18.8718 18.4718 19.0155 18.3249 19.0155 18.1468V15.7249C19.0155 15.5468 18.8718 15.3999 18.6905 15.3999Z" fill="url(#paint1_linear_1061_9715)"/>
<path d="M18.6906 18.7531H13.2313C12.7219 18.7531 12.2312 18.5374 11.8875 18.1593C11.717 17.9712 11.5878 17.7494 11.5081 17.5083C11.4284 17.2672 11.4001 17.012 11.425 16.7593C11.5125 15.8406 12.3344 15.1218 13.3 15.1218H18.6938C19.0281 15.1218 19.3 15.3937 19.3 15.7281V18.15C19.2969 18.4812 19.025 18.7531 18.6906 18.7531ZM13.2969 15.6812C12.6187 15.6812 12.0406 16.1781 11.9812 16.8125C11.963 16.9875 11.9822 17.1645 12.0377 17.3315C12.0932 17.4986 12.1837 17.6519 12.3031 17.7812C12.4211 17.911 12.5648 18.0148 12.7252 18.0858C12.8856 18.1568 13.059 18.1936 13.2344 18.1937H18.6938C18.7188 18.1937 18.7406 18.1718 18.7406 18.1468V15.725C18.7406 15.7 18.7188 15.6781 18.6938 15.6781L13.2969 15.6812Z" fill="#525252"/>
<path d="M12.6406 16.9376C12.6406 17.1266 12.7157 17.3078 12.8493 17.4414C12.9829 17.575 13.1642 17.6501 13.3531 17.6501C13.5421 17.6501 13.7233 17.575 13.8569 17.4414C13.9906 17.3078 14.0656 17.1266 14.0656 16.9376C14.0656 16.7486 13.9906 16.5674 13.8569 16.4338C13.7233 16.3002 13.5421 16.2251 13.3531 16.2251C13.1642 16.2251 12.9829 16.3002 12.8493 16.4338C12.7157 16.5674 12.6406 16.7486 12.6406 16.9376Z" fill="white"/>
<defs>
<linearGradient id="paint0_linear_1061_9715" x1="9.9171" y1="7.30817" x2="14.9365" y2="12.435" gradientUnits="userSpaceOnUse">
<stop offset="0.005" stop-color="#3E7A8E"/>
<stop offset="1" stop-color="#DE5B6D"/>
</linearGradient>
<linearGradient id="paint1_linear_1061_9715" x1="12.7206" y1="15.7992" x2="14.2763" y2="19.7799" gradientUnits="userSpaceOnUse">
<stop offset="0.005" stop-color="#3E7A8E"/>
<stop offset="1" stop-color="#DE5B6D"/>
</linearGradient>
</defs>
</svg>
