<svg width="53" height="38" viewBox="0 0 53 38" fill="none" xmlns="http://www.w3.org/2000/svg">
<path fill-rule="evenodd" clip-rule="evenodd" d="M33.0395 28.7178C38.6994 28.7178 43.2876 24.1842 43.2876 18.5917C43.2876 12.9992 38.6994 8.46558 33.0395 8.46558C30.5031 8.46558 28.1818 9.3761 26.3923 10.8844C24.6028 9.37612 22.2816 8.46561 19.7452 8.46561C14.0853 8.46561 9.49707 12.9992 9.49707 18.5917C9.49707 24.1843 14.0853 28.7179 19.7452 28.7179C22.2816 28.7179 24.6029 27.8074 26.3924 26.2991C28.1819 27.8073 30.5031 28.7178 33.0395 28.7178Z" fill="#ED0006"/>
<path fill-rule="evenodd" clip-rule="evenodd" d="M26.3916 26.299C28.5952 24.4416 29.9924 21.6779 29.9924 18.5917C29.9924 15.5055 28.5952 12.7418 26.3916 10.8845C28.1811 9.37612 30.5024 8.46558 33.0389 8.46558C38.6987 8.46558 43.287 12.9992 43.287 18.5917C43.287 24.1842 38.6987 28.7178 33.0389 28.7178C30.5024 28.7178 28.1811 27.8073 26.3916 26.299Z" fill="#F9A000"/>
<path fill-rule="evenodd" clip-rule="evenodd" d="M26.3928 26.299C28.5964 24.4417 29.9936 21.678 29.9936 18.5918C29.9936 15.5056 28.5964 12.7418 26.3928 10.8845C24.1893 12.7418 22.792 15.5056 22.792 18.5918C22.792 21.678 24.1893 24.4417 26.3928 26.299Z" fill="#FF5E00"/>
</svg>
