<svg width="33" height="33" viewBox="0 0 33 33" fill="none" xmlns="http://www.w3.org/2000/svg">
<path d="M11.5269 10.7522C11.5269 7.96272 14.0545 5.20619 15.8286 3.61495C16.7921 2.75075 18.2617 2.75075 19.2251 3.61495C20.9993 5.20619 23.5269 7.96272 23.5269 10.7522C23.5269 13.4871 21.2547 16.3001 17.5269 16.3001C13.7989 16.3001 11.5269 13.4871 11.5269 10.7522Z" stroke="#2E2E2E" stroke-width="2"/>
<path d="M6.19336 18.9668H9.38645C9.77865 18.9668 10.1655 19.0552 10.5163 19.2249L13.2389 20.5423C13.5897 20.712 13.9765 20.8003 14.3687 20.8003H15.7588C17.1034 20.8003 18.1934 21.8551 18.1934 23.1561C18.1934 23.2087 18.1574 23.2549 18.1051 23.2693L14.7172 24.2061C14.1095 24.3741 13.4587 24.3156 12.8934 24.042L9.98284 22.6339" stroke="#2E2E2E" stroke-width="2" stroke-linecap="round" stroke-linejoin="round"/>
<path d="M18.1934 22.2998L24.3171 20.4184C25.4027 20.0801 26.5762 20.4812 27.2562 21.4229C27.7479 22.1037 27.5476 23.0788 26.8314 23.4921L16.8106 29.2738C16.1732 29.6416 15.4212 29.7313 14.7203 29.5233L6.19336 26.993" stroke="#2E2E2E" stroke-width="2" stroke-linecap="round" stroke-linejoin="round"/>
</svg>
