<svg width="40" height="40" viewBox="0 0 40 40" fill="none" xmlns="http://www.w3.org/2000/svg">
<circle cx="20.1" cy="20.0998" r="19.55" fill="#FFEBEC"/>
<g clip-path="url(#clip0_265_955)">
<path d="M20.1004 28.2458C15.6015 28.2458 11.9546 24.5989 11.9546 20.0999C11.9546 15.601 15.6015 11.9541 20.1004 11.9541C24.5994 11.9541 28.2463 15.601 28.2463 20.0999C28.2463 24.5989 24.5994 28.2458 20.1004 28.2458ZM20.1004 18.9481L17.7968 16.6437L16.6441 17.7963L18.9486 20.0999L16.6441 22.4036L17.7968 23.5562L20.1004 21.2518L22.4041 23.5562L23.5567 22.4036L21.2522 20.0999L23.5567 17.7963L22.4041 16.6437L20.1004 18.9481Z" fill="#E72B3B"/>
</g>
<defs>
<clipPath id="clip0_265_955">
<rect width="19.55" height="19.55" fill="white" transform="translate(10.3254 10.3252)"/>
</clipPath>
</defs>
</svg>
