<svg id="Layer_1" height="512" viewBox="0 0 520 520" width="512" xmlns="http://www.w3.org/2000/svg" data-name="Layer 1"><path d="m430.366 364.563-146.899 63.903 63.838-146.9h.065l41.466 41.531z" fill="#a0ebff"/><path d="m514.647 327.95-84.272 36.605 12.493-95.493z" fill="#73c8f0"/><path d="m442.868 269.062-95.492 12.494 36.605-84.272z" fill="#73c8f0"/><path d="m89.625 261.105-78.224 41.3-6.048-77.906z" fill="#a0ebff"/><path d="m236.521 324.996-225.127-22.589 78.228-41.293z" fill="#41b4e6"/><path d="m236.521 324.996-146.899-63.882 41.552-41.466 41.444-41.552h.087z" fill="#a0ebff"/><path d="m89.625 261.105-84.272-36.606 71.779-58.887z" fill="#73c8f0"/><path d="m445.733 96.628a3.99 3.99 0 0 1 -3.978 3.979 36.933 36.933 0 0 0 -36.924 36.844 3.94 3.94 0 0 1 -3.979 3.979 3.99 3.99 0 0 1 -3.979-3.979 36.916 36.916 0 0 0 -36.844-36.844 3.99 3.99 0 0 1 -3.979-3.979 3.94 3.94 0 0 1 3.979-3.979 36.933 36.933 0 0 0 36.844-36.924 3.99 3.99 0 0 1 3.979-3.979 3.941 3.941 0 0 1 3.979 3.979 36.95 36.95 0 0 0 36.924 36.924 3.94 3.94 0 0 1 3.978 3.979z" fill="#a0ebff"/><path d="m194.508 405.626a3.941 3.941 0 0 1 -3.979 3.979 36.883 36.883 0 0 0 -36.844 36.924 3.991 3.991 0 0 1 -3.979 3.979 3.941 3.941 0 0 1 -3.979-3.979 36.951 36.951 0 0 0 -36.927-36.924 3.941 3.941 0 0 1 -3.979-3.979 3.99 3.99 0 0 1 3.979-3.978 36.934 36.934 0 0 0 36.927-36.848 3.941 3.941 0 0 1 3.979-3.979 3.991 3.991 0 0 1 3.979 3.979 36.866 36.866 0 0 0 36.844 36.845 3.99 3.99 0 0 1 3.979 3.981z" fill="#a0ebff"/><path d="m304.842 48.882a3.991 3.991 0 0 1 -3.979 3.979 36.916 36.916 0 0 0 -36.844 36.844 3.99 3.99 0 0 1 -3.979 3.979 3.941 3.941 0 0 1 -3.979-3.979 36.933 36.933 0 0 0 -36.924-36.844 3.991 3.991 0 0 1 -3.979-3.979 3.941 3.941 0 0 1 3.979-3.979 36.95 36.95 0 0 0 36.924-36.924 3.941 3.941 0 0 1 3.979-3.979 3.99 3.99 0 0 1 3.979 3.979 36.933 36.933 0 0 0 36.844 36.921 3.941 3.941 0 0 1 3.979 3.982z" fill="#a0ebff"/><g fill="#b6f1ff"><path d="m490.774 150.376h-8.591v-8.591a7.958 7.958 0 1 0 -15.916 0v8.591h-8.595a7.958 7.958 0 0 0 0 15.915h8.595v8.595a7.958 7.958 0 1 0 15.916 0v-8.595h8.591a7.958 7.958 0 1 0 0-15.915z"/><path d="m44.508 87.351a7.958 7.958 0 0 0 7.958-7.958v-8.593h8.591a7.958 7.958 0 1 0 0-15.915h-8.591v-8.593a7.958 7.958 0 0 0 -15.916 0v8.591h-8.595a7.958 7.958 0 0 0 0 15.915h8.595v8.595a7.959 7.959 0 0 0 7.958 7.958z"/><path d="m327.1 136.4h-8.591v-8.591a7.958 7.958 0 1 0 -15.916 0v8.591h-8.593a7.958 7.958 0 0 0 0 15.916h8.595v8.595a7.958 7.958 0 0 0 15.916 0v-8.595h8.589a7.958 7.958 0 0 0 0-15.916z"/><path d="m443.028 468.245h-7.958v-7.957a7.958 7.958 0 1 0 -15.916 0v7.957h-7.954a7.958 7.958 0 0 0 0 15.916h7.957v7.958a7.958 7.958 0 0 0 15.916 0v-7.958h7.958a7.958 7.958 0 0 0 0-15.916z"/><path d="m275.915 484.161h-7.957v-7.961a7.958 7.958 0 0 0 -15.916 0v7.958h-7.957a7.958 7.958 0 1 0 0 15.915h7.957v7.958a7.958 7.958 0 0 0 15.916 0v-7.958h7.957a7.958 7.958 0 1 0 0-15.915z"/><path d="m76.972 484.161h-7.957v-7.961a7.958 7.958 0 0 0 -15.916 0v7.958h-7.957a7.958 7.958 0 1 0 0 15.915h7.958v7.958a7.958 7.958 0 0 0 15.916 0v-7.958h7.957a7.958 7.958 0 1 0 0-15.915z"/><path d="m503.231 31.01h-8.591v-8.591a7.958 7.958 0 1 0 -15.915 0v8.591h-8.6a7.958 7.958 0 1 0 0 15.915h8.6v8.6a7.958 7.958 0 1 0 15.915 0v-8.6h8.591a7.958 7.958 0 1 0 0-15.915z"/></g><path d="m508.594 405.856-225.127 22.61 146.899-63.903z" fill="#41b4e6"/><path d="m514.647 327.95-6.048 77.906-78.224-41.301z" fill="#a0ebff"/><path d="m347.305 281.566-63.838 146.9 22.61-225.214z" fill="#41b4e6"/><path d="m383.981 197.276-36.611 84.29h-.065l-41.228-78.314z" fill="#a0ebff"/><path d="m442.879 269.053-12.513 95.51-41.53-41.466-41.466-41.531z" fill="#41b4e6"/><path d="m514.647 327.95-71.779-58.888-58.887-71.778 79.498 51.088z" fill="#a0ebff"/><path d="m213.933 99.803-41.228 78.293h-.087l-36.59-84.269z" fill="#a0ebff"/><path d="m236.521 324.996-63.816-146.9 41.228-78.293z" fill="#41b4e6"/><path d="m172.618 178.096-41.444 41.552-41.552 41.466-12.491-95.509z" fill="#41b4e6"/><path d="m172.624 178.106-95.492-12.494 58.887-71.778z" fill="#73c8f0"/><path d="m136.019 93.834-58.887 71.778-71.779 58.887 51.168-79.577z" fill="#a0ebff"/><path d="m388.836 323.105-105.361 105.36 63.821-146.9h.08z" fill="#77e2ff"/><path d="m442.868 269.062-95.492 12.494 36.605-84.272z" fill="#4ebaec"/><path d="m236.525 325.015-105.361-105.36 41.46-41.54h.08z" fill="#77e2ff"/><path d="m445.733 96.628a3.99 3.99 0 0 1 -3.978 3.979 36.933 36.933 0 0 0 -36.924 36.844 3.94 3.94 0 0 1 -3.979 3.979 3.99 3.99 0 0 1 -3.979-3.979 36.916 36.916 0 0 0 -36.844-36.844 3.99 3.99 0 0 1 -3.979-3.979 3.94 3.94 0 0 1 3.979-3.979 36.933 36.933 0 0 0 36.844-36.924 3.99 3.99 0 0 1 3.979-3.979 3.941 3.941 0 0 1 3.979 3.979 36.95 36.95 0 0 0 36.924 36.924 3.94 3.94 0 0 1 3.978 3.979z" fill="#77e2ff"/><path d="m304.882 48.882a3.991 3.991 0 0 1 -3.979 3.979 36.916 36.916 0 0 0 -36.844 36.844 3.991 3.991 0 0 1 -3.979 3.979h-.08v-89.684h.08a3.991 3.991 0 0 1 3.979 3.979 36.933 36.933 0 0 0 36.841 36.921 3.941 3.941 0 0 1 3.982 3.982z" fill="#77e2ff"/><path d="m490.774 150.376h-8.591v-8.591a7.958 7.958 0 1 0 -15.916 0v8.591h-8.595a7.958 7.958 0 0 0 0 15.915h8.595v8.595a7.958 7.958 0 1 0 15.916 0v-8.595h8.591a7.958 7.958 0 1 0 0-15.915z" fill="#8de9ff"/><path d="m327.1 136.4h-8.591v-8.591a7.958 7.958 0 1 0 -15.916 0v8.591h-8.593a7.958 7.958 0 0 0 0 15.916h8.595v8.595a7.958 7.958 0 0 0 15.916 0v-8.595h8.589a7.958 7.958 0 0 0 0-15.916z" fill="#8de9ff"/><path d="m443.028 468.245h-7.958v-7.957a7.958 7.958 0 1 0 -15.916 0v7.957h-7.954a7.958 7.958 0 0 0 0 15.916h7.957v7.958a7.958 7.958 0 0 0 15.916 0v-7.958h7.958a7.958 7.958 0 0 0 0-15.916z" fill="#8de9ff"/><path d="m283.873 492.127a7.982 7.982 0 0 1 -7.958 7.958h-7.957v7.957a7.981 7.981 0 0 1 -7.958 7.958v-47.746a7.981 7.981 0 0 1 7.958 7.957v7.958h7.957a7.981 7.981 0 0 1 7.958 7.958z" fill="#8de9ff"/><path d="m503.231 31.01h-8.591v-8.591a7.958 7.958 0 1 0 -15.915 0v8.591h-8.6a7.958 7.958 0 1 0 0 15.915h8.6v8.6a7.958 7.958 0 1 0 15.915 0v-8.6h8.591a7.958 7.958 0 1 0 0-15.915z" fill="#8de9ff"/><path d="m347.305 281.566-63.838 146.9 22.61-225.214z" fill="#1ea6e1"/><path d="m383.981 197.276-36.611 84.29h-.065l-41.228-78.314z" fill="#77e2ff"/><path d="m442.868 269.072-54.032 54.033-41.46-41.54z" fill="#1ea6e1"/><path d="m463.479 248.382v.079l-20.611 20.611-58.887-71.779z" fill="#77e2ff"/><path d="m213.933 99.803-41.228 78.293h-.087l-36.59-84.269z" fill="#77e2ff"/><path d="m236.521 324.996-63.816-146.9 41.228-78.293z" fill="#1ea6e1"/><path d="m172.624 178.115-41.46 41.54-53.953-54.033z" fill="#1ea6e1"/><path d="m172.624 178.115-95.413-12.493h-.079l58.887-71.779z" fill="#4ebaec"/><path d="m136.019 93.843-58.887 71.779-20.611-20.691z" fill="#77e2ff"/></svg>