<svg width="22" height="22" viewBox="0 0 22 22" fill="none" xmlns="http://www.w3.org/2000/svg">
<path d="M10.6733 11.0009C13.1295 11.0009 15.1205 9.00982 15.1205 6.55368C15.1205 4.09754 13.1295 2.10645 10.6733 2.10645C8.21717 2.10645 6.22607 4.09754 6.22607 6.55368C6.22607 9.00982 8.21717 11.0009 10.6733 11.0009Z" stroke="#1C2A3A" stroke-width="1.33417" stroke-linecap="round" stroke-linejoin="round"/>
<path d="M17.0859 14.3271L13.9372 17.4757C13.8127 17.6003 13.6971 17.8315 13.6704 18.0005L13.5014 19.2012C13.4391 19.637 13.7416 19.9395 14.1774 19.8772L15.3781 19.7082C15.5471 19.6815 15.7873 19.5659 15.9029 19.4414L19.0516 16.2928C19.5941 15.7502 19.8521 15.1187 19.0516 14.3182C18.2599 13.5265 17.6285 13.7845 17.0859 14.3271Z" stroke="#1C2A3A" stroke-width="1.33417" stroke-miterlimit="10" stroke-linecap="round" stroke-linejoin="round"/>
<path d="M16.6324 14.7803C16.8993 15.7409 17.6464 16.488 18.607 16.7548" stroke="#1C2A3A" stroke-width="1.33417" stroke-miterlimit="10" stroke-linecap="round" stroke-linejoin="round"/>
<path d="M3.0332 19.8951C3.0332 16.4529 6.4576 13.6689 10.6736 13.6689C11.5986 13.6689 12.488 13.8024 13.3152 14.0514" stroke="#1C2A3A" stroke-width="1.33417" stroke-linecap="round" stroke-linejoin="round"/>
</svg>
