<svg width="362" height="305" viewBox="0 0 362 305" fill="none" xmlns="http://www.w3.org/2000/svg">
<g opacity="0.5">
<path d="M321.157 1.27246H59.1417C50.8606 1.27246 44.1489 7.98839 44.1489 16.2653V68.5508C44.1489 76.8277 50.8606 83.5394 59.1417 83.5394H172.398C187.021 65.6288 209.278 54.1875 234.211 54.1875C259.144 54.1875 281.405 65.6288 296.032 83.5394H321.157C329.433 83.5394 336.145 76.8277 336.145 68.5508V16.2653C336.145 7.98839 329.433 1.27246 321.157 1.27246ZM88.5659 65.3907C75.8741 65.3907 65.5812 55.0977 65.5812 42.4059C65.5812 29.7141 75.8741 19.4255 88.5659 19.4255C101.258 19.4255 111.546 29.7141 111.546 42.4059C111.546 55.0977 101.258 65.3907 88.5659 65.3907Z" fill="#CCD2D6"/>
</g>
<path d="M321.157 84.8189H295.429L295.046 84.351C280.057 65.9939 257.881 55.467 234.211 55.467C210.542 55.467 188.373 65.9939 173.385 84.351L173.002 84.8189H59.1418C50.1717 84.8189 42.873 77.5245 42.873 68.5544V16.2688C42.873 7.29863 50.1717 0 59.1418 0H321.157C330.127 0 337.421 7.29863 337.421 16.2688V68.5544C337.421 77.5245 330.123 84.8189 321.157 84.8189ZM296.636 82.2669H321.157C328.719 82.2669 334.869 76.1167 334.869 68.5544V16.2688C334.869 8.70646 328.719 2.55197 321.157 2.55197H59.1418C51.5795 2.55197 45.425 8.70646 45.425 16.2688V68.5544C45.425 76.1167 51.5795 82.2669 59.1418 82.2669H171.794C187.259 63.6078 209.972 52.9151 234.211 52.9151C258.451 52.9151 281.163 63.6078 296.636 82.2669Z" fill="#CCD2D6"/>
<g opacity="0.25">
<path d="M111.546 42.4053C111.546 55.0971 101.258 65.39 88.5658 65.39C75.874 65.39 65.5811 55.0971 65.5811 42.4053C65.5811 29.7135 75.874 19.4248 88.5658 19.4248C101.258 19.4248 111.546 29.7135 111.546 42.4053Z" fill="#CCD2D6"/>
</g>
<path d="M88.5659 66.6656C75.1893 66.6656 64.3052 55.7815 64.3052 42.4049C64.3052 29.0283 75.1893 18.1484 88.5659 18.1484C101.942 18.1484 112.822 29.0283 112.822 42.4049C112.822 55.7815 101.942 66.6656 88.5659 66.6656ZM88.5659 20.7047C76.5972 20.7047 66.8571 30.4404 66.8571 42.4091C66.8571 54.3779 76.5972 64.1179 88.5659 64.1179C100.535 64.1179 110.27 54.3779 110.27 42.4091C110.27 30.4404 100.535 20.7047 88.5659 20.7047Z" fill="#CCD2D6"/>
<path d="M296.173 25.8215H127.288C126.582 25.8215 126.012 25.2516 126.012 24.5455C126.012 23.8395 126.582 23.2695 127.288 23.2695H296.173C296.879 23.2695 297.449 23.8395 297.449 24.5455C297.449 25.2516 296.879 25.8215 296.173 25.8215Z" fill="#CCD2D6"/>
<path d="M246.346 40.594H127.288C126.582 40.594 126.012 40.024 126.012 39.318C126.012 38.6119 126.582 38.042 127.288 38.042H246.346C247.052 38.042 247.622 38.6119 247.622 39.318C247.622 40.024 247.052 40.594 246.346 40.594Z" fill="#CCD2D6"/>
<path d="M180.301 59.133H127.288C126.582 59.133 126.012 58.5631 126.012 57.857C126.012 57.151 126.582 56.5811 127.288 56.5811H180.301C181.007 56.5811 181.577 57.151 181.577 57.857C181.577 58.5631 181.007 59.133 180.301 59.133Z" fill="#CCD2D6"/>
<g opacity="0.5">
<path d="M290.878 273.686L266.94 228.997L265.06 230C259.752 232.846 253.138 230.843 250.293 225.534L243.653 213.145C240.557 213.51 237.401 213.702 234.207 213.702C213.081 213.702 193.877 205.489 179.612 192.078H82.8922C74.6111 192.078 67.8994 198.79 67.8994 207.067V259.352C67.8994 267.629 74.6111 274.345 82.8922 274.345H291.26C291.124 274.128 290.997 273.907 290.873 273.682L290.878 273.686ZM112.321 256.196C99.6289 256.196 89.3359 245.908 89.3359 233.216C89.3359 220.524 99.6289 210.231 112.321 210.231C125.012 210.231 135.301 220.524 135.301 233.216C135.301 245.908 125.012 256.196 112.321 256.196Z" fill="#CCD2D6"/>
</g>
<g opacity="0.5">
<path d="M359.904 207.071V259.357C359.904 267.633 353.188 274.349 344.911 274.349H312.744L315.096 273.086C320.408 270.241 322.407 263.631 319.562 258.314L295.62 213.629L297.496 212.626C302.808 209.78 304.807 203.166 301.958 197.858L298.861 192.078H344.907C353.184 192.078 359.9 198.79 359.9 207.067L359.904 207.071Z" fill="#CCD2D6"/>
</g>
<path d="M293.553 275.629H82.8923C73.9222 275.629 66.6235 268.331 66.6235 259.361V207.075C66.6235 198.105 73.9222 190.811 82.8923 190.811H180.118L180.488 191.155C195.085 204.876 214.166 212.43 234.211 212.43C237.299 212.43 240.425 212.247 243.509 211.881L244.372 211.779L251.42 224.935C252.636 227.202 254.661 228.86 257.124 229.609C259.586 230.353 262.194 230.094 264.461 228.882L267.463 227.274L292.001 273.086C292.107 273.286 292.226 273.486 292.349 273.681L293.553 275.629ZM82.8923 193.358C75.33 193.358 69.1755 199.508 69.1755 207.071V259.356C69.1755 266.919 75.33 273.073 82.8923 273.073H289.1L266.417 230.723L265.664 231.127C262.798 232.663 259.505 232.99 256.388 232.05C253.27 231.106 250.71 229.009 249.174 226.138L242.943 214.514C240.042 214.825 237.112 214.982 234.211 214.982C213.681 214.982 194.133 207.309 179.11 193.358H82.8923Z" fill="#CCD2D6"/>
<path d="M344.911 275.629H307.665L314.496 271.967C319.179 269.458 320.948 263.605 318.439 258.923L293.897 213.115L296.896 211.507C299.163 210.291 300.822 208.266 301.57 205.803C302.315 203.341 302.055 200.733 300.839 198.471L296.734 190.811H344.911C353.881 190.811 361.18 198.109 361.18 207.075V259.361C361.18 268.331 353.881 275.629 344.911 275.629ZM317.452 273.077H344.911C352.474 273.077 358.628 266.923 358.628 259.361V207.075C358.628 199.513 352.474 193.363 344.911 193.363H300.996L303.089 197.263C304.628 200.129 304.956 203.426 304.012 206.539C303.072 209.657 300.971 212.217 298.104 213.757L297.355 214.161L320.693 257.719C323.53 263.018 322.037 269.5 317.456 273.077H317.452Z" fill="#CCD2D6"/>
<g opacity="0.25">
<path d="M135.301 233.216C135.301 245.908 125.012 256.197 112.321 256.197C99.6289 256.197 89.3359 245.908 89.3359 233.216C89.3359 220.524 99.6289 210.231 112.321 210.231C125.012 210.231 135.301 220.524 135.301 233.216Z" fill="#CCD2D6"/>
</g>
<path d="M112.321 257.472C98.9442 257.472 88.0601 246.592 88.0601 233.216C88.0601 219.839 98.9442 208.955 112.321 208.955C125.697 208.955 136.577 219.839 136.577 233.216C136.577 246.592 125.697 257.472 112.321 257.472ZM112.321 211.511C100.352 211.511 90.612 221.251 90.612 233.22C90.612 245.189 100.352 254.925 112.321 254.925C124.289 254.925 134.025 245.189 134.025 233.22C134.025 221.251 124.289 211.511 112.321 211.511Z" fill="#CCD2D6"/>
<path d="M206.658 216.628H151.038C150.332 216.628 149.762 216.058 149.762 215.352C149.762 214.646 150.332 214.076 151.038 214.076H206.658C207.364 214.076 207.934 214.646 207.934 215.352C207.934 216.058 207.364 216.628 206.658 216.628Z" fill="#CCD2D6"/>
<path d="M228.095 231.4H151.038C150.332 231.4 149.762 230.83 149.762 230.124C149.762 229.418 150.332 228.848 151.038 228.848H228.095C228.801 228.848 229.371 229.418 229.371 230.124C229.371 230.83 228.801 231.4 228.095 231.4Z" fill="#CCD2D6"/>
<path d="M251.85 249.94H151.043C150.337 249.94 149.767 249.37 149.767 248.664C149.767 247.958 150.337 247.388 151.043 247.388H251.85C252.556 247.388 253.126 247.958 253.126 248.664C253.126 249.37 252.556 249.94 251.85 249.94Z" fill="#CCD2D6"/>
<g opacity="0.5">
<path d="M154.458 133.944C154.458 120.482 157.792 107.799 163.679 96.6768H16.2687C7.99181 96.6768 1.27588 103.388 1.27588 111.67V163.951C1.27588 172.232 7.99181 178.944 16.2687 178.944H168.353C159.583 166.133 154.458 150.642 154.458 133.944ZM45.6929 160.791C33.0011 160.791 22.7124 150.502 22.7124 137.81C22.7124 125.118 33.0011 114.83 45.6929 114.83C58.3847 114.83 68.6776 125.118 68.6776 137.81C68.6776 150.502 58.3847 160.791 45.6929 160.791Z" fill="#CCD2D6"/>
</g>
<path d="M170.773 180.224H16.2688C7.29863 180.224 0 172.926 0 163.955V111.674C0 102.704 7.29863 95.4053 16.2688 95.4053H165.797L164.806 97.2767C158.868 108.493 155.734 121.176 155.734 133.948C155.734 149.847 160.463 165.163 169.408 178.229L170.773 180.224ZM16.2688 97.953C8.70646 97.953 2.55197 104.107 2.55197 111.67V163.951C2.55197 171.513 8.70646 177.668 16.2688 177.668H165.976C157.597 164.623 153.182 149.558 153.182 133.944C153.182 121.461 156.083 109.067 161.591 97.953H16.2688Z" fill="#CCD2D6"/>
<g opacity="0.25">
<path d="M68.6776 137.81C68.6776 150.501 58.3847 160.79 45.6929 160.79C33.0011 160.79 22.7124 150.501 22.7124 137.81C22.7124 125.118 33.0011 114.829 45.6929 114.829C58.3847 114.829 68.6776 125.118 68.6776 137.81Z" fill="#CCD2D6"/>
</g>
<path d="M45.693 162.067C32.3207 162.067 21.4365 151.187 21.4365 137.81C21.4365 124.434 32.3164 113.554 45.693 113.554C59.0695 113.554 69.9537 124.434 69.9537 137.81C69.9537 151.187 59.0695 162.067 45.693 162.067ZM45.693 116.11C33.7242 116.11 23.9885 125.846 23.9885 137.814C23.9885 149.783 33.7242 159.519 45.693 159.519C57.6617 159.519 67.4017 149.783 67.4017 137.814C67.4017 125.846 57.6617 116.11 45.693 116.11Z" fill="#CCD2D6"/>
<path d="M143.608 121.223H84.4147C83.7086 121.223 83.1387 120.653 83.1387 119.947C83.1387 119.241 83.7086 118.671 84.4147 118.671H143.608C144.314 118.671 144.884 119.241 144.884 119.947C144.884 120.653 144.314 121.223 143.608 121.223Z" fill="#CCD2D6"/>
<path d="M137.075 135.998H84.4147C83.7086 135.998 83.1387 135.428 83.1387 134.722C83.1387 134.016 83.7086 133.446 84.4147 133.446H137.075C137.781 133.446 138.35 134.016 138.35 134.722C138.35 135.428 137.781 135.998 137.075 135.998Z" fill="#CCD2D6"/>
<path d="M137.428 154.538H84.4147C83.7086 154.538 83.1387 153.968 83.1387 153.262C83.1387 152.556 83.7086 151.986 84.4147 151.986H137.428C138.134 151.986 138.704 152.556 138.704 153.262C138.704 153.968 138.134 154.538 137.428 154.538Z" fill="#CCD2D6"/>
<g opacity="0.25">
<path d="M288.674 133.945C288.674 164.025 264.29 188.409 234.211 188.409C204.132 188.409 179.752 164.025 179.752 133.945C179.752 103.866 204.132 79.4863 234.211 79.4863C264.29 79.4863 288.674 103.866 288.674 133.945Z" fill="#CCD2D6"/>
</g>
<path d="M234.211 189.684C203.481 189.684 178.476 164.679 178.476 133.945C178.476 103.211 203.477 78.21 234.211 78.21C264.945 78.21 289.95 103.211 289.95 133.945C289.95 164.679 264.945 189.684 234.211 189.684ZM234.211 80.7662C204.885 80.7662 181.028 104.623 181.028 133.949C181.028 163.276 204.885 187.136 234.211 187.136C263.537 187.136 287.398 163.276 287.398 133.949C287.398 104.623 263.537 80.7662 234.211 80.7662Z" fill="#CCD2D6"/>
<g opacity="0.5">
<path d="M234.211 54.1918C190.164 54.1918 154.458 89.898 154.458 133.945C154.458 177.992 190.164 213.703 234.211 213.703C237.409 213.703 240.561 213.511 243.657 213.145C264.29 210.712 282.515 200.402 295.237 185.303C306.933 171.429 313.977 153.506 313.977 133.941C313.977 89.8938 278.266 54.1875 234.215 54.1875L234.211 54.1918ZM234.211 188.408C204.132 188.408 179.752 164.024 179.752 133.945C179.752 103.866 204.132 79.486 234.211 79.486C264.29 79.486 288.674 103.866 288.674 133.945C288.674 164.024 264.29 188.408 234.211 188.408Z" fill="#CCD2D6"/>
</g>
<path d="M234.211 214.983C189.53 214.983 153.182 178.63 153.182 133.949C153.182 89.2684 189.53 52.9199 234.211 52.9199C278.892 52.9199 315.253 89.2684 315.253 133.949C315.253 153.034 308.49 171.569 296.215 186.133C282.881 201.963 264.269 212.01 243.811 214.421C240.629 214.796 237.401 214.987 234.215 214.987L234.211 214.983ZM234.211 55.4676C190.938 55.4676 155.734 90.672 155.734 133.945C155.734 177.218 190.938 212.426 234.211 212.426C237.299 212.426 240.425 212.244 243.509 211.878C263.32 209.543 281.346 199.815 294.259 184.482C306.151 170.378 312.697 152.43 312.697 133.945C312.697 90.672 277.488 55.4676 234.207 55.4676H234.211Z" fill="#CCD2D6"/>
<g opacity="0.75">
<path d="M315.096 273.091L305.645 278.153C300.337 281.002 293.719 278.999 290.877 273.687L266.94 228.998L295.624 213.635L319.566 258.32C322.411 263.632 320.408 270.246 315.1 273.091H315.096Z" fill="#CCD2D6"/>
</g>
<path d="M300.511 280.729C299.324 280.729 298.133 280.555 296.968 280.202C293.85 279.258 291.29 277.161 289.754 274.29L265.217 228.478L296.147 211.911L320.689 257.719C323.861 263.644 321.624 271.044 315.699 274.217L306.249 279.279C304.454 280.24 302.493 280.729 300.511 280.729ZM268.671 229.52L292.004 273.082C293.221 275.353 295.245 277.012 297.708 277.756C300.171 278.5 302.778 278.241 305.045 277.025L314.496 271.963C319.179 269.454 320.948 263.601 318.439 258.918L295.101 215.361L268.667 229.52H268.671Z" fill="#CCD2D6"/>
<path d="M297.5 212.631L295.624 213.639L266.94 229.002L265.064 230.01C259.756 232.855 253.138 230.852 250.297 225.544L243.657 213.154C248.225 212.614 252.678 211.691 256.979 210.41C267.62 207.25 277.335 201.921 285.607 194.941C289.082 192.011 292.306 188.787 295.237 185.308L301.961 197.863C304.811 203.171 302.808 209.789 297.5 212.631Z" fill="#CCD2D6"/>
<path d="M262.184 151.282C263.643 152.741 263.643 155.11 262.184 156.565L256.842 161.919C255.371 163.378 253.002 163.378 251.543 161.919L236.852 147.216C235.393 145.757 233.024 145.757 231.569 147.216L216.879 161.907C215.42 163.365 213.051 163.365 211.596 161.907L206.254 156.565C204.795 155.106 204.795 152.737 206.254 151.282L220.945 136.591C222.404 135.132 222.404 132.763 220.945 131.309L206.241 116.618C204.782 115.159 204.782 112.79 206.241 111.318L211.596 105.976C213.055 104.517 215.424 104.517 216.879 105.976L231.569 120.667C233.041 122.126 235.397 122.126 236.869 120.667L251.56 105.976C253.019 104.517 255.388 104.517 256.842 105.976L262.184 111.318C263.643 112.777 263.643 115.146 262.184 116.601L247.494 131.292C246.035 132.763 246.035 135.119 247.494 136.591L262.184 151.282Z" fill="#CCD2D6"/>
<g opacity="0.25">
<path d="M173.908 284.715H80.0677C78.6278 284.715 77.4604 285.882 77.4604 287.322V300.18C77.4604 301.62 78.6278 302.787 80.0677 302.787H173.908C175.348 302.787 176.515 301.62 176.515 300.18V287.322C176.515 285.882 175.348 284.715 173.908 284.715Z" fill="#CCD2D6"/>
</g>
<path d="M173.908 304.063H80.0678C77.9284 304.063 76.1846 302.323 76.1846 300.179V287.322C76.1846 285.182 77.9242 283.438 80.0678 283.438H173.908C176.047 283.438 177.791 285.178 177.791 287.322V300.179C177.791 302.319 176.052 304.063 173.908 304.063ZM80.0678 285.99C79.3363 285.99 78.7365 286.586 78.7365 287.322V300.179C78.7365 300.911 79.332 301.511 80.0678 301.511H173.908C174.639 301.511 175.239 300.915 175.239 300.179V287.322C175.239 286.59 174.644 285.99 173.908 285.99H80.0678Z" fill="#CCD2D6"/>
<g opacity="0.25">
<path d="M352.98 159.801H327.315C325.875 159.801 324.708 160.968 324.708 162.408V175.266C324.708 176.706 325.875 177.873 327.315 177.873H352.98C354.42 177.873 355.587 176.706 355.587 175.266V162.408C355.587 160.968 354.42 159.801 352.98 159.801Z" fill="#CCD2D6"/>
</g>
<path d="M352.984 179.145H327.315C325.176 179.145 323.432 177.405 323.432 175.261V162.404C323.432 160.264 325.172 158.521 327.315 158.521H352.984C355.123 158.521 356.867 160.26 356.867 162.404V175.261C356.867 177.401 355.128 179.145 352.984 179.145ZM327.315 161.072C326.584 161.072 325.984 161.668 325.984 162.404V175.261C325.984 175.993 326.58 176.593 327.315 176.593H352.984C353.715 176.593 354.315 175.997 354.315 175.261V162.404C354.315 161.672 353.72 161.072 352.984 161.072H327.315Z" fill="#CCD2D6"/>
<g opacity="0.25">
<path d="M50.984 189.581H25.3197C23.8797 189.581 22.7124 190.748 22.7124 192.188V205.046C22.7124 206.486 23.8797 207.653 25.3197 207.653H50.984C52.4239 207.653 53.5912 206.486 53.5912 205.046V192.188C53.5912 190.748 52.4239 189.581 50.984 189.581Z" fill="#CCD2D6"/>
</g>
<path d="M50.9883 208.93H25.3198C23.1804 208.93 21.4365 207.19 21.4365 205.047V192.189C21.4365 190.05 23.1761 188.306 25.3198 188.306H50.9883C53.1277 188.306 54.8716 190.045 54.8716 192.189V205.047C54.8716 207.186 53.132 208.93 50.9883 208.93ZM25.3198 190.858C24.5882 190.858 23.9885 191.453 23.9885 192.189V205.047C23.9885 205.778 24.584 206.378 25.3198 206.378H50.9883C51.7199 206.378 52.3196 205.782 52.3196 205.047V192.189C52.3196 191.457 51.7241 190.858 50.9883 190.858H25.3198Z" fill="#CCD2D6"/>
</svg>
