<svg width="148" height="148" viewBox="0 0 148 148" fill="none" xmlns="http://www.w3.org/2000/svg">
<path d="M148 73.0987C148 113.477 114.864 146.197 74 146.197C33.1364 146.197 0 113.465 0 73.0987C0 32.7328 33.1364 0 74 0C114.864 0 148 32.7328 148 73.0987Z" fill="url(#paint0_linear_594_6963)"/>
<mask id="mask0_594_6963" style="mask-type:luminance" maskUnits="userSpaceOnUse" x="0" y="1" width="148" height="147">
<path d="M148 74.0987C148 114.477 114.864 147.197 74 147.197C33.1364 147.197 0 114.465 0 74.0987C0 33.7328 33.1364 1 74 1C114.864 1 148 33.7328 148 74.0987Z" fill="white"/>
</mask>
<g mask="url(#mask0_594_6963)">
<path d="M105.651 46.4754C101.725 47.7683 106.105 63.2085 110.635 57.0175C110.925 59.3049 109.817 61.6794 107.25 61.5551C106.633 64.1657 110.534 63.6685 110.623 66.7267C110.698 69.7476 107.841 69.4741 107.829 72.2464C107.829 74.8819 110.748 76.5229 113.102 75.69C115.984 74.683 116.21 72.2215 116.827 70.046C118.186 72.321 118.576 75.4165 117.179 77.7039C119.004 77.9277 119.948 76.3116 120.011 74.7203C120.98 76.2494 120.615 78.4498 119.671 79.8546C120.376 79.7054 121.358 80.0659 122.075 79.9541C122.541 82.6269 120.238 85.6354 118.098 87.1893C115.782 88.8801 111.151 88.5071 114.977 91.6399C117.796 93.9522 120.175 92.622 120.263 97.085C120.326 100.28 118.79 103.264 115.355 103.164C115.317 102.94 115.241 102.741 115.128 102.63C117.632 105.464 116.94 110.138 114.348 112.625C114.876 110.959 115.141 108.584 113.505 107.553C113.731 108.845 113.555 110.176 112.259 110.636C112.787 116.628 101.373 116.939 97.3076 117.324C94.2117 117.622 91.3549 118.878 88.2967 119.176C85.4147 119.462 82.2433 118.965 79.3362 118.803C79.0593 106.396 72.3641 95.1581 67.8712 83.7955C65.845 78.6612 68.8277 75.5905 72.5277 71.5999C77.8511 65.8565 83.6402 60.8713 88.2967 54.7425L105.689 46.4629L105.651 46.4754Z" fill="#331B19"/>
<path d="M40.7503 46.4754C44.6768 47.7683 40.2847 63.2085 35.7666 57.0175C35.4772 59.3049 36.5847 61.6794 39.152 61.5551C39.7687 64.1657 35.8673 63.6685 35.7792 66.7267C35.7037 69.7476 38.5605 69.4741 38.5731 72.2464C38.5731 74.8819 35.6534 76.5229 33.3 75.69C30.418 74.683 30.1915 72.2215 29.5748 70.046C28.2156 72.321 27.8255 75.4165 29.2224 77.7039C27.4102 77.9277 26.4663 76.3116 26.3908 74.7203C25.4217 76.2494 25.7867 78.4498 26.7306 79.8546C26.0258 79.7054 25.0568 80.0659 24.3394 79.9541C23.8738 82.6269 26.1768 85.6354 28.3163 87.1893C30.6319 88.8801 35.2632 88.5071 31.4374 91.6399C28.6183 93.9522 26.2398 92.622 26.1517 97.085C26.0887 100.28 27.6241 103.264 31.0724 103.164C31.1102 102.94 31.1857 102.741 31.2989 102.63C28.7945 105.464 29.4867 110.138 32.0792 112.625C31.5506 110.959 31.2864 108.584 32.9224 107.553C32.6959 108.845 32.8721 110.176 34.1809 110.636C33.6523 116.628 45.067 116.939 49.1319 117.324C52.2279 117.622 55.0847 118.878 58.1428 119.176C61.0248 119.462 64.1962 118.965 67.0908 118.803C67.3676 106.396 74.0629 95.1581 78.5557 83.7955C80.5819 78.6612 77.5993 75.5905 73.8993 71.5999C68.5758 65.8565 62.7741 60.8713 58.1302 54.7425L40.7377 46.4629L40.7503 46.4754Z" fill="#331B19"/>
<path d="M114.134 116.839C109.477 111.108 72.6788 98.5395 72.6788 98.5395C72.6788 98.5395 36.6352 112.451 31.2237 116.839C25.7995 121.24 23.7607 149.012 23.7607 149.012H120.527C120.527 149.012 118.778 122.57 114.134 116.839Z" fill="#D84B58"/>
<path d="M84.0936 105.24C84.0936 105.24 82.6841 111.991 72.6915 111.991C62.699 111.991 61.2895 105.24 61.2895 105.24C61.2895 105.24 64.0708 99.7827 61.2895 93.3804C58.5082 86.978 87.4915 85.6727 84.0936 93.3804C80.6956 101.088 84.0936 105.24 84.0936 105.24Z" fill="#DDA778"/>
<path d="M96.4897 79.9416C97.2196 70.3319 103.386 56.4829 103.386 56.4829C112.171 37.0894 98.0754 8.74498 86.0441 16.8381C73.1571 -0.143716 29.8897 18.8769 42.9152 56.2218C42.9152 56.2218 48.2638 69.1011 48.7798 78.6114C49.2958 88.1217 66.5877 97.2466 72.1502 97.5574C77.7002 97.8682 95.7724 89.5638 96.4897 79.954V79.9416Z" fill="#331B19"/>
<path d="M104.909 62.0399C104.909 67.1245 101.259 74.0987 98.8052 74.0987C96.3511 74.0987 94.3501 69.9838 94.3501 64.8992C94.3501 59.8146 96.8671 57.1915 98.8052 55.6997C101.184 53.8598 104.909 55.6997 104.909 62.0399Z" fill="#F9BB8D"/>
<path d="M41.1909 62.0399C41.1909 67.1245 44.8406 74.0987 47.2947 74.0987C49.7487 74.0987 51.7498 69.9838 51.7498 64.8992C51.7498 59.8146 49.2328 57.1915 47.2947 55.6997C44.9161 53.8598 41.1909 55.6997 41.1909 62.0399Z" fill="#F9BB8D"/>
<path d="M73.1444 21.7486C55.8652 21.7486 48.2261 33.7079 48.2261 51.5475V73.8874C48.2261 89.4271 66.3989 102.717 72.1376 102.717C77.8764 102.717 98.0628 87.1769 98.0628 72.4577V51.5475C98.0628 33.7079 90.4237 21.7486 73.1444 21.7486Z" fill="#F9BB8D"/>
<path d="M98.0755 64.2901L98.8054 55.0284C102.568 36.9899 90.6 19.5482 73.3207 19.5482C56.0415 19.5482 42.6384 38.5812 47.2697 56.6197L48.2388 67.1618C48.2388 67.1618 51.5612 64.3895 52.1401 59.392C52.9078 52.741 57.8034 46.2516 67.2547 44.4614C82.1554 41.6518 86.3462 32.8253 86.3462 32.8253C86.3462 32.8253 89.4925 37.2759 92.6136 44.4614C94.6272 49.1109 92.6136 51.9578 94.3503 56.6072C96.1877 61.5178 98.0755 64.3025 98.0755 64.3025V64.2901Z" fill="#331B19"/>
</g>
<defs>
<linearGradient id="paint0_linear_594_6963" x1="2.40871e-06" y1="22.6606" x2="146.486" y2="147.967" gradientUnits="userSpaceOnUse">
<stop offset="0.182692" stop-color="#49609C"/>
<stop offset="1" stop-color="#E9EFFF"/>
</linearGradient>
</defs>
</svg>
