<svg width="33" height="32" viewBox="0 0 33 32" fill="none" xmlns="http://www.w3.org/2000/svg">
<path d="M17.7332 5.3335H4.3999" stroke="#141B34" stroke-width="1.5" stroke-linecap="round" stroke-linejoin="round"/>
<path d="M15.0666 25.3335H4.3999" stroke="#141B34" stroke-width="1.5" stroke-linecap="round" stroke-linejoin="round"/>
<path d="M28.4 25.3335H23.0667" stroke="#141B34" stroke-width="1.5" stroke-linecap="round" stroke-linejoin="round"/>
<path d="M28.4 15.3335H15.0667" stroke="#141B34" stroke-width="1.5" stroke-linecap="round" stroke-linejoin="round"/>
<path d="M28.3998 5.3335H25.7332" stroke="#141B34" stroke-width="1.5" stroke-linecap="round" stroke-linejoin="round"/>
<path d="M7.06657 15.3335H4.3999" stroke="#141B34" stroke-width="1.5" stroke-linecap="round" stroke-linejoin="round"/>
<path d="M19.7332 2.6665C20.3544 2.6665 20.665 2.6665 20.9101 2.768C21.2368 2.90332 21.4964 3.16289 21.6317 3.4896C21.7332 3.73462 21.7332 4.04525 21.7332 4.6665V5.99984C21.7332 6.62109 21.7332 6.93172 21.6317 7.17674C21.4964 7.50345 21.2368 7.76302 20.9101 7.89834C20.665 7.99984 20.3544 7.99984 19.7332 7.99984C19.112 7.99984 18.8013 7.99984 18.5562 7.89834C18.2296 7.76302 17.97 7.50345 17.8346 7.17674C17.7332 6.93172 17.7332 6.62109 17.7332 5.99984V4.6665C17.7332 4.04525 17.7332 3.73462 17.8346 3.4896C17.97 3.16289 18.2296 2.90332 18.5562 2.768C18.8013 2.6665 19.112 2.6665 19.7332 2.6665Z" stroke="#141B34" stroke-width="1.5" stroke-linecap="round" stroke-linejoin="round"/>
<path d="M17.0667 22.6665C17.6879 22.6665 17.9985 22.6665 18.2436 22.768C18.5703 22.9033 18.8299 23.1629 18.9652 23.4896C19.0667 23.7346 19.0667 24.0453 19.0667 24.6665V25.9998C19.0667 26.621 19.0667 26.9317 18.9652 27.1768C18.8299 27.5034 18.5703 27.763 18.2436 27.8984C17.9985 27.9998 17.6879 27.9998 17.0667 27.9998C16.4455 27.9998 16.1348 27.9998 15.8897 27.8984C15.5631 27.763 15.3035 27.5034 15.1681 27.1768C15.0667 26.9317 15.0667 26.621 15.0667 25.9998V24.6665C15.0667 24.0453 15.0667 23.7346 15.1681 23.4896C15.3035 23.1629 15.5631 22.9033 15.8897 22.768C16.1348 22.6665 16.4455 22.6665 17.0667 22.6665Z" stroke="#141B34" stroke-width="1.5" stroke-linecap="round" stroke-linejoin="round"/>
<path d="M13.0667 12.6665C13.6879 12.6665 13.9985 12.6665 14.2436 12.768C14.5703 12.9033 14.8299 13.1629 14.9652 13.4896C15.0667 13.7346 15.0667 14.0453 15.0667 14.6665V15.9998C15.0667 16.621 15.0667 16.9317 14.9652 17.1768C14.8299 17.5034 14.5703 17.763 14.2436 17.8984C13.9985 17.9998 13.6879 17.9998 13.0667 17.9998C12.4454 17.9998 12.1348 17.9998 11.8897 17.8984C11.563 17.763 11.3035 17.5034 11.1681 17.1768C11.0667 16.9317 11.0667 16.621 11.0667 15.9998V14.6665C11.0667 14.0453 11.0667 13.7346 11.1681 13.4896C11.3035 13.1629 11.563 12.9033 11.8897 12.768C12.1348 12.6665 12.4454 12.6665 13.0667 12.6665Z" stroke="#141B34" stroke-width="1.5" stroke-linecap="round" stroke-linejoin="round"/>
</svg>
