<svg height="512" viewBox="0 0 64 64" width="512" xmlns="http://www.w3.org/2000/svg"><g id="Fill_Outline" data-name="Fill Outline"><g id="Color"><path d="m42.2 49.794v-14.021c0-9.869-7.674-18.274-17.536-18.625a18.2 18.2 0 0 0 -18.864 18.188v14.458a3.341 3.341 0 0 1 -1.4 2.719 3.342 3.342 0 0 0 1.041 5.938 68.82 68.82 0 0 0 37.115 0 3.342 3.342 0 0 0 1.044-5.937 3.341 3.341 0 0 1 -1.4-2.72z" fill="#edb88e"/><path d="m45 55.21a3.326 3.326 0 0 1 -2.44 3.24 68.844 68.844 0 0 1 -18.56 2.55 68.844 68.844 0 0 1 -18.56-2.55 3.344 3.344 0 0 1 -1.04-5.94 3.328 3.328 0 0 0 1.4-2.72v-14.45a18.2 18.2 0 0 1 7.25-14.55c.75 10.17 10.29 18.21 21.95 18.21a24.634 24.634 0 0 0 7.2-1.07v11.86a3.328 3.328 0 0 0 1.4 2.72 3.294 3.294 0 0 1 1.4 2.7z" fill="#da9367"/><path d="m24 21a5.323 5.323 0 0 1 -5.07-3.7l-3-9.387a3.751 3.751 0 0 1 5.823-4.144 3.753 3.753 0 0 0 4.5 0 3.751 3.751 0 0 1 5.823 4.144l-3 9.387a5.323 5.323 0 0 1 -5.076 3.7z" fill="#edb88e"/><path d="m30.13 13.99-1.06 3.31a5.324 5.324 0 0 1 -10.14 0l-3-9.39a3.749 3.749 0 0 1 3.35-4.9l2.65 8.29a5.328 5.328 0 0 0 5.07 3.7 5.41 5.41 0 0 0 3.13-1.01z" fill="#da9367"/><path d="m30.125 20.5a12.342 12.342 0 0 1 -12.249 0 1.737 1.737 0 0 1 -.876-1.508 1.737 1.737 0 0 1 2.6-1.508 8.874 8.874 0 0 0 8.8 0 1.736 1.736 0 0 1 2.6 1.508 1.737 1.737 0 0 1 -.875 1.508z" fill="#fcea42"/><path d="m31 18.99a1.731 1.731 0 0 1 -.87 1.51 12.339 12.339 0 0 1 -12.25 0h-.01a1.731 1.731 0 0 1 -.87-1.51 1.681 1.681 0 0 1 .32-1 1.68 1.68 0 0 0 .55.51h.01a12.339 12.339 0 0 0 12.25 0 1.68 1.68 0 0 0 .55-.51 1.681 1.681 0 0 1 .32 1z" fill="#fdc741"/><g fill="#fcea42"><rect height="6" rx="2" width="16" x="42" y="37"/><rect height="6" rx="2" transform="matrix(.826 -.563 .563 .826 -14.212 27.489)" width="16" x="29.478" y="33.795"/><circle cx="53" cy="29" r="8"/></g><path d="m60.69 31.19a8 8 0 1 1 -9.88-9.88 7.986 7.986 0 0 0 9.88 9.88z" fill="#fdc741"/><circle cx="53" cy="29" fill="#fdc741" r="4"/><path d="m56.34 31.2a4 4 0 1 1 -5.54-5.54 7.972 7.972 0 0 0 5.54 5.54z" fill="#efad1b"/><path d="m58 40v1a2.006 2.006 0 0 1 -2 2h-12a2.006 2.006 0 0 1 -2-2v-2a2.006 2.006 0 0 1 2-2h2v1a2.006 2.006 0 0 0 2 2z" fill="#fdc741"/><rect fill="#fcea42" height="6" rx="2" width="16" x="40" y="43"/><path d="m56 46v1a2.006 2.006 0 0 1 -2 2h-12a2.006 2.006 0 0 1 -2-2v-2a2.006 2.006 0 0 1 2-2h2v1a2.006 2.006 0 0 0 2 2z" fill="#fdc741"/><rect fill="#fcea42" height="6" rx="2" width="16" x="24" y="43"/><path d="m40 46v1a2.006 2.006 0 0 1 -2 2h-12a2.006 2.006 0 0 1 -2-2v-2a2.006 2.006 0 0 1 2-2h2v1a2.006 2.006 0 0 0 2 2z" fill="#fdc741"/><rect fill="#fcea42" height="6" rx="2" width="16" x="45" y="49"/><path d="m61 52v1a2.006 2.006 0 0 1 -2 2h-12a2.006 2.006 0 0 1 -2-2v-2a2.006 2.006 0 0 1 2-2h2v1a2.006 2.006 0 0 0 2 2z" fill="#fdc741"/><rect fill="#fcea42" height="6" rx="2" width="16" x="29" y="49"/><path d="m45 52v1a2.006 2.006 0 0 1 -2 2h-12a2.006 2.006 0 0 1 -2-2v-2a2.006 2.006 0 0 1 2-2h2v1a2.006 2.006 0 0 0 2 2z" fill="#fdc741"/><rect fill="#fcea42" height="6" rx="2" width="16" x="45" y="55"/><path d="m61 58v1a2.006 2.006 0 0 1 -2 2h-12a2.006 2.006 0 0 1 -2-2v-2a2.006 2.006 0 0 1 2-2h2v1a2.006 2.006 0 0 0 2 2z" fill="#fdc741"/><rect fill="#fcea42" height="6" rx="2" width="16" x="29" y="55"/><path d="m45 58v1a2.006 2.006 0 0 1 -2 2h-12a2.006 2.006 0 0 1 -2-2v-2a2.006 2.006 0 0 1 2-2h2v1a2.006 2.006 0 0 0 2 2z" fill="#fdc741"/><rect fill="#fcea42" height="6" rx="2" width="16" x="13" y="49"/><path d="m29 52v1a2.006 2.006 0 0 1 -2 2h-12a2.006 2.006 0 0 1 -2-2v-2a2.006 2.006 0 0 1 2-2h2v1a2.006 2.006 0 0 0 2 2z" fill="#fdc741"/><rect fill="#fcea42" height="6" rx="2" width="16" x="13" y="55"/><path d="m29 58v1a2.006 2.006 0 0 1 -2 2h-12a2.006 2.006 0 0 1 -2-2v-2a2.006 2.006 0 0 1 2-2h2v1a2.006 2.006 0 0 0 2 2z" fill="#fdc741"/><path d="m44.13 35.9-9.92 6.75a2 2 0 0 1 -2.78-.52l-1.13-1.66a2.008 2.008 0 0 1 .53-2.78l1.34-.91.9 1.31a2 2 0 0 0 2.78.53l8.57-5.84.23.34a2.006 2.006 0 0 1 -.52 2.78z" fill="#fdc741"/><path d="m57 11a4 4 0 0 0 -4-4 4 4 0 0 0 4-4 4 4 0 0 0 4 4 4 4 0 0 0 -4 4z" fill="#fcea42"/><path d="m59.51 7.3a3.878 3.878 0 0 0 -1.34.87 4.025 4.025 0 0 0 -1.17 2.83 4 4 0 0 0 -4-4 4.025 4.025 0 0 0 2.83-1.17 3.878 3.878 0 0 0 .87-1.34l-.11.57a2 2 0 0 0 2.35 2.35z" fill="#fdc741"/><path d="m39 20a4 4 0 0 0 -4-4 4 4 0 0 0 4-4 4 4 0 0 0 4 4 4 4 0 0 0 -4 4z" fill="#fcea42"/><path d="m41.51 16.3a3.878 3.878 0 0 0 -1.34.87 4.025 4.025 0 0 0 -1.17 2.83 4 4 0 0 0 -4-4 4.025 4.025 0 0 0 2.83-1.17 3.878 3.878 0 0 0 .87-1.34l-.11.57a2 2 0 0 0 2.35 2.35z" fill="#fdc741"/><path d="m8 31a4 4 0 0 0 -4-4 4 4 0 0 0 4-4 4 4 0 0 0 4 4 4 4 0 0 0 -4 4z" fill="#fcea42"/><path d="m10.51 27.3a3.878 3.878 0 0 0 -1.34.87 4.025 4.025 0 0 0 -1.17 2.83 4 4 0 0 0 -4-4 4.025 4.025 0 0 0 2.83-1.17 3.878 3.878 0 0 0 .87-1.34l-.11.57a2 2 0 0 0 2.35 2.35z" fill="#fdc741"/><path d="m17 45a4 4 0 0 0 -4-4 4 4 0 0 0 4-4 4 4 0 0 0 4 4 4 4 0 0 0 -4 4z" fill="#fcea42"/><path d="m19.51 41.3a3.878 3.878 0 0 0 -1.34.87 4.025 4.025 0 0 0 -1.17 2.83 4 4 0 0 0 -4-4 4.025 4.025 0 0 0 2.83-1.17 3.878 3.878 0 0 0 .87-1.34l-.11.57a2 2 0 0 0 2.35 2.35z" fill="#fdc741"/></g><g id="Outline_copy" fill="#323232" data-name="Outline copy"><path d="m9.218 58.365c-1.188-.264-2.368-.56-3.507-.878a2.345 2.345 0 0 1 -.734-4.16 4.329 4.329 0 0 0 1.823-3.537v-14.45a16.953 16.953 0 0 1 .421-3.691.981.981 0 0 0 .779.4 1 1 0 0 0 1-1 3 3 0 0 1 3-3 1 1 0 1 0 0-2 2.973 2.973 0 0 1 -1.951-.74 17.122 17.122 0 0 1 6.171-5.3 2.722 2.722 0 0 0 1.16 1.362 13.391 13.391 0 0 0 13.241 0 2.721 2.721 0 0 0 1.129-1.294 17.565 17.565 0 0 1 7.42 7.462 1 1 0 1 0 1.773-.924 19.5 19.5 0 0 0 -9.213-8.763 2.7 2.7 0 0 0 -1.094-1.223 2.611 2.611 0 0 0 -.263-.11l.758-2.371a1 1 0 0 0 -1.9-.61l-.934 2.922a2.752 2.752 0 0 0 -.388.159 7.766 7.766 0 0 1 -1.5.643l.588-4.117a1 1 0 0 0 -1.98-.284l-.681 4.77c-.187.007-.373.011-.56.006l-.776-7.737a1 1 0 0 0 -1.99.2l.72 7.2a7.775 7.775 0 0 1 -1.631-.686 2.692 2.692 0 0 0 -.387-.159l-2.831-8.855a2.644 2.644 0 0 1 .364-2.426 2.792 2.792 0 0 1 3.907-.606 4.821 4.821 0 0 0 5.7 0 2.746 2.746 0 0 1 4.266 3.032l-.681 2.121a1 1 0 0 0 1.9.611l.68-2.119a4.669 4.669 0 0 0 -1.762-5.313 4.668 4.668 0 0 0 -5.6.072 2.8 2.8 0 0 1 -3.3 0 4.676 4.676 0 0 0 -2.845-.972 4.829 4.829 0 0 0 -3.882 2 4.656 4.656 0 0 0 -.651 4.214l2.649 8.3c-.087.04-.179.062-.263.111a2.706 2.706 0 0 0 -1.06 1.141 19.111 19.111 0 0 0 -7.273 5.576 2.841 2.841 0 0 1 -.03-.294 1 1 0 0 0 -2 0 3 3 0 0 1 -3 3 1 1 0 0 0 0 2 2.973 2.973 0 0 1 1.967.753 19.058 19.058 0 0 0 -1.167 6.539v14.45a2.325 2.325 0 0 1 -.981 1.91 4.345 4.345 0 0 0 1.353 7.717c1.175.328 2.39.632 3.61.9a1.027 1.027 0 0 0 .218.024 1 1 0 0 0 .217-1.976zm19.682-40.012a.736.736 0 0 1 1.1.639.739.739 0 0 1 -.372.64 11.387 11.387 0 0 1 -11.256 0 .739.739 0 0 1 -.372-.64.727.727 0 0 1 .366-.637.764.764 0 0 1 .373-.1.717.717 0 0 1 .364.1 9.912 9.912 0 0 0 9.797-.002zm-20.9 7.692a5.017 5.017 0 0 0 1 1 5.017 5.017 0 0 0 -1 1 5.017 5.017 0 0 0 -1-1 5.017 5.017 0 0 0 1-1z"/><path d="m62 29a8.993 8.993 0 0 0 -1.253-4.566 1 1 0 0 0 -1.723 1.017 7.023 7.023 0 1 1 -2.475-2.475 1 1 0 0 0 1.017-1.723 8.981 8.981 0 0 0 -13.4 9.421 2.994 2.994 0 0 0 -3.977-.563l-9.918 6.757a3 3 0 0 0 -.789 4.167l.656.965h-4.138a3 3 0 0 0 -3 3 1 1 0 0 0 2 0 1 1 0 0 1 1-1h1v1a1 1 0 0 0 2 0v-1h2v1a1 1 0 0 0 2 0v-1h2v1a1 1 0 0 0 2 0v-1h1a1 1 0 0 1 1 1v2a1 1 0 0 1 -1 1h-7a2.981 2.981 0 0 0 -2 .78 2.981 2.981 0 0 0 -2-.78h-12a3 3 0 0 0 -3 3v2a2.981 2.981 0 0 0 .78 2 2.981 2.981 0 0 0 -.78 2v2a3 3 0 0 0 3 3h12a2.981 2.981 0 0 0 2-.78 2.981 2.981 0 0 0 2 .78h6a1 1 0 0 0 0-2h-6a1 1 0 0 1 -1-1v-2a1 1 0 0 1 1-1h1v1a1 1 0 0 0 2 0v-1h2v1a1 1 0 0 0 2 0v-1h2v1a1 1 0 0 0 2 0v-1h1a1 1 0 0 1 1 1v2a1 1 0 0 1 -1 1h-2a1 1 0 0 0 0 2h2a2.981 2.981 0 0 0 2-.78 2.981 2.981 0 0 0 2 .78h12a3 3 0 0 0 3-3v-2a3 3 0 0 0 -3-3h-12a1 1 0 0 1 -1-1v-2a1 1 0 0 1 1-1h1v1a1 1 0 0 0 2 0v-1h2v1a1 1 0 0 0 2 0v-1h2v1a1 1 0 0 0 2 0v-1h1a1 1 0 0 1 1 1 1 1 0 0 0 2 0 3 3 0 0 0 -3-3h-2.184a2.966 2.966 0 0 0 .184-1v-2a2.984 2.984 0 0 0 -.22-1.116 3 3 0 0 0 2.22-2.884v-2a2.988 2.988 0 0 0 -1.211-2.394 8.99 8.99 0 0 0 4.211-7.606zm-14.645 7h-1.935a2.977 2.977 0 0 0 .527-1.2c.013-.068.01-.135.019-.2a9.065 9.065 0 0 0 1.389 1.4zm-15.961 2.521.826-.563.563.826a1 1 0 0 0 1.653-1.127l-.563-.826 1.653-1.126.563.826a1 1 0 1 0 1.652-1.125l-.563-.826 1.654-1.127.563.826a1 1 0 1 0 1.652-1.125l-.563-.826.828-.564a.982.982 0 0 1 .56-.173 1 1 0 0 1 .828.435l1.126 1.655a1 1 0 0 1 -.263 1.387l-9.916 6.757a1 1 0 0 1 -.75.156.989.989 0 0 1 -.64-.419l-1.127-1.653a1 1 0 0 1 .264-1.388zm6.606 3.479h-1.057l4.057-2.765v1.765a2.984 2.984 0 0 0 .22 1.116 2.986 2.986 0 0 0 -1.22.664 2.981 2.981 0 0 0 -2-.78zm-24 9a1 1 0 0 1 1-1h1v1a1 1 0 0 0 2 0v-1h2v1a1 1 0 0 0 2 0v-1h2v1a1 1 0 0 0 2 0v-1h1a1 1 0 0 1 1 1v2a1 1 0 0 1 -1 1h-12a1 1 0 0 1 -1-1zm13 9h-12a1 1 0 0 1 -1-1v-2a1 1 0 0 1 1-1h1v1a1 1 0 0 0 2 0v-1h2v1a1 1 0 0 0 2 0v-1h2v1a1 1 0 0 0 2 0v-1h1a1 1 0 0 1 1 1v2a1 1 0 0 1 -1 1zm4-6a1 1 0 0 1 -1-1v-2a1 1 0 0 1 1-1h1v1a1 1 0 0 0 2 0v-1h2v1a1 1 0 0 0 2 0v-1h2v1a1 1 0 0 0 2 0v-1h1a1 1 0 0 1 1 1v2a1 1 0 0 1 -1 1zm17 2v1a1 1 0 0 0 2 0v-1h2v1a1 1 0 0 0 2 0v-1h2v1a1 1 0 0 0 2 0v-1h1a1 1 0 0 1 1 1v2a1 1 0 0 1 -1 1h-12a1 1 0 0 1 -1-1v-2a1 1 0 0 1 1-1zm-6-8a1 1 0 0 1 -1-1v-2a1 1 0 0 1 1-1h1v1a1 1 0 0 0 2 0v-1h2v1a1 1 0 0 0 2 0v-1h2v1a1 1 0 0 0 2 0v-1h1a1 1 0 0 1 1 1v2a1 1 0 0 1 -1 1zm15-7a1 1 0 0 1 -1 1h-12a1 1 0 0 1 -1-1v-2a1 1 0 0 1 1-1h1v1a1 1 0 0 0 2 0v-1h2v1a1 1 0 0 0 2 0v-1h2v1a1 1 0 0 0 2 0v-1h1a1 1 0 0 1 1 1z"/><path d="m53 24a5 5 0 1 0 5 5 5.006 5.006 0 0 0 -5-5zm0 8a3 3 0 1 1 3-3 3 3 0 0 1 -3 3z"/><path d="m53 8a3 3 0 0 1 3 3 1 1 0 0 0 2 0 3 3 0 0 1 3-3 1 1 0 0 0 0-2 3 3 0 0 1 -3-3 1 1 0 0 0 -2 0 3 3 0 0 1 -3 3 1 1 0 0 0 0 2zm4-2a5.017 5.017 0 0 0 1 1 5.017 5.017 0 0 0 -1 1 5.017 5.017 0 0 0 -1-1 5.017 5.017 0 0 0 1-1z"/><path d="m35 17a3 3 0 0 1 3 3 1 1 0 0 0 2 0 3 3 0 0 1 3-3 1 1 0 0 0 0-2 3 3 0 0 1 -3-3 1 1 0 0 0 -2 0 3 3 0 0 1 -3 3 1 1 0 0 0 0 2zm4-2a5.017 5.017 0 0 0 1 1 5.017 5.017 0 0 0 -1 1 5.017 5.017 0 0 0 -1-1 5.017 5.017 0 0 0 1-1z"/><path d="m17 36a1 1 0 0 0 -1 1 3 3 0 0 1 -3 3 1 1 0 0 0 0 2 3 3 0 0 1 3 3 1 1 0 0 0 2 0 3 3 0 0 1 3-3 1 1 0 0 0 0-2 3 3 0 0 1 -3-3 1 1 0 0 0 -1-1zm0 6a5.017 5.017 0 0 0 -1-1 5.017 5.017 0 0 0 1-1 5.017 5.017 0 0 0 1 1 5.017 5.017 0 0 0 -1 1z"/><path d="m48 14a1 1 0 0 0 0 2h1v1a1 1 0 0 0 2 0v-1h1a1 1 0 0 0 0-2h-1v-1a1 1 0 0 0 -2 0v1z"/><path d="m30 32a1 1 0 0 0 1-1v-1h1a1 1 0 0 0 0-2h-1v-1a1 1 0 0 0 -2 0v1h-1a1 1 0 0 0 0 2h1v1a1 1 0 0 0 1 1z"/><path d="m36 6h1v1a1 1 0 0 0 2 0v-1h1a1 1 0 0 0 0-2h-1v-1a1 1 0 0 0 -2 0v1h-1a1 1 0 0 0 0 2z"/><path d="m6 14a1 1 0 0 0 0 2h1v1a1 1 0 0 0 2 0v-1h1a1 1 0 0 0 0-2h-1v-1a1 1 0 0 0 -2 0v1z"/><circle cx="47" cy="7" r="1"/><circle cx="19" cy="28" r="1"/><circle cx="5" cy="5" r="1"/></g></g></svg>