<svg width="32" height="32" viewBox="0 0 32 32" fill="none" xmlns="http://www.w3.org/2000/svg">
<path d="M11.9992 29.3333L11.6651 24.6548C11.4854 22.1395 13.4775 20 15.9992 20C18.521 20 20.5131 22.1395 20.3334 24.6548L19.9992 29.3333" stroke="#0D0D0D" stroke-width="2"/>
<path d="M3.13551 17.6183C2.66482 14.5553 2.42947 13.0238 3.00855 11.6662C3.58762 10.3085 4.87237 9.37956 7.44185 7.52174L9.36165 6.13366C12.558 3.82255 14.1562 2.66699 16.0004 2.66699C17.8444 2.66699 19.4426 3.82255 22.639 6.13366L24.5588 7.52174C27.1284 9.37956 28.413 10.3085 28.9921 11.6662C29.5712 13.0238 29.3358 14.5553 28.8652 17.6183L28.4638 20.2302C27.7965 24.5722 27.4629 26.7433 25.9057 28.0385C24.3485 29.3337 22.0718 29.3337 17.5188 29.3337H14.482C9.92878 29.3337 7.65221 29.3337 6.09499 28.0385C4.53778 26.7433 4.20415 24.5722 3.5369 20.2302L3.13551 17.6183Z" stroke="#0D0D0D" stroke-width="2" stroke-linejoin="round"/>
</svg>
