<svg width="29" height="28" viewBox="0 0 29 28" fill="none" xmlns="http://www.w3.org/2000/svg">
<path d="M2.83334 8.16667L12.3591 14.8347C13.1304 15.3746 13.5161 15.6446 13.9356 15.7492C14.3062 15.8416 14.6938 15.8416 15.0644 15.7492C15.4839 15.6446 15.8696 15.3746 16.6409 14.8347L26.1667 8.16667M8.43334 23.3333H20.5667C22.5269 23.3333 23.5069 23.3333 24.2556 22.9519C24.9142 22.6163 25.4496 22.0809 25.7852 21.4223C26.1667 20.6736 26.1667 19.6935 26.1667 17.7333V10.2667C26.1667 8.30648 26.1667 7.32639 25.7852 6.5777C25.4496 5.91913 24.9142 5.3837 24.2556 5.04815C23.5069 4.66667 22.5269 4.66667 20.5667 4.66667H8.43334C6.47315 4.66667 5.49306 4.66667 4.74437 5.04815C4.0858 5.3837 3.55037 5.91913 3.21481 6.5777C2.83334 7.32639 2.83334 8.30648 2.83334 10.2667V17.7333C2.83334 19.6935 2.83334 20.6736 3.21481 21.4223C3.55037 22.0809 4.0858 22.6163 4.74437 22.9519C5.49306 23.3333 6.47315 23.3333 8.43334 23.3333Z" stroke="#4B5565" stroke-width="2" stroke-linecap="round" stroke-linejoin="round"/>
</svg>
