<svg width="389" height="248" viewBox="0 0 389 248" fill="none" xmlns="http://www.w3.org/2000/svg">
<g clip-path="url(#clip0_122_3597)">
<rect width="389" height="247.236" rx="18.1458" fill="url(#paint0_linear_122_3597)"/>
<g clip-path="url(#clip1_122_3597)">
<path fill-rule="evenodd" clip-rule="evenodd" d="M351.28 35.8421C350.161 35.0944 348.846 34.6953 347.5 34.6953V27.8906C350.192 27.8906 352.823 28.6888 355.061 30.1842C357.299 31.6796 359.043 33.8051 360.073 36.2919C361.103 38.7786 361.373 41.5151 360.848 44.155C360.323 46.7949 359.027 49.2199 357.123 51.1232C355.22 53.0265 352.795 54.3227 350.155 54.8478C347.515 55.3729 344.779 55.1034 342.292 54.0733C339.805 53.0433 337.68 51.2989 336.184 49.0609C334.689 46.8228 333.891 44.1916 333.891 41.5H340.695C340.695 42.8458 341.094 44.1614 341.842 45.2804C342.59 46.3994 343.653 47.2716 344.896 47.7866C346.139 48.3017 347.508 48.4364 348.827 48.1738C350.147 47.9113 351.36 47.2632 352.312 46.3116C353.263 45.3599 353.911 44.1474 354.174 42.8275C354.436 41.5075 354.302 40.1393 353.787 38.8959C353.272 37.6525 352.399 36.5898 351.28 35.8421Z" fill="white"/>
<path fill-rule="evenodd" clip-rule="evenodd" d="M340.695 27.8906C340.695 28.7842 340.519 29.6691 340.177 30.4947C339.835 31.3202 339.334 32.0704 338.702 32.7023C338.07 33.3341 337.32 33.8354 336.495 34.1773C335.669 34.5193 334.784 34.6953 333.891 34.6953L333.891 41.5C335.678 41.5 337.448 41.148 339.099 40.464C340.75 39.7801 342.25 38.7776 343.514 37.5139C344.778 36.2502 345.78 34.7499 346.464 33.0987C347.148 31.4475 347.5 29.6778 347.5 27.8906L340.695 27.8906Z" fill="white"/>
</g>
<path d="M28.5852 194.25C28.5852 193.325 28.7939 192.495 29.2112 191.76C29.6286 191.016 30.1956 190.435 30.9124 190.018C31.6382 189.6 32.4412 189.392 33.3212 189.392C34.3556 189.392 35.2583 189.641 36.0295 190.14C36.8007 190.639 37.3632 191.347 37.7171 192.263H36.2336C35.9705 191.692 35.5895 191.252 35.0905 190.943C34.6005 190.635 34.0108 190.481 33.3212 190.481C32.6589 190.481 32.0647 190.635 31.5384 190.943C31.0122 191.252 30.5994 191.692 30.3 192.263C30.0006 192.826 29.8509 193.488 29.8509 194.25C29.8509 195.003 30.0006 195.666 30.3 196.237C30.5994 196.8 31.0122 197.235 31.5384 197.544C32.0647 197.852 32.6589 198.007 33.3212 198.007C34.0108 198.007 34.6005 197.857 35.0905 197.557C35.5895 197.249 35.9705 196.809 36.2336 196.237H37.7171C37.3632 197.145 36.8007 197.848 36.0295 198.347C35.2583 198.837 34.3556 199.082 33.3212 199.082C32.4412 199.082 31.6382 198.878 30.9124 198.469C30.1956 198.052 29.6286 197.476 29.2112 196.741C28.7939 196.006 28.5852 195.176 28.5852 194.25ZM39.0979 195.244C39.0979 194.482 39.2521 193.815 39.5606 193.243C39.8691 192.663 40.291 192.213 40.8263 191.896C41.3706 191.578 41.974 191.42 42.6363 191.42C43.2896 191.42 43.8566 191.56 44.3375 191.841C44.8183 192.123 45.1767 192.477 45.4126 192.903V191.542H46.6647V199H45.4126V197.612C45.1676 198.047 44.8002 198.41 44.3102 198.701C43.8294 198.982 43.2669 199.122 42.6227 199.122C41.9604 199.122 41.3616 198.959 40.8263 198.633C40.291 198.306 39.8691 197.848 39.5606 197.258C39.2521 196.668 39.0979 195.997 39.0979 195.244ZM45.4126 195.257C45.4126 194.695 45.2992 194.205 45.0724 193.788C44.8456 193.37 44.5371 193.053 44.1469 192.835C43.7659 192.608 43.344 192.495 42.8813 192.495C42.4186 192.495 41.9967 192.604 41.6156 192.821C41.2345 193.039 40.9306 193.357 40.7038 193.774C40.477 194.191 40.3635 194.681 40.3635 195.244C40.3635 195.815 40.477 196.314 40.7038 196.741C40.9306 197.158 41.2345 197.48 41.6156 197.707C41.9967 197.925 42.4186 198.034 42.8813 198.034C43.344 198.034 43.7659 197.925 44.1469 197.707C44.5371 197.48 44.8456 197.158 45.0724 196.741C45.2992 196.314 45.4126 195.82 45.4126 195.257ZM49.996 192.753C50.2137 192.327 50.5222 191.996 50.9214 191.76C51.3297 191.524 51.8242 191.406 52.4048 191.406V192.685H52.0782C50.69 192.685 49.996 193.438 49.996 194.944V199H48.7575V191.542H49.996V192.753ZM53.3717 195.244C53.3717 194.482 53.526 193.815 53.8344 193.243C54.1429 192.663 54.5648 192.213 55.1001 191.896C55.6445 191.578 56.2524 191.42 56.9238 191.42C57.5044 191.42 58.0443 191.556 58.5433 191.828C59.0423 192.091 59.4233 192.44 59.6865 192.876V188.929H60.9385V199H59.6865V197.598C59.4415 198.043 59.0786 198.41 58.5977 198.701C58.1168 198.982 57.5543 199.122 56.9101 199.122C56.2478 199.122 55.6445 198.959 55.1001 198.633C54.5648 198.306 54.1429 197.848 53.8344 197.258C53.526 196.668 53.3717 195.997 53.3717 195.244ZM59.6865 195.257C59.6865 194.695 59.573 194.205 59.3462 193.788C59.1194 193.37 58.8109 193.053 58.4208 192.835C58.0397 192.608 57.6178 192.495 57.1551 192.495C56.6924 192.495 56.2705 192.604 55.8894 192.821C55.5084 193.039 55.2044 193.357 54.9776 193.774C54.7508 194.191 54.6374 194.681 54.6374 195.244C54.6374 195.815 54.7508 196.314 54.9776 196.741C55.2044 197.158 55.5084 197.48 55.8894 197.707C56.2705 197.925 56.6924 198.034 57.1551 198.034C57.6178 198.034 58.0397 197.925 58.4208 197.707C58.8109 197.48 59.1194 197.158 59.3462 196.741C59.573 196.314 59.6865 195.82 59.6865 195.257ZM73.9678 189.514V199H72.7294V194.699H67.8981V199H66.6596V189.514H67.8981V193.679H72.7294V189.514H73.9678ZM79.3351 199.122C78.6365 199.122 78.0014 198.964 77.4298 198.646C76.8673 198.329 76.4227 197.879 76.0961 197.299C75.7786 196.709 75.6198 196.029 75.6198 195.257C75.6198 194.495 75.7831 193.824 76.1097 193.243C76.4454 192.654 76.8991 192.204 77.4707 191.896C78.0422 191.578 78.6819 191.42 79.3896 191.42C80.0973 191.42 80.7369 191.578 81.3085 191.896C81.8801 192.204 82.3292 192.649 82.6558 193.23C82.9915 193.81 83.1594 194.486 83.1594 195.257C83.1594 196.029 82.987 196.709 82.6422 197.299C82.3065 197.879 81.8483 198.329 81.2677 198.646C80.687 198.964 80.0428 199.122 79.3351 199.122ZM79.3351 198.034C79.7797 198.034 80.1971 197.929 80.5872 197.721C80.9773 197.512 81.2903 197.199 81.5262 196.782C81.7712 196.364 81.8937 195.856 81.8937 195.257C81.8937 194.659 81.7757 194.151 81.5398 193.733C81.304 193.316 80.9955 193.007 80.6144 192.808C80.2334 192.599 79.8205 192.495 79.376 192.495C78.9223 192.495 78.505 192.599 78.1239 192.808C77.7519 193.007 77.4525 193.316 77.2257 193.733C76.9989 194.151 76.8855 194.659 76.8855 195.257C76.8855 195.865 76.9943 196.378 77.2121 196.795C77.4389 197.213 77.7383 197.526 78.1103 197.734C78.4823 197.934 78.8906 198.034 79.3351 198.034ZM86.0261 188.929V199H84.7877V188.929H86.0261ZM87.6741 195.244C87.6741 194.482 87.8284 193.815 88.1369 193.243C88.4453 192.663 88.8672 192.213 89.4025 191.896C89.9469 191.578 90.5548 191.42 91.2262 191.42C91.8068 191.42 92.3467 191.556 92.8457 191.828C93.3447 192.091 93.7258 192.44 93.9889 192.876V188.929H95.2409V199H93.9889V197.598C93.7439 198.043 93.381 198.41 92.9001 198.701C92.4193 198.982 91.8567 199.122 91.2126 199.122C90.5502 199.122 89.9469 198.959 89.4025 198.633C88.8672 198.306 88.4453 197.848 88.1369 197.258C87.8284 196.668 87.6741 195.997 87.6741 195.244ZM93.9889 195.257C93.9889 194.695 93.8755 194.205 93.6486 193.788C93.4218 193.37 93.1133 193.053 92.7232 192.835C92.3421 192.608 91.9203 192.495 91.4575 192.495C90.9948 192.495 90.5729 192.604 90.1919 192.821C89.8108 193.039 89.5069 193.357 89.28 193.774C89.0532 194.191 88.9398 194.681 88.9398 195.244C88.9398 195.815 89.0532 196.314 89.28 196.741C89.5069 197.158 89.8108 197.48 90.1919 197.707C90.5729 197.925 90.9948 198.034 91.4575 198.034C91.9203 198.034 92.3421 197.925 92.7232 197.707C93.1133 197.48 93.4218 197.158 93.6486 196.741C93.8755 196.314 93.9889 195.82 93.9889 195.257ZM104.138 194.985C104.138 195.221 104.125 195.471 104.098 195.734H98.1367C98.1821 196.469 98.4316 197.045 98.8853 197.462C99.348 197.87 99.906 198.075 100.559 198.075C101.095 198.075 101.539 197.952 101.893 197.707C102.256 197.453 102.51 197.117 102.655 196.7H103.989C103.789 197.417 103.39 198.002 102.791 198.456C102.192 198.9 101.448 199.122 100.559 199.122C99.8515 199.122 99.2164 198.964 98.6539 198.646C98.1005 198.329 97.665 197.879 97.3474 197.299C97.0299 196.709 96.8711 196.029 96.8711 195.257C96.8711 194.486 97.0253 193.81 97.3338 193.23C97.6423 192.649 98.0732 192.204 98.6267 191.896C99.1892 191.578 99.8334 191.42 100.559 191.42C101.267 191.42 101.893 191.574 102.437 191.882C102.982 192.191 103.399 192.617 103.689 193.162C103.989 193.697 104.138 194.305 104.138 194.985ZM102.859 194.727C102.859 194.255 102.755 193.851 102.546 193.515C102.337 193.171 102.052 192.912 101.689 192.74C101.335 192.558 100.94 192.468 100.505 192.468C99.8787 192.468 99.3434 192.667 98.8989 193.066C98.4634 193.466 98.2139 194.019 98.1504 194.727H102.859ZM107.012 192.753C107.229 192.327 107.538 191.996 107.937 191.76C108.345 191.524 108.84 191.406 109.42 191.406V192.685H109.094C107.706 192.685 107.012 193.438 107.012 194.944V199H105.773V191.542H107.012V192.753ZM121.936 199H120.698L115.717 191.447V199H114.478V189.501H115.717L120.698 197.04V189.501H121.936V199ZM123.585 195.244C123.585 194.482 123.739 193.815 124.047 193.243C124.356 192.663 124.778 192.213 125.313 191.896C125.857 191.578 126.461 191.42 127.123 191.42C127.776 191.42 128.343 191.56 128.824 191.841C129.305 192.123 129.664 192.477 129.899 192.903V191.542H131.151V199H129.899V197.612C129.654 198.047 129.287 198.41 128.797 198.701C128.316 198.982 127.754 199.122 127.11 199.122C126.447 199.122 125.848 198.959 125.313 198.633C124.778 198.306 124.356 197.848 124.047 197.258C123.739 196.668 123.585 195.997 123.585 195.244ZM129.899 195.257C129.899 194.695 129.786 194.205 129.559 193.788C129.332 193.37 129.024 193.053 128.634 192.835C128.253 192.608 127.831 192.495 127.368 192.495C126.905 192.495 126.483 192.604 126.102 192.821C125.721 193.039 125.417 193.357 125.191 193.774C124.964 194.191 124.85 194.681 124.85 195.244C124.85 195.815 124.964 196.314 125.191 196.741C125.417 197.158 125.721 197.48 126.102 197.707C126.483 197.925 126.905 198.034 127.368 198.034C127.831 198.034 128.253 197.925 128.634 197.707C129.024 197.48 129.332 197.158 129.559 196.741C129.786 196.314 129.899 195.82 129.899 195.257ZM142.213 191.406C142.794 191.406 143.311 191.528 143.764 191.773C144.218 192.009 144.576 192.368 144.839 192.849C145.103 193.329 145.234 193.915 145.234 194.604V199H144.009V194.781C144.009 194.037 143.823 193.47 143.451 193.08C143.088 192.681 142.594 192.481 141.968 192.481C141.324 192.481 140.811 192.69 140.43 193.107C140.049 193.515 139.858 194.11 139.858 194.89V199H138.634V194.781C138.634 194.037 138.448 193.47 138.076 193.08C137.713 192.681 137.218 192.481 136.592 192.481C135.948 192.481 135.435 192.69 135.054 193.107C134.673 193.515 134.483 194.11 134.483 194.89V199H133.244V191.542H134.483V192.617C134.728 192.227 135.054 191.928 135.463 191.719C135.88 191.51 136.338 191.406 136.837 191.406C137.463 191.406 138.017 191.547 138.498 191.828C138.978 192.109 139.337 192.522 139.573 193.066C139.781 192.54 140.126 192.132 140.607 191.841C141.088 191.551 141.623 191.406 142.213 191.406ZM154.07 194.985C154.07 195.221 154.057 195.471 154.03 195.734H148.069C148.114 196.469 148.363 197.045 148.817 197.462C149.28 197.87 149.838 198.075 150.491 198.075C151.026 198.075 151.471 197.952 151.825 197.707C152.188 197.453 152.442 197.117 152.587 196.7H153.921C153.721 197.417 153.322 198.002 152.723 198.456C152.124 198.9 151.38 199.122 150.491 199.122C149.783 199.122 149.148 198.964 148.586 198.646C148.032 198.329 147.597 197.879 147.279 197.299C146.962 196.709 146.803 196.029 146.803 195.257C146.803 194.486 146.957 193.81 147.266 193.23C147.574 192.649 148.005 192.204 148.559 191.896C149.121 191.578 149.765 191.42 150.491 191.42C151.199 191.42 151.825 191.574 152.369 191.882C152.914 192.191 153.331 192.617 153.621 193.162C153.921 193.697 154.07 194.305 154.07 194.985ZM152.791 194.727C152.791 194.255 152.687 193.851 152.478 193.515C152.269 193.171 151.984 192.912 151.621 192.74C151.267 192.558 150.872 192.468 150.437 192.468C149.811 192.468 149.275 192.667 148.831 193.066C148.395 193.466 148.146 194.019 148.082 194.727H152.791Z" fill="white"/>
<path d="M191.349 190.521V193.692H194.806V194.713H191.349V197.979H195.214V199H190.11V189.501H195.214V190.521H191.349ZM200.98 199L199.211 196.224L197.51 199H196.217L198.626 195.298L196.217 191.542H197.619L199.388 194.305L201.075 191.542H202.368L199.973 195.23L202.382 199H200.98ZM204.839 192.917C205.084 192.49 205.446 192.136 205.927 191.855C206.417 191.565 206.984 191.42 207.628 191.42C208.291 191.42 208.89 191.578 209.425 191.896C209.969 192.213 210.396 192.663 210.704 193.243C211.013 193.815 211.167 194.482 211.167 195.244C211.167 195.997 211.013 196.668 210.704 197.258C210.396 197.848 209.969 198.306 209.425 198.633C208.89 198.959 208.291 199.122 207.628 199.122C206.993 199.122 206.431 198.982 205.941 198.701C205.46 198.41 205.093 198.052 204.839 197.625V202.538H203.6V191.542H204.839V192.917ZM209.901 195.244C209.901 194.681 209.788 194.191 209.561 193.774C209.334 193.357 209.026 193.039 208.636 192.821C208.255 192.604 207.833 192.495 207.37 192.495C206.916 192.495 206.494 192.608 206.104 192.835C205.723 193.053 205.415 193.375 205.179 193.801C204.952 194.219 204.839 194.704 204.839 195.257C204.839 195.82 204.952 196.314 205.179 196.741C205.415 197.158 205.723 197.48 206.104 197.707C206.494 197.925 206.916 198.034 207.37 198.034C207.833 198.034 208.255 197.925 208.636 197.707C209.026 197.48 209.334 197.158 209.561 196.741C209.788 196.314 209.901 195.815 209.901 195.244ZM213.437 190.331C213.201 190.331 213.001 190.249 212.838 190.086C212.675 189.923 212.593 189.723 212.593 189.487C212.593 189.251 212.675 189.052 212.838 188.888C213.001 188.725 213.201 188.643 213.437 188.643C213.664 188.643 213.854 188.725 214.008 188.888C214.172 189.052 214.253 189.251 214.253 189.487C214.253 189.723 214.172 189.923 214.008 190.086C213.854 190.249 213.664 190.331 213.437 190.331ZM214.036 191.542V199H212.797V191.542H214.036ZM217.385 192.753C217.602 192.327 217.911 191.996 218.31 191.76C218.718 191.524 219.213 191.406 219.794 191.406V192.685H219.467C218.079 192.685 217.385 193.438 217.385 194.944V199H216.146V191.542H217.385V192.753ZM228.028 194.985C228.028 195.221 228.014 195.471 227.987 195.734H222.026C222.071 196.469 222.321 197.045 222.775 197.462C223.237 197.87 223.795 198.075 224.449 198.075C224.984 198.075 225.428 197.952 225.782 197.707C226.145 197.453 226.399 197.117 226.544 196.7H227.878C227.679 197.417 227.279 198.002 226.68 198.456C226.082 198.9 225.338 199.122 224.449 199.122C223.741 199.122 223.106 198.964 222.543 198.646C221.99 198.329 221.554 197.879 221.237 197.299C220.919 196.709 220.76 196.029 220.76 195.257C220.76 194.486 220.915 193.81 221.223 193.23C221.532 192.649 221.963 192.204 222.516 191.896C223.079 191.578 223.723 191.42 224.449 191.42C225.156 191.42 225.782 191.574 226.327 191.882C226.871 192.191 227.288 192.617 227.579 193.162C227.878 193.697 228.028 194.305 228.028 194.985ZM226.749 194.727C226.749 194.255 226.644 193.851 226.436 193.515C226.227 193.171 225.941 192.912 225.578 192.74C225.224 192.558 224.83 192.468 224.394 192.468C223.768 192.468 223.233 192.667 222.788 193.066C222.353 193.466 222.103 194.019 222.04 194.727H226.749ZM229.2 195.244C229.2 194.482 229.354 193.815 229.663 193.243C229.971 192.663 230.393 192.213 230.928 191.896C231.473 191.578 232.08 191.42 232.752 191.42C233.333 191.42 233.872 191.556 234.371 191.828C234.87 192.091 235.251 192.44 235.515 192.876V188.929H236.767V199H235.515V197.598C235.27 198.043 234.907 198.41 234.426 198.701C233.945 198.982 233.382 199.122 232.738 199.122C232.076 199.122 231.473 198.959 230.928 198.633C230.393 198.306 229.971 197.848 229.663 197.258C229.354 196.668 229.2 195.997 229.2 195.244ZM235.515 195.257C235.515 194.695 235.401 194.205 235.174 193.788C234.947 193.37 234.639 193.053 234.249 192.835C233.868 192.608 233.446 192.495 232.983 192.495C232.52 192.495 232.099 192.604 231.718 192.821C231.336 193.039 231.033 193.357 230.806 193.774C230.579 194.191 230.465 194.681 230.465 195.244C230.465 195.815 230.579 196.314 230.806 196.741C231.033 197.158 231.336 197.48 231.718 197.707C232.099 197.925 232.52 198.034 232.983 198.034C233.446 198.034 233.868 197.925 234.249 197.707C234.639 197.48 234.947 197.158 235.174 196.741C235.401 196.314 235.515 195.82 235.515 195.257ZM245.441 189.514C246.475 189.514 247.369 189.709 248.122 190.099C248.884 190.481 249.465 191.029 249.864 191.746C250.272 192.463 250.476 193.307 250.476 194.278C250.476 195.248 250.272 196.092 249.864 196.809C249.465 197.517 248.884 198.061 248.122 198.442C247.369 198.814 246.475 199 245.441 199H242.488V189.514H245.441ZM245.441 197.979C246.666 197.979 247.6 197.657 248.244 197.013C248.889 196.36 249.211 195.448 249.211 194.278C249.211 193.098 248.884 192.177 248.231 191.515C247.587 190.853 246.657 190.521 245.441 190.521H243.726V197.979H245.441ZM251.647 195.244C251.647 194.482 251.801 193.815 252.11 193.243C252.418 192.663 252.84 192.213 253.376 191.896C253.92 191.578 254.523 191.42 255.186 191.42C255.839 191.42 256.406 191.56 256.887 191.841C257.368 192.123 257.726 192.477 257.962 192.903V191.542H259.214V199H257.962V197.612C257.717 198.047 257.35 198.41 256.86 198.701C256.379 198.982 255.816 199.122 255.172 199.122C254.51 199.122 253.911 198.959 253.376 198.633C252.84 198.306 252.418 197.848 252.11 197.258C251.801 196.668 251.647 195.997 251.647 195.244ZM257.962 195.257C257.962 194.695 257.849 194.205 257.622 193.788C257.395 193.37 257.086 193.053 256.696 192.835C256.315 192.608 255.893 192.495 255.431 192.495C254.968 192.495 254.546 192.604 254.165 192.821C253.784 193.039 253.48 193.357 253.253 193.774C253.026 194.191 252.913 194.681 252.913 195.244C252.913 195.815 253.026 196.314 253.253 196.741C253.48 197.158 253.784 197.48 254.165 197.707C254.546 197.925 254.968 198.034 255.431 198.034C255.893 198.034 256.315 197.925 256.696 197.707C257.086 197.48 257.395 197.158 257.622 196.741C257.849 196.314 257.962 195.82 257.962 195.257ZM262.818 192.563V196.959C262.818 197.322 262.895 197.58 263.049 197.734C263.203 197.879 263.471 197.952 263.852 197.952H264.764V199H263.648C262.958 199 262.441 198.841 262.096 198.524C261.751 198.206 261.579 197.684 261.579 196.959V192.563H260.613V191.542H261.579V189.664H262.818V191.542H264.764V192.563H262.818ZM273.069 194.985C273.069 195.221 273.055 195.471 273.028 195.734H267.067C267.113 196.469 267.362 197.045 267.816 197.462C268.278 197.87 268.836 198.075 269.49 198.075C270.025 198.075 270.469 197.952 270.823 197.707C271.186 197.453 271.44 197.117 271.585 196.7H272.919C272.72 197.417 272.32 198.002 271.722 198.456C271.123 198.9 270.379 199.122 269.49 199.122C268.782 199.122 268.147 198.964 267.584 198.646C267.031 198.329 266.595 197.879 266.278 197.299C265.96 196.709 265.801 196.029 265.801 195.257C265.801 194.486 265.956 193.81 266.264 193.23C266.573 192.649 267.004 192.204 267.557 191.896C268.12 191.578 268.764 191.42 269.49 191.42C270.197 191.42 270.823 191.574 271.368 191.882C271.912 192.191 272.329 192.617 272.62 193.162C272.919 193.697 273.069 194.305 273.069 194.985ZM271.79 194.727C271.79 194.255 271.685 193.851 271.477 193.515C271.268 193.171 270.982 192.912 270.619 192.74C270.265 192.558 269.871 192.468 269.435 192.468C268.809 192.468 268.274 192.667 267.829 193.066C267.394 193.466 267.144 194.019 267.081 194.727H271.79Z" fill="white"/>
<circle cx="324.003" cy="211" r="15.8776" fill="#E33A24"/>
<circle cx="346.685" cy="211" r="15.8776" fill="#F8CB2E" fill-opacity="0.8"/>
</g>
<defs>
<linearGradient id="paint0_linear_122_3597" x1="0" y1="0" x2="389" y2="247.236" gradientUnits="userSpaceOnUse">
<stop stop-color="#6E8B75"/>
<stop offset="0.0001" stop-color="#9CD1EB"/>
<stop offset="1" stop-color="#1D739F"/>
<stop offset="1" stop-color="#D0C9C1"/>
</linearGradient>
<clipPath id="clip0_122_3597">
<rect width="389" height="247.236" rx="18.1458" fill="white"/>
</clipPath>
<clipPath id="clip1_122_3597">
<rect width="27.2187" height="27.2187" fill="white" transform="translate(333.891 27.8906)"/>
</clipPath>
</defs>
</svg>
