<svg width="32" height="32" viewBox="0 0 32 32" fill="none" xmlns="http://www.w3.org/2000/svg">
<path d="M24 2.6665V5.33317M8 2.6665V5.33317" stroke="#141B34" stroke-width="1.5" stroke-linecap="round" stroke-linejoin="round"/>
<path d="M4.66675 10.6665H27.3334" stroke="#141B34" stroke-width="1.5" stroke-linecap="round" stroke-linejoin="round"/>
<path d="M3.33325 16.3243C3.33325 10.5146 3.33325 7.60971 5.00275 5.80485C6.67224 4 9.35924 4 14.7333 4H17.2666C22.6406 4 25.3277 4 26.9971 5.80485C28.6666 7.60971 28.6666 10.5146 28.6666 16.3243V17.0091C28.6666 22.8188 28.6666 25.7236 26.9971 27.5285C25.3277 29.3333 22.6406 29.3333 17.2666 29.3333H14.7333C9.35924 29.3333 6.67224 29.3333 5.00275 27.5285C3.33325 25.7236 3.33325 22.8188 3.33325 17.0091V16.3243Z" stroke="#141B34" stroke-width="1.5" stroke-linecap="round" stroke-linejoin="round"/>
<path d="M4 10.6665H28" stroke="#141B34" stroke-width="1.5" stroke-linecap="round" stroke-linejoin="round"/>
<path d="M13.6678 13.25H17.3322C17.9081 13.25 18.1959 13.25 18.3748 13.4331C18.7084 13.7744 18.7084 15.2256 18.3748 15.5669C18.1959 15.75 17.9081 15.75 17.3322 15.75H13.6678C13.092 15.75 12.8041 15.75 12.6252 15.5669C12.2916 15.2256 12.2916 13.7744 12.6252 13.4331C12.8041 13.25 13.092 13.25 13.6678 13.25Z" stroke="#141B34"/>
<path d="M13 15.75C13.1031 15.9562 13.1546 16.0593 13.1913 16.1598C13.3826 16.6845 13.33 17.2671 13.048 17.749C12.9939 17.8414 12.9248 17.9336 12.7865 18.118L12.5343 18.4543C12.253 18.8293 12.1124 19.0168 12.0105 19.2223C11.9075 19.4298 11.8339 19.6506 11.7917 19.8784C11.75 20.104 11.75 20.3384 11.75 20.8072V22C11.75 23.7677 11.75 24.6516 12.2992 25.2008C12.8484 25.75 13.7322 25.75 15.5 25.75C17.2677 25.75 18.1516 25.75 18.7008 25.2008C19.25 24.6516 19.25 23.7677 19.25 22V20.8072C19.25 20.3384 19.25 20.104 19.2083 19.8784C19.1661 19.6506 19.0925 19.4298 18.9896 19.2223C18.8876 19.0168 18.7469 18.8293 18.4657 18.4543L18.2135 18.118C18.0753 17.9336 18.0061 17.8414 17.952 17.749C17.6699 17.2671 17.6174 16.6845 17.8087 16.1598C17.8454 16.0593 17.8969 15.9562 18 15.75" stroke="#141B34"/>
<path d="M15.5 20.125V23.25M13.9375 21.6875H17.0625" stroke="#141B34" stroke-linecap="round"/>
</svg>
