<?xml version="1.0" encoding="UTF-8"?>
<svg version="1.1" viewBox="0 0 872 872" width="218" height="218" xmlns="http://www.w3.org/2000/svg">
<path transform="translate(420,16)" d="m0 0h31l24 2 43 7 36 9 30 10 22 9 25 12 24 14 14 9 17 12 14 11 14 12 13 12 17 17 7 8 12 14 14 19 12 18 12 20 12 23 8 17 10 26 8 25 6 24 6 33 4 31 1 17v14l-2 31-6 38-6 28-9 31-10 27-13 28-10 19-13 21-13 19-14 18-12 14-9 9-7 8-7 7-8 7-11 10-14 11-16 12-20 13-21 12-21 11-29 12-36 12-34 8-37 6-20 2h-46l-26-3-35-6-32-8-33-11-26-11-24-12-22-13-18-12-19-14-14-12-10-9-13-12-9-9-7-8-10-11-13-17-11-15-14-22-10-18-8-16-8-17-11-29-9-31-6-27-6-38-2-20v-38l4-33 7-38 7-27 10-30 10-24 11-23 14-24 7-11 13-19 11-14 8-10h2l2-4 14-15 19-19 11-9 9-8 12-9 17-12 21-13 24-13 21-10 26-10 25-8 28-7 34-6 23-3z" fill="#FCFCFC"/>
<path transform="translate(443,416)" d="m0 0h4l8 36 28 138 5 25 1 7v25l-6 21-8 16-8 11-9 10-11 9-15 9-16 6-27 6-18 3h-23l-18-4-16-7-12-7-14-12-10-12-9-16-7-21-13-62-18-89-9-44 1-3 26-5 39-8 132-27z" fill="#888"/>
<path transform="translate(282,143)" d="m0 0h29l16 3 16 6 13 7 14 10 13 12 11 14 8 16 5 15 9 38 11 56 10 52 9 39 1 5-42 9-87 18-65 13-24 5-7 1-3-10-15-74-12-55-7-39-2-19v-23l2-15 6-16 9-16 7-9 9-10 7-7 15-11 14-7 16-5z" fill="#E1E1E1"/>
<path transform="translate(649,445)" d="m0 0 4 2 9 11 9 15 7 17 5 19 1 8v27l-2 14-5 18-7 16-8 14-9 12-12 13-13 11-18 11-18 8-17 5-11 2h-22l-19-3-17-4-12-5-3-2v-2h-3v-30l-3-18v-5l4-2 32-32 8-7 12-12 8-7 9-9 8-7 14-14 8-7 7-7 8-7 14-13 8-7 10-9z" fill="#E1E1E1"/>
<path transform="translate(539,397)" d="m0 0h18l19 3 15 4 15 6 15 8 19 14 1 4-13 13-8 7-20 20-8 7-12 12-8 7-24 24-8 7-12 12-8 7-15 14-16 16-6 2v6h-1l-19-94-8-39v-9l-1-9 2-7 9-8 15-9 17-8 21-7z" fill="#E1E1E1"/>
<path transform="translate(284,626)" d="m0 0 10 5 17 11 24 15 23 15 44 28 5 3-1 3-21 3h-17l-21-5-16-8-9-6-10-9-10-13-8-14-5-11-5-13z" fill="#FBFBFB"/>
</svg>
