<svg width="24" height="24" viewBox="0 0 24 24" fill="none" xmlns="http://www.w3.org/2000/svg">
<path d="M10.2761 6.31797C10.2761 4.16406 8.52999 2.41797 6.37607 2.41797C4.22216 2.41797 2.47607 4.16406 2.47607 6.31797C2.47607 8.47188 4.22216 10.218 6.37607 10.218C8.52999 10.218 10.2761 8.47188 10.2761 6.31797Z" stroke="#D6E7EE" stroke-width="1.4625"/>
<path d="M10.2761 18.0172C10.2761 15.8633 8.52999 14.1172 6.37607 14.1172C4.22216 14.1172 2.47607 15.8633 2.47607 18.0172C2.47607 20.1711 4.22216 21.9172 6.37607 21.9172C8.52999 21.9172 10.2761 20.1711 10.2761 18.0172Z" stroke="#D6E7EE" stroke-width="1.4625"/>
<path d="M21.9753 6.31797C21.9753 4.16406 20.2292 2.41797 18.0753 2.41797C15.9214 2.41797 14.1753 4.16406 14.1753 6.31797C14.1753 8.47188 15.9214 10.218 18.0753 10.218C20.2292 10.218 21.9753 8.47188 21.9753 6.31797Z" stroke="#D6E7EE" stroke-width="1.4625"/>
<path d="M21.9763 18.0172C21.9763 15.8633 20.2301 14.1172 18.0763 14.1172C15.9224 14.1172 14.1763 15.8633 14.1763 18.0172C14.1763 20.1711 15.9224 21.9172 18.0763 21.9172C20.2301 21.9172 21.9763 20.1711 21.9763 18.0172Z" stroke="#D6E7EE" stroke-width="1.4625"/>
</svg>
