<svg width="32" height="33" viewBox="0 0 32 33" fill="none" xmlns="http://www.w3.org/2000/svg">
<path d="M3.37315 19.6921C3.08961 21.4962 4.35725 22.7483 5.90932 23.3723C11.8597 25.7649 20.1402 25.7649 26.0905 23.3723C27.6426 22.7483 28.9102 21.4962 28.6267 19.6921C28.4525 18.5834 27.5909 17.6602 26.9525 16.7587C26.1163 15.5634 26.0333 14.2597 26.0331 12.8726C26.0331 7.51222 21.5411 3.16675 15.9999 3.16675C10.4588 3.16675 5.96676 7.51222 5.96676 12.8726C5.96663 14.2597 5.88355 15.5634 5.0474 16.7587C4.40904 17.6602 3.5474 18.5834 3.37315 19.6921Z" stroke="#141B34" stroke-width="1.5" stroke-linecap="round" stroke-linejoin="round"/>
<path d="M12 28.5C13.0615 29.3292 14.4633 29.8333 16 29.8333C17.5367 29.8333 18.9385 29.3292 20 28.5" stroke="#141B34" stroke-width="1.5" stroke-linecap="round" stroke-linejoin="round"/>
</svg>
