<svg id="Icons" viewBox="0 0 60 60" xmlns="http://www.w3.org/2000/svg"><path d="m12.964 59.471a.5.5 0 0 1 -.266-.924l.975-.611-2.543 1.464a.5.5 0 0 1 -.522-.852l9.592-6.203-12.23 7.055a.5.5 0 0 1 -.514-.857l1.626-1.007-3.229 1.864a.5.5 0 0 1 -.519-.854l12.444-7.944-14.754 8.521a.5.5 0 0 1 -.511-.858l3.457-2.126-3.913 2.261a.5.5 0 0 1 -.52-.853l16.6-10.617-16.816 9.706a.5.5 0 0 1 -.51-.86l2.355-1.44-1.886 1.088a.5.5 0 0 1 -.51-.86l.725-.442-.216.124a.5.5 0 0 1 -.513-.857l9.4-5.838-8.89 5.132a.5.5 0 0 1 -.517-.856l15.091-9.545-14.571 8.411a.5.5 0 0 1 -.513-.857l10.185-6.336-9.673 5.583a.5.5 0 0 1 -.512-.858l7.034-4.344-6.522 3.766a.5.5 0 0 1 -.518-.854l16.008-10.169-15.49 8.942a.5.5 0 0 1 -.512-.858l6.467-3.987-5.956 3.438a.5.5 0 0 1 -.516-.859l13.606-8.56-13.09 7.56a.5.5 0 0 1 -.516-.856l14.212-8.961-13.7 7.908a.5.5 0 0 1 -.512-.859l6.839-4.213-6.324 3.649a.5.5 0 0 1 -.512-.858l8.172-5.058-7.66 4.422a.5.5 0 0 1 -.512-.859l6.636-4.094-6.124 3.537a.5.5 0 0 1 -.516-.858l14.362-9.06-13.847 7.996a.5.5 0 0 1 -.511-.859l3.874-2.377-3.363 1.942a.5.5 0 0 1 -.519-.854l17.563-11.243-17.044 9.84a.5.5 0 0 1 -.518-.855l15.724-10.036-15.207 8.78a.5.5 0 0 1 -.514-.857l7.232-4.517-6.718 3.883a.5.5 0 0 1 -.522-.852l12.327-7.992-11.8 6.815a.5.5 0 0 1 -.528-.848l12.141-8.129-11.614 6.7a.5.5 0 0 1 -.518-.855l3.256-2.077-2.738 1.58a.5.5 0 0 1 -.525-.85l5.3-3.485-4.77 2.753a.5.5 0 0 1 -.52-.852l.43-.278a.5.5 0 0 1 -.459-.875l6.707-4.993-6.169 3.555a.5.5 0 0 1 -.546-.835l3.421-2.522-2.875 1.66a.5.5 0 0 1 -.553-.83l1.9-1.454-1.35.779a.5.5 0 0 1 -.6-.786l1.967-1.98-1.363.786a.5.5 0 0 1 -.686-.677l.69-1.231a.5.5 0 0 1 -.2-.931l1.186-.679a.5.5 0 0 1 .686.677l-.6 1.073 3.031-1.75a.5.5 0 0 1 .6.785l-1.962 1.976 4.792-2.761a.5.5 0 0 1 .553.83l-1.9 1.453 3.957-2.283a.5.5 0 0 1 .547.835l-3.422 2.515 5.814-3.356a.5.5 0 0 1 .549.834l-6.708 4.994 10.1-5.829a.5.5 0 0 1 .52.852l-.262.17 1.771-1.022a.5.5 0 0 1 .526.85l-5.287 3.48 7.5-4.331a.5.5 0 0 1 .519.854l-3.265 2.083 5.09-2.938a.5.5 0 0 1 .528.847l-12.14 8.129 15.551-8.977a.5.5 0 0 1 .522.852l-12.328 7.993 15.322-8.846a.5.5 0 0 1 .515.856l-7.25 4.524 9.318-5.38a.5.5 0 0 1 .519.854l-15.725 10.036 16.476-9.511a.5.5 0 0 1 .519.853l-17.554 11.238 17.035-9.835a.5.5 0 0 1 .511.858l-3.9 2.392 3.387-1.955a.5.5 0 0 1 .516.855l-14.353 9.056 13.839-7.99a.5.5 0 0 1 .512.859l-6.639 4.095 6.127-3.538a.5.5 0 0 1 .512.858l-8.171 5.058 7.659-4.421a.5.5 0 0 1 .512.858l-6.819 4.208 6.307-3.642a.5.5 0 0 1 .516.856l-14.212 8.961 13.7-7.907a.5.5 0 0 1 .516.855l-13.622 8.566 13.1-7.563a.5.5 0 0 1 .512.858l-6.456 3.98 5.946-3.431a.5.5 0 0 1 .518.855l-16.008 10.169 15.49-8.943a.5.5 0 0 1 .512.859l-7.049 4.351 6.538-3.774a.5.5 0 0 1 .513.857l-10.175 6.331 9.662-5.578a.5.5 0 0 1 .517.856l-15.087 9.545 14.57-8.412a.5.5 0 0 1 .513.858l-9.4 5.838 8.89-5.132a.5.5 0 0 1 .51.859l-.737.45.227-.13a.5.5 0 0 1 .51.859l-2.352 1.432 1.839-1.06a.5.5 0 0 1 .519.853l-16.6 10.62 16.081-9.283a.5.5 0 0 1 .511.859l-3.454 2.124 2.943-1.7a.5.5 0 0 1 .518.854l-12.439 7.946 11.926-6.885a.5.5 0 0 1 .513.857l-1.639 1.015 1.119-.646a.5.5 0 0 1 .521.853l-9.586 6.2 9.065-5.233a.5.5 0 0 1 .515.856l-.973.611.458-.264a.5.5 0 0 1 .529.846l-8.717 5.884 8.188-4.726a.5.5 0 0 1 .537.841l-7.665 5.385 7.128-4.115a.5.5 0 0 1 .546.836l-5.923 4.346 5.377-3.1a.5.5 0 0 1 .534.844l-1.026.711.492-.284a.5.5 0 0 1 .542.838l-.725.521.183-.1a.5.5 0 0 1 .667.156.5.5 0 0 1 -.117.676l-.417.314a.5.5 0 0 1 .5.8l-1.49 1.8.546-.314a.5.5 0 1 1 .5.865l-2.948 1.7a.5.5 0 0 1 -.636-.751l1.49-1.8-4.42 2.55a.5.5 0 0 1 -.551-.832l.281-.212-1.809 1.044a.5.5 0 0 1 -.542-.839l.729-.522-2.359 1.361a.5.5 0 0 1 -.535-.843l1.029-.712-2.7 1.555a.5.5 0 0 1 -.669-.159.5.5 0 0 1 .124-.677l5.917-4.342-8.966 5.178a.5.5 0 0 1 -.537-.841l7.668-5.387-10.789 6.228a.5.5 0 0 1 -.53-.846l8.716-5.884-11.657 6.73a.5.5 0 0 1 -.25.071z" fill="#21b8ea"/><path d="m2.194 9.5a.5.5 0 0 1 -.283-.912l1.154-.794-1.785 1.029a.5.5 0 0 1 -.566-.823l4.244-3.474-3.679 2.123a.5.5 0 0 1 -.579-.81l2.028-1.753-1.449.835a.5.5 0 0 1 -.647-.736l1.12-1.465a.512.512 0 0 1 -.507-.245.5.5 0 0 1 .183-.683l1.933-1.116a.5.5 0 0 1 .648.736l-1.066 1.394 3.828-2.206a.5.5 0 0 1 .577.81l-2.024 1.75 4.44-2.56a.5.5 0 0 1 .566.819l-4.243 3.475 7.442-4.294a.5.5 0 0 1 .533.844l-1.15.791 2.836-1.635a.5.5 0 0 1 .543.838l-3.124 2.256 5.365-3.094a.5.5 0 0 1 .549.833l-3.881 2.893 6.464-3.726a.5.5 0 0 1 .536.842l-1.929 1.346 3.796-2.188a.5.5 0 0 1 .537.842l-1.793 1.25 3.625-2.092a.5.5 0 0 1 .531.845l-.641.438 2.223-1.283a.5.5 0 0 1 .565.821l-4.9 3.973 8.305-4.794a.5.5 0 0 1 .534.843l-1.422.985 2.9-1.672a.5.5 0 0 1 .54.84l-2.347 1.663 3.119-1.8a.5.5 0 0 1 .567.818l-3.944 3.246 4.164-2.4a.5.5 0 0 1 .549.834l-.411.306a.5.5 0 0 1 .535.832l-1 .873.431-.249a.5.5 0 0 1 .6.073.5.5 0 0 1 .094.6l-.683 1.281a.5.5 0 1 1 .5.865l-1.516.862a.5.5 0 0 1 -.692-.668l.684-1.281-3.382 1.955a.5.5 0 0 1 -.578-.809l1-.87-2.917 1.682a.5.5 0 0 1 -.549-.834l.4-.3-1.962 1.135a.5.5 0 0 1 -.567-.818l3.942-3.245-7.046 4.067a.5.5 0 0 1 -.54-.84l2.346-1.668-4.347 2.51a.5.5 0 0 1 -.535-.844l1.42-.982-3.167 1.828a.5.5 0 0 1 -.565-.821l4.9-3.973-8.309 4.8a.5.5 0 0 1 -.532-.846l.639-.435-2.225 1.28a.5.5 0 0 1 -.536-.843l1.789-1.249-3.624 2.094a.5.5 0 0 1 -.536-.843l1.931-1.35-3.8 2.195a.5.5 0 0 1 -.549-.833l3.878-2.894-6.467 3.73a.5.5 0 0 1 -.543-.838l3.127-2.263-5.373 3.1a.494.494 0 0 1 -.25.071z" fill="#bbc1ce"/><path d="m26.4 42.5a.5.5 0 0 1 -.269-.921l14.15-9.056-16 9.237a.5.5 0 0 1 -.51-.86l1.729-1.063-1.224.706a.5.5 0 0 1 -.518-.855l15.039-9.6-14.517 8.388a.5.5 0 0 1 -.517-.855l11.18-7.088-10.663 6.155a.5.5 0 0 1 -.518-.854l9.525-6.077-9.007 5.2a.5.5 0 0 1 -.515-.856l2.5-1.566-1.985 1.147a.5.5 0 0 1 -.514-.857l.4-.252a.491.491 0 0 1 -.564-.219.5.5 0 0 1 .153-.68l6.159-4.017-5.634 3.253a.5.5 0 0 1 -.529-.847l6.613-4.463-6.084 3.512a.5.5 0 0 1 -.523-.851l1.135-.741-.612.352a.5.5 0 0 1 -.532-.845l3.018-2.067-2.486 1.44a.5.5 0 0 1 -.553-.83l4.258-3.27-3.7 2.138a.5.5 0 0 1 -.568-.818l2.615-2.157-2.052 1.184a.5.5 0 0 1 -.638-.748l1.691-2.085-1.053.608a.5.5 0 0 1 -.734-.557l.278-1.091a.5.5 0 0 1 -.044-.889l.5-.288a.5.5 0 0 1 .735.557l-.206.809 2.365-1.363a.5.5 0 0 1 .638.747l-1.69 2.085 4.906-2.832a.5.5 0 0 1 .569.818l-2.617 2.155 5.156-2.973a.5.5 0 0 1 .553.829l-4.26 3.264 7.091-4.093a.5.5 0 0 1 .532.844l-3.016 2.067 5.042-2.911a.5.5 0 0 1 .524.851l-1.145.747 2.771-1.6a.5.5 0 0 1 .529.846l-6.611 4.462 9.2-5.308a.5.5 0 0 1 .523.851l-6.169 4.017 8.439-4.866a.5.5 0 0 1 .514.856l-.031.021 1.519-.877a.5.5 0 0 1 .515.856l-2.512 1.572 4.207-2.428a.5.5 0 0 1 .518.854l-9.532 6.081 12.014-6.935a.5.5 0 0 1 .517.854l-11.168 7.079 13.13-7.58a.5.5 0 0 1 .519.855l-15.04 9.6 15.4-8.89a.5.5 0 0 1 .511.859l-1.725 1.056 1.229-.709a.5.5 0 0 1 .519.853l-14.157 9.055 13.634-7.871a.5.5 0 0 1 .522.851l-13.067 8.5 12.546-7.242a.5.5 0 0 1 .515.856l-4.007 2.514 3.492-2.015a.5.5 0 0 1 .522.851l-7.63 4.957 7.108-4.1a.5.5 0 0 1 .531.846l-8.728 5.921 8.2-4.731a.5.5 0 0 1 .529.847l-5.094 3.425 4.565-2.635a.5.5 0 0 1 .541.84l-5.506 3.933 4.965-2.866a.5.5 0 0 1 .541.839l-2.965 2.13 2.426-1.4a.5.5 0 0 1 .563.822l-2.992 2.41 2.429-1.4a.5.5 0 0 1 .58.808l-1.481 1.3.9-.519a.5.5 0 0 1 .672.7l-.847 1.331a.5.5 0 0 1 .374.917l-1.619.935a.5.5 0 0 1 -.672-.7l.825-1.3-3.49 2.014a.5.5 0 0 1 -.58-.807l1.481-1.3-3.669 2.115a.5.5 0 0 1 -.563-.822l2.991-2.409-5.6 3.234a.5.5 0 0 1 -.541-.839l2.972-2.132-5.15 2.973a.5.5 0 0 1 -.541-.84l5.506-3.931-8.274 4.774a.5.5 0 0 1 -.529-.848l5.09-3.422-7.4 4.273a.5.5 0 0 1 -.531-.847l8.729-5.927-11.742 6.777a.5.5 0 0 1 -.522-.852l7.628-4.955-10.064 5.81a.5.5 0 0 1 -.515-.856l4.01-2.521-5.854 3.379a.5.5 0 0 1 -.523-.852l13.061-8.491-16.19 9.347a.494.494 0 0 1 -.248.069z" fill="#2885ee"/><path d="m30.85 30.491a.5.5 0 0 1 -.324-.881l.908-.771-2.154 1.243a.5.5 0 0 1 -.55-.832l.429-.322a.5.5 0 0 1 -.445-.87l2.137-1.75-1.571.906a.5.5 0 0 1 -.572-.816l1.313-1.105-.741.428a.5.5 0 0 1 -.634-.753l.915-1.095-.281.162a.5.5 0 0 1 -.726-.584l.223-.7a.488.488 0 0 1 -.18-.181.5.5 0 0 1 .183-.683l.5-.288a.5.5 0 0 1 .727.585l-.109.341 1.602-.925a.5.5 0 0 1 .634.753l-.916 1.095 3.2-1.848a.5.5 0 0 1 .572.815l-1.314 1.107 1.984-1.146a.5.5 0 0 1 .566.819l-2.126 1.746 1.623-.936a.5.5 0 0 1 .55.832l-.429.322a.5.5 0 0 1 .452.864l-.9.77.332-.191a.5.5 0 0 1 .633.752l-.655.788.022-.012a.5.5 0 0 1 .5.865l-2.45 1.415a.5.5 0 0 1 -.635-.753l.657-.788-2.7 1.555a.494.494 0 0 1 -.25.067z" fill="#ffcd54"/><path d="m52.389 38.393a.5.5 0 0 1 -.369-.838l.37-.405-1.512.873a.5.5 0 0 1 -.593-.8l.916-.861-1.323.764a.5.5 0 0 1 -.633-.755l1.824-2.166-1.746 1.008a.5.5 0 0 1 -.612-.778l.734-.773a.491.491 0 0 1 -.2-.191.5.5 0 0 1 .183-.683l1.937-1.118a.5.5 0 0 1 .612.777l-.164.173 1.222-.705a.5.5 0 0 1 .633.755l-1.822 2.17 2.6-1.5a.5.5 0 0 1 .593.8l-.918.86.579-.334a.5.5 0 0 1 .619.771l-.809.883a.5.5 0 0 1 .058.895l-1.929 1.114a.49.49 0 0 1 -.25.064z" fill="#ffcd54"/><path d="m18.039 43.373a.5.5 0 0 1 -.294-.9l5.965-4.346-8.124 4.69a.5.5 0 0 1 -.538-.84l7.552-5.331-9.19 5.308a.5.5 0 0 1 -.524-.85l3.921-2.57-4.7 2.713a.5.5 0 0 1 -.52-.852l2.559-1.649-3 1.734a.5.5 0 0 1 -.523-.851l4.59-2.982-5.127 2.96a.5.5 0 0 1 -.526-.848l7.906-5.254-8.413 4.855a.5.5 0 0 1 -.531-.846l9.837-6.665-10.336 5.966a.5.5 0 0 1 -.53-.846l9.891-6.71-10.19 5.883a.5.5 0 0 1 -.533-.845l10.146-6.958-10.207 5.892a.5.5 0 0 1 -.53-.847l8.06-5.432-7.75 4.475a.5.5 0 0 1 -.537-.842l8.92-6.256-8.354 4.823a.5.5 0 0 1 -.532-.845l5.54-3.792-4.688 2.707a.5.5 0 0 1 -.549-.833l6.177-4.607-4.519 2.61a.5.5 0 0 1 -.576-.812l3.338-2.873a.534.534 0 0 1 -.454-.25.5.5 0 0 1 .183-.683l4.171-2.405a.5.5 0 0 1 .576.812l-3.108 2.673 7.285-4.207a.5.5 0 0 1 .549.833l-6.183 4.61 8.6-4.964a.5.5 0 0 1 .532.846l-5.538 3.788 6.887-3.978a.5.5 0 0 1 .537.842l-8.917 6.256 10.38-5.99a.5.5 0 0 1 .529.847l-8.065 5.433 8.91-5.144a.5.5 0 0 1 .533.845l-10.148 6.959 10.97-6.33a.5.5 0 0 1 .53.847l-9.889 6.706 10.43-6.019a.5.5 0 0 1 .53.847l-9.832 6.662 10.152-5.864a.5.5 0 0 1 .526.848l-7.909 5.255 7.868-4.542a.5.5 0 0 1 .523.852l-4.594 2.983 4.354-2.512a.5.5 0 0 1 .52.852l-2.559 1.648 2.166-1.25a.5.5 0 0 1 .524.851l-3.923 2.57 3.435-1.982a.5.5 0 0 1 .538.842l-7.553 5.323 6.708-3.873a.5.5 0 0 1 .544.837l-5.968 4.348 4.458-2.574a.5.5 0 0 1 .567.82l-3.731 3.052.872-.5a.5.5 0 0 1 .5.866l-6.2 3.582a.5.5 0 0 1 -.566-.82l3.731-3.055-7.292 4.209a.491.491 0 0 1 -.25.064z" fill="#abde62"/><path d="m46.9 38.449a.5.5 0 0 1 -.4-.8l1.453-1.965-2.912 1.68a.5.5 0 0 1 -.619-.769l1.75-1.921-1.832 1.058a.5.5 0 0 1 -.642-.743l1-1.264a.531.531 0 0 1 -.452-.25.5.5 0 0 1 .183-.683l1.937-1.118a.5.5 0 0 1 .642.743l-.9 1.142 2.349-1.359a.5.5 0 0 1 .619.77l-1.751 1.922 2.2-1.272a.5.5 0 0 1 .653.73l-1.453 1.965.587-.338a.5.5 0 1 1 .5.865l-2.666 1.539a.489.489 0 0 1 -.246.068z" fill="#db2936"/><g fill="#262626"><path d="m49.317 37.479c2.209 1.963 6.422.669 6.41-2.614-.013-3.376-3.874-4.011-6.1-2.364-2.07-1.745-6.338-.678-6.348 2.642-.014 3.346 3.875 3.937 6.038 2.336zm4.939-2.345a2.445 2.445 0 0 1 -1.317 2.244 2.293 2.293 0 0 1 -2.69-.921 3.338 3.338 0 0 0 .475-1.55c0-.019-.012-.03-.014-.048s.015-.034.014-.053a3.347 3.347 0 0 0 -.443-1.533c1.494-1.793 3.982-.184 3.975 1.861zm-6.826-2.6a2.8 2.8 0 0 1 1.84 2.606 3.315 3.315 0 0 1 -.43 1.424l-.018.026a1.812 1.812 0 0 1 -2.021.95 2.748 2.748 0 0 1 -2.059-2.685c-.001-1.428 1.158-2.819 2.688-2.319z"/><path d="m2.271 59.176c1.181.568 2.905.342 4.169.342h22.991c1.768 0 4.356.437 6.056-.339 2.769-1.265 2.246-4.367 2.246-6.867v-9.83h5.467c3.927 0 7.855.018 11.782 0 1.561-.007 3.419.194 4.388-1.358 1.209-1.935.363-6.129.363-8.233 0-4.006.361-8.2 0-12.194-.459-5.087-8.553-3.179-12.215-3.179h-9.785v-8.078c0-2.052.612-5.014-.3-6.925-1.765-3.671-10.417-2.033-13.45-2.033-6.4 0-13.163-.643-19.533 0-5.043.509-4.183 5.059-4.183 9.007v39.039c0 2.823-1.23 9.093 2.004 10.648zm48.936-40.694c2.061 0 6.087-.913 7.063 1.652.815 2.142 0 6.176 0 8.442 0 3.315.68 7.472 0 10.727-.521 2.491-1.619 2.215-3.829 2.215h-17.064a1.029 1.029 0 0 0 -.523 0h-11.963a13.878 13.878 0 0 0 4.317-3.118h4.508c.537 0 1.542-.808.568-.808h-4.372a12.822 12.822 0 0 0 1.823-3.182h6.984c.55 0 1.537-.828.562-.828h-7.254a14.431 14.431 0 0 0 .642-3.227c1.264.076 2.8.133 3.6-.62.519-.489.46-1.056.46-1.705v-3.289c0-1.582.231-2.99-1.743-3.048-1.755-.052-3.518 0-5.274 0-.01 0-.028 0-.04.006a12.727 12.727 0 0 0 -4.233-3.217h11.184a1.029 1.029 0 0 0 .523 0zm-27.89-.168c.034.088.149.145.352.158 4.749 2.135 7.348 6.61 7.607 11.722a13.587 13.587 0 0 1 -2.211 7.2c-2.1 3.088-3.965 3.478-7.722 4.209-3.591.7-4.883 1.188-7.857-.421a13.072 13.072 0 0 1 -6.762-11.376c.006-8.24 8.253-14.953 16.593-11.492zm11.959 10.635c.026.853.238.744-.726.744h-1.837a13.373 13.373 0 0 0 -2.565-7.386h2.706a6.863 6.863 0 0 1 1.658 0c.948.276.764 1.155.764 1.886 0 1.583-.05 3.174 0 4.756zm-11.013-11.431a1.1 1.1 0 0 0 -.615.242c-8-2.563-18.381 1.688-18.372 12.434.008 10.858 10.1 14.615 18.053 11.938-.073.189.011.35.408.35h12.53v6.077c0 2.176.658 5.429 0 7.5-1.378 4.341-11.467 2.423-14.71 2.423h-9.712c-2.18 0-4.977.482-7.108 0-4.231-.957-3-6.151-3-9.334v-36.057c0-1.037-.111-2.349-.2-3.693h34.178a1.447 1.447 0 0 0 .846-.4c.1 3.211-.221 6.631-.283 8.516zm-22.53-13.362c1.32-4.608 11.245-2.638 14.71-2.638h10.585c1.861 0 4.943-.6 6.732 0 1.987.666 2.64 3.734 2.786 7.116a.907.907 0 0 0 -.261-.032h-34.797a14.849 14.849 0 0 1 .245-4.446z"/><path d="m38.067 37.478c-.31 0-.764.24-.8.58-.041.377.387.464.666.464h1c.31 0 .764-.24.8-.58.041-.377-.387-.464-.666-.464z"/><path d="m18.7 5.324c.434 0 1.571-.648.61-.648h-5c-.434 0-1.571.648-.61.648z"/><path d="m10.931 55.511h16c.813 0 1.124-1.022.138-1.022h-16c-.813 0-1.124 1.022-.138 1.022z"/><path d="m22.527 5.285h1a1.937 1.937 0 0 0 1.025-.274c.21-.142.219-.3-.079-.3h-1a1.937 1.937 0 0 0 -1.025.274c-.21.145-.219.3.079.3z"/><path d="m15.68 31.743c-.289-.289-1.634.24-1.36.514l2 2c.258.258 1.15-.036 1.341-.291l6-8c.313-.417-1.093-.238-1.322.068l-5.3 7.067z"/></g></svg>