<svg width="148" height="147" viewBox="0 0 148 147" fill="none" xmlns="http://www.w3.org/2000/svg">
<mask id="mask0_7_1612" style="mask-type:luminance" maskUnits="userSpaceOnUse" x="0" y="0" width="148" height="147">
<path d="M148 73.0987C148 113.465 114.864 146.197 74 146.197C33.1364 146.197 0 113.477 0 73.0987C0 32.7204 33.1364 0 74 0C114.864 0 148 32.7328 148 73.0987Z" fill="white"/>
</mask>
<g mask="url(#mask0_7_1612)">
<path d="M114.989 115.839C110.345 110.108 73.5342 97.5395 73.5342 97.5395C73.5342 97.5395 37.5033 111.451 32.0791 115.839C26.655 120.24 24.6162 148.012 24.6162 148.012H121.383C121.383 148.012 119.633 121.57 114.989 115.839Z" fill="#F7DAA2"/>
<path d="M84.9363 104.253C84.9363 104.253 83.5268 111.003 73.5343 111.003C63.5418 111.003 62.1323 104.253 62.1323 104.253C62.1323 104.253 64.9136 98.7951 62.1323 92.3927C59.351 85.9904 88.3343 84.6851 84.9363 92.3927C81.5384 100.1 84.9363 104.253 84.9363 104.253Z" fill="#DDA778"/>
<path d="M97.3324 78.9416C98.0624 69.3319 104.229 55.4829 104.229 55.4829C113.013 36.0894 103.902 6.84988 86.8743 15.838C65.8069 -3.17011 32.4817 23.409 43.7579 55.2218C43.7579 55.2218 49.1066 68.1011 49.6226 77.6114C50.1386 87.1217 67.4304 106.13 72.993 106.428C78.543 106.739 96.6151 88.5513 97.3324 78.954V78.9416Z" fill="#442928"/>
<path d="M105.752 61.0399C105.752 66.1245 102.102 73.0987 99.648 73.0987C97.1939 73.0987 95.1929 68.9713 95.1929 63.8992C95.1929 58.827 97.7099 56.1915 99.648 54.6997C102.027 52.8598 105.752 54.6997 105.752 61.0399Z" fill="#F9BB8D"/>
<path d="M42.0464 61.0399C42.0464 66.1245 45.696 73.0987 48.1501 73.0987C50.6042 73.0987 52.6052 68.9713 52.6052 63.8992C52.6052 58.827 50.0882 56.1915 48.1501 54.6997C45.7716 52.8598 42.0464 54.6997 42.0464 61.0399Z" fill="#F9BB8D"/>
<path d="M73.9999 20.7486C56.7207 20.7486 49.0815 32.7079 49.0815 50.5475V72.8874C49.0815 88.4271 67.2543 101.717 72.9931 101.717C78.7319 101.717 98.9183 86.1769 98.9183 71.4577V50.5475C98.9183 32.7079 91.2792 20.7486 73.9999 20.7486Z" fill="#F9BB8D"/>
<path d="M98.9184 63.29L100.466 50.274C100.466 32.4344 91.2792 19.1449 73.9874 19.1449C56.6956 19.1449 47.3071 34.3489 47.3071 52.2009L49.069 66.1618C49.069 66.1618 53.1592 63.4268 52.9704 58.3919C52.5551 46.9423 58.6337 45.2516 68.085 43.4614C82.9857 40.6518 87.1765 31.8253 87.1765 31.8253C87.1765 31.8253 92.0595 33.4663 95.1806 40.6518C97.1942 45.3013 94.5639 50.361 94.4003 53.2701C94.2493 56.1791 98.9058 63.29 98.9058 63.29H98.9184Z" fill="#442928"/>
<path d="M75.6234 92.4052C74.1007 92.5047 71.3068 92.7657 70.3755 92.4052C73.1694 96.6444 70.3755 102.649 70.3755 102.649H75.6234C75.6234 102.649 73.333 97.5271 75.6234 92.4052Z" fill="#442928"/>
</g>
</svg>
