<svg width="103" height="103" viewBox="0 0 103 103" fill="none" xmlns="http://www.w3.org/2000/svg">
<g clip-path="url(#clip0_1178_12305)">
<path d="M102.952 50.828C102.952 78.8958 79.9115 101.656 51.4977 101.656C23.0838 101.656 0.0429688 78.9044 0.0429688 50.828C0.0429688 22.7516 23.0838 0 51.4977 0C79.9115 0 102.952 22.7602 102.952 50.828Z" fill="url(#paint0_linear_1178_12305)"/>
<mask id="mask0_1178_12305" style="mask-type:luminance" maskUnits="userSpaceOnUse" x="0" y="0" width="103" height="102">
<path d="M102.952 50.828C102.952 78.8958 79.9115 101.656 51.4977 101.656C23.0838 101.656 0.0429688 78.9044 0.0429688 50.828C0.0429688 22.7516 23.0838 0 51.4977 0C79.9115 0 102.952 22.7602 102.952 50.828Z" fill="white"/>
</mask>
<g mask="url(#mask0_1178_12305)">
<path d="M79.9996 80.5475C76.7706 76.5625 51.1745 67.8232 51.1745 67.8232C51.1745 67.8232 26.121 77.4961 22.3494 80.5475C18.5778 83.6076 17.1602 102.919 17.1602 102.919H84.445C84.445 102.919 83.2287 84.5325 79.9996 80.5475Z" fill="#F7DAA2"/>
<path d="M59.1046 72.4912C59.1046 72.4912 58.1246 77.185 51.1764 77.185C44.2283 77.185 43.2482 72.4912 43.2482 72.4912C43.2482 72.4912 45.1821 68.6964 43.2482 64.2446C41.3143 59.7929 61.4674 58.8852 59.1046 64.2446C56.7419 69.6041 59.1046 72.4912 59.1046 72.4912Z" fill="#DDA778"/>
<path d="M67.7248 54.8911C68.2324 48.2091 72.5203 38.5795 72.5203 38.5795C78.6283 25.0945 72.2928 4.7633 60.4529 11.0131C45.8041 -2.20394 22.632 16.2774 30.4727 38.3979C30.4727 38.3979 34.1918 47.3533 34.5506 53.9662C34.9094 60.579 46.933 73.796 50.8008 74.0035C54.6599 74.2196 67.2261 61.5731 67.7248 54.8997V54.8911Z" fill="#442928"/>
<path d="M73.5763 42.4432C73.5763 45.9787 71.0386 50.8281 69.3322 50.8281C67.6258 50.8281 66.2344 47.9582 66.2344 44.4314C66.2344 40.9046 67.9845 39.072 69.3322 38.0347C70.9861 36.7553 73.5763 38.0347 73.5763 42.4432Z" fill="#F9BB8D"/>
<path d="M29.2812 42.4432C29.2812 45.9787 31.819 50.8281 33.5254 50.8281C35.2318 50.8281 36.6232 47.9582 36.6232 44.4314C36.6232 40.9046 34.873 39.072 33.5254 38.0347C31.8715 36.7553 29.2812 38.0347 29.2812 42.4432Z" fill="#F9BB8D"/>
<path d="M51.4985 14.4277C39.4836 14.4277 34.1719 22.7435 34.1719 35.1479V50.6816C34.1719 61.4868 46.808 70.7275 50.7984 70.7275C54.7888 70.7275 68.825 59.9222 68.825 49.6875V35.1479C68.825 22.7435 63.5133 14.4277 51.4985 14.4277Z" fill="#F9BB8D"/>
<path d="M68.8245 44.0081L69.9009 34.9576C69.9009 22.5532 63.5128 13.3125 51.4892 13.3125C39.4656 13.3125 32.9375 23.8844 32.9375 36.2975L34.1626 46.0049C34.1626 46.0049 37.0066 44.1032 36.8754 40.6023C36.5866 32.641 40.8132 31.4653 47.3851 30.2206C57.746 28.267 60.66 22.1296 60.66 22.1296C60.66 22.1296 64.0553 23.2706 66.2255 28.267C67.6257 31.4999 65.7967 35.0181 65.683 37.0409C65.578 39.0636 68.8158 44.0081 68.8158 44.0081H68.8245Z" fill="#442928"/>
<path d="M52.6256 64.2529C51.5668 64.3221 49.6241 64.5036 48.9766 64.2529C50.9192 67.2006 48.9766 71.3758 48.9766 71.3758H52.6256C52.6256 71.3758 51.033 67.8143 52.6256 64.2529Z" fill="#442928"/>
</g>
</g>
<defs>
<linearGradient id="paint0_linear_1178_12305" x1="0.0429704" y1="15.7567" x2="101.9" y2="102.887" gradientUnits="userSpaceOnUse">
<stop offset="0.182692" stop-color="#49609C"/>
<stop offset="1" stop-color="#E9EFFF"/>
</linearGradient>
<clipPath id="clip0_1178_12305">
<rect width="102.909" height="102.909" fill="white" transform="translate(0.0429688)"/>
</clipPath>
</defs>
</svg>
