<svg width="33" height="32" viewBox="0 0 33 32" fill="none" xmlns="http://www.w3.org/2000/svg">
<path d="M9.31868 20.642C7.43232 21.7652 2.4864 24.0587 5.4988 26.9287C6.97033 28.3305 8.60924 29.3332 10.6697 29.3332H22.4274C24.4879 29.3332 26.1269 28.3305 27.5983 26.9287C30.6107 24.0587 25.6649 21.7652 23.7785 20.642C19.355 18.008 13.7422 18.008 9.31868 20.642Z" stroke="black" stroke-width="2" stroke-linecap="round" stroke-linejoin="round"/>
<path d="M22.5486 8.6665C22.5486 11.9802 19.8623 14.6665 16.5486 14.6665C13.2349 14.6665 10.5486 11.9802 10.5486 8.6665C10.5486 5.3528 13.2349 2.6665 16.5486 2.6665C19.8623 2.6665 22.5486 5.3528 22.5486 8.6665Z" stroke="black" stroke-width="2"/>
</svg>
