<svg version="1.1" id="Capa_1" xmlns="http://www.w3.org/2000/svg" xmlns:xlink="http://www.w3.org/1999/xlink" x="0px" y="0px" viewBox="0 0 510 510" style="enable-background:new 0 0 510 510;" xml:space="preserve">
<g>
	<g>
		<path style="fill-rule:evenodd;clip-rule:evenodd;fill:#D2DCFD;" d="M300.814,500c-22.002,0-39.837-17.836-39.837-39.837l0-19.918&#10;&#9;&#9;&#9;H60.001H10l0,19.918C10,482.164,27.836,500,49.838,500H300.814z"/>
		<path style="fill-rule:evenodd;clip-rule:evenodd;fill:#FFFFFF;" d="M60.001,440.245h200.976l0,19.918&#10;&#9;&#9;&#9;c0,22.002,17.836,39.837,39.837,39.837c22.002,0,39.837-17.836,39.837-39.837v-117.52l0-190.958&#10;&#9;&#9;&#9;c0-22.002,17.836-39.837,39.837-39.837H200H99.958c-22.015-0.155-39.957,17.881-39.957,39.837L60.001,440.245z"/>
		<path style="fill-rule:evenodd;clip-rule:evenodd;fill:#D2DCFD;" d="M60.001,440.245h200.976l0,19.918&#10;&#9;&#9;&#9;c0,22.002,17.836,39.837,39.837,39.837l0.163-0.002c0-21.612,0-43.225,0-64.837c0-17.205-20.026-34.916-40-34.916H60.001V440.245z&#10;&#9;&#9;&#9;"/>
		<path style="fill-rule:evenodd;clip-rule:evenodd;fill:#D2DCFD;" d="M340.651,151.684v190.958h119.512&#10;&#9;&#9;&#9;c-22.002,0-39.837-17.836-39.837-39.837V151.684c0-22.002-17.836-39.837-39.837-39.837&#10;&#9;&#9;&#9;C358.487,111.847,340.651,129.682,340.651,151.684z"/>
		<path style="fill-rule:evenodd;clip-rule:evenodd;fill:#FFFFFF;" d="M420.326,151.684v151.121&#10;&#9;&#9;&#9;c0,22.002,17.836,39.837,39.837,39.837c22.002,0,39.837-17.836,39.837-39.837V10l-37.5,20L425,10l-37.5,20L350,10l-37.5,20L275,10&#10;&#9;&#9;&#9;l-37.5,20L200,10l0,101.847h180.488C402.49,111.847,420.326,129.682,420.326,151.684z"/>
		<path style="fill-rule:evenodd;clip-rule:evenodd;fill:#D2DCFD;" d="M420.326,151.684v151.121&#10;&#9;&#9;&#9;c0,22.002,17.836,39.837,39.837,39.837l0.163-0.002c0-63.652,0-127.304-0.001-190.956c0-21.219-8.383-41.451-23.384-56.453&#10;&#9;&#9;&#9;c-15.001-15.002-35.234-23.384-56.453-23.384H200v40h180.488C402.49,111.847,420.326,129.682,420.326,151.684z"/>
		
			<ellipse transform="matrix(0.7071 -0.7071 0.7071 0.7071 -120.6098 215.9135)" style="fill-rule:evenodd;clip-rule:evenodd;fill:#B1D952;" cx="200.326" cy="253.546" rx="80" ry="80"/>
		
			<polyline style="fill-rule:evenodd;clip-rule:evenodd;fill:none;stroke:#FFFFFF;stroke-width:20;stroke-linecap:round;stroke-linejoin:round;stroke-miterlimit:2.6131;" points="&#10;&#9;&#9;&#9;171.811,255.336 190.225,273.749 224.94,239.033 &#9;&#9;"/>
		
			<line style="fill-rule:evenodd;clip-rule:evenodd;fill:none;stroke:#6864F7;stroke-width:20;stroke-linecap:round;stroke-linejoin:round;stroke-miterlimit:22.9256;" x1="245.488" y1="378.546" x2="155.163" y2="378.546"/>
	</g>
	<g>
		
			<path style="fill-rule:evenodd;clip-rule:evenodd;fill:none;stroke:#052A75;stroke-width:20;stroke-linecap:round;stroke-linejoin:round;stroke-miterlimit:22.9256;" d="&#10;&#9;&#9;&#9;M60.001,435.245l0-283.561c0-21.956,17.943-39.992,39.957-39.837h280.53c-22.002,0-39.837,17.836-39.837,39.837l0,308.479&#10;&#9;&#9;&#9;c0,22.002-17.836,39.837-39.837,39.837c-22.002,0-39.837-17.836-39.837-39.837l0-19.918H10l0,19.918&#10;&#9;&#9;&#9;C10,482.164,27.836,500,49.838,500h250.977 M200,106.847L200,10l37.5,20L275,10l37.5,20L350,10l37.5,20L425,10l37.5,20L500,10&#10;&#9;&#9;&#9;v292.805c0,22.002-17.836,39.837-39.837,39.837c-22.002,0-39.837-17.836-39.837-39.837V151.684&#10;&#9;&#9;&#9;c0-22.002-17.836-39.837-39.837-39.837"/>
		
			<line style="fill-rule:evenodd;clip-rule:evenodd;fill:none;stroke:#052A75;stroke-width:20;stroke-linecap:round;stroke-linejoin:round;stroke-miterlimit:22.9256;" x1="460.163" y1="342.642" x2="345.651" y2="342.642"/>
	</g>
</g>
<g>
</g>
<g>
</g>
<g>
</g>
<g>
</g>
<g>
</g>
<g>
</g>
<g>
</g>
<g>
</g>
<g>
</g>
<g>
</g>
<g>
</g>
<g>
</g>
<g>
</g>
<g>
</g>
<g>
</g>
</svg>