<svg width="24" height="22" viewBox="0 0 24 22" fill="none" xmlns="http://www.w3.org/2000/svg">
<path d="M11.5628 11.5631C12.095 11.5631 12.5264 11.1649 12.5264 10.6736C12.5264 10.1824 12.095 9.78418 11.5628 9.78418C11.0306 9.78418 10.5992 10.1824 10.5992 10.6736C10.5992 11.1649 11.0306 11.5631 11.5628 11.5631Z" fill="#1E293B"/>
<path d="M15.4168 11.5631C15.949 11.5631 16.3804 11.1649 16.3804 10.6736C16.3804 10.1824 15.949 9.78418 15.4168 9.78418C14.8847 9.78418 14.4532 10.1824 14.4532 10.6736C14.4532 11.1649 14.8847 11.5631 15.4168 11.5631Z" fill="#1E293B"/>
<path d="M7.70795 11.5631C8.24012 11.5631 8.67152 11.1649 8.67152 10.6736C8.67152 10.1824 8.24012 9.78418 7.70795 9.78418C7.17579 9.78418 6.74438 10.1824 6.74438 10.6736C6.74438 11.1649 7.17579 11.5631 7.70795 11.5631Z" fill="#1E293B"/>
<path d="M18.375 4.38541C16.7939 2.91649 14.7073 2.00277 12.4747 1.80178C10.2421 1.60079 8.00345 2.12513 6.14476 3.28439C4.28608 4.44365 2.9238 6.1652 2.29278 8.15223C1.66177 10.1393 1.80157 12.2672 2.68807 14.1693C2.78047 14.3461 2.81079 14.5451 2.77479 14.7386L1.92685 18.5009C1.89419 18.6452 1.90086 18.7947 1.94627 18.9359C1.99168 19.0772 2.07441 19.2059 2.18702 19.3103C2.27933 19.3949 2.38925 19.4614 2.51013 19.5057C2.63102 19.5501 2.76039 19.5713 2.89042 19.5683H3.08314L7.20721 18.8033C7.41681 18.7801 7.62936 18.8077 7.82389 18.8834C9.88448 19.7017 12.1898 19.8308 14.3424 19.2483C16.495 18.6658 18.36 17.4083 19.6159 15.6926C20.8718 13.9769 21.4398 11.9105 21.2221 9.84962C21.0043 7.78876 20.0145 5.86259 18.4231 4.4032L18.375 4.38541ZM19.1747 11.8212C18.9863 12.8832 18.5394 13.8919 17.8677 14.7714C17.1959 15.6509 16.3168 16.3783 15.2965 16.8989C14.2762 17.4195 13.1412 17.7197 11.9771 17.7768C10.8129 17.834 9.64988 17.6467 8.57547 17.229C8.19442 17.0794 7.78509 17.0008 7.37101 16.9978C7.19013 16.9989 7.00966 17.0138 6.83142 17.0422L4.11415 17.5492L4.66339 15.041C4.77278 14.4978 4.70226 13.9367 4.46104 13.4311C4.00854 12.4393 3.80563 11.3657 3.86757 10.2911C3.92951 9.21653 4.2547 8.16889 4.81866 7.22706C5.38262 6.28523 6.17066 5.47374 7.12347 4.85366C8.07628 4.23358 9.16905 3.82107 10.3195 3.64717C11.5271 3.46422 12.7646 3.54931 13.9295 3.89538C15.0944 4.24145 16.1534 4.83857 17.0187 5.63734C17.884 6.43611 18.5309 7.41358 18.9058 8.48889C19.2807 9.56421 19.3729 10.7065 19.1747 11.8212Z" fill="#1E293B"/>
</svg>
