<svg id="Layer_1" viewBox="0 0 512 512" xmlns="http://www.w3.org/2000/svg" data-name="Layer 1"><g fill-rule="evenodd"><path d="m76.978 130.864h167.556v-60.406a28.391 28.391 0 0 0 -20.183-27.1c-9.836-2.948.51-18.226 3.827-25.455 3-6.519-151.2-18.283-151.2 52.555z" fill="#6182a6"/><path d="m160.77 265.453h-25.57c-83.195 58.365-120.5 38.523-126.367 216.113h303.846c-5.84-177.59-43.172-157.748-126.369-216.113z" fill="#6182a6"/><path d="m160.77 265.453h-25.57c-16.045 11.254-30.36 19.616-43.115 27.014l23.782 52.639 44.9 99.468 44.9-99.468 23.754-52.639c-12.727-7.4-27.071-15.76-43.115-27.014z" fill="#577595"/><path d="m137.271 392.558 12.671-99.524h21.628l12.671 99.524-23.471 52.016z" fill="#e64c3c"/><path d="m174.291 314.351a53.732 53.732 0 0 1 -27.042 0l2.693-21.317h21.628z" fill="#cf4436"/><path d="m185.715 265.453-3.969 34.271c-1.417 11.934-40.592 11.962-41.981 0l-3.965-34.271z" fill="#ba3d31"/><path d="m102.631 106.77a23.929 23.929 0 1 1 -32.626 8.985 23.938 23.938 0 0 1 32.626-8.985zm139.89 0a23.929 23.929 0 1 1 -32.627 8.985 23.938 23.938 0 0 1 32.627-8.985z" fill="#e2aa73"/><path d="m223.9 91.009c10.148 47.679 7.6 66.16 3.43 84.813-6.719 30.245-36.312 66.245-66.558 66.529-30.274-.284-59.868-36.284-66.586-66.529-4.167-18.653-6.718-37.134 3.43-84.813 32.884 5.191 62.871.791 83.875-23.609 13.609 16.919 24.492 20.179 42.409 23.609z" fill="#fbbd80"/><path d="m388 413.96h74.24a13.218 13.218 0 0 1 12.585 8.759l28.347 76.394h-156.1l28.347-76.394a13.272 13.272 0 0 1 12.581-8.759z" fill="#ffd23b"/><path d="m231.891 413.96h74.24a13.218 13.218 0 0 1 12.585 8.759l28.347 76.394h-156.1l28.375-76.394a13.209 13.209 0 0 1 12.557-8.759z" fill="#ffd23b"/><path d="m309.957 328.807h74.243a13.247 13.247 0 0 1 12.586 8.759l28.346 76.394h-156.1l28.347-76.394a13.219 13.219 0 0 1 12.585-8.759z" fill="#fea832"/><path d="m347.063 328.807a79.016 79.016 0 1 0 -79.03-79.03 79.167 79.167 0 0 0 79.03 79.03z" fill="#ffd23b"/><path d="m347.063 304.288a54.5 54.5 0 1 0 -54.51-54.511 54.621 54.621 0 0 0 54.51 54.511z" fill="#fea832"/><path d="m107.649 92.313c4.082-43.37 69.279-53.292 112.677-53.207-1.02-5.9 5.386-15.788 7.852-21.2 3-6.519-151.2-18.283-151.2 52.555v37.587a23.946 23.946 0 0 1 18.057-4.025c.737-4.082 1.587-8.419 2.579-13.011 3.373.538 6.718.964 10.035 1.3z" fill="#577595"/><path d="m34.4 481.566c4.083-123.93 23.5-151.71 63.128-177.023l-5.442-12.076c-53.292 31.04-78.52 45.751-83.254 189.1z" fill="#577595"/><path d="m97.529 304.543c11.594-7.4 24.888-14.57 40.025-23.868l-1.754-15.222h-.6c-14.655 10.29-27.865 18.142-39.77 25.087-1.135.652-2.24 1.3-3.345 1.927z" fill="#4e6986"/><path d="m144.669 408.914 11.821-93a49.257 49.257 0 0 1 -9.241-1.559l-9.978 78.207z" fill="#cf4436"/><path d="m215.705 481.566 21.856-58.847a13.219 13.219 0 0 1 12.585-8.759h-18.255a13.209 13.209 0 0 0 -12.557 8.759l-21.855 58.847-6.52 17.547h18.255z" fill="#e6bd35"/><path d="m371.809 481.566 21.855-58.847a13.22 13.22 0 0 1 12.586-8.759h-18.25a13.272 13.272 0 0 0 -12.585 8.759l-21.827 58.847-6.52 17.547h18.255z" fill="#e6bd35"/><path d="m293.772 396.414 21.828-58.848a13.244 13.244 0 0 1 12.585-8.759h-18.228a13.219 13.219 0 0 0 -12.585 8.759l-21.856 58.848-6.491 17.546h18.227z" fill="#e5972d"/><path d="m282.4 249.777a79.037 79.037 0 0 1 71.858-78.689c-2.381-.227-4.762-.312-7.2-.312a79.016 79.016 0 1 0 0 158.031c2.438 0 4.819-.113 7.2-.312a79.044 79.044 0 0 1 -71.858-78.718z" fill="#e6bd35"/><path d="m340.146 195.721a54.519 54.519 0 0 1 0 108.141 55.5 55.5 0 0 0 6.917.426 54.5 54.5 0 1 0 0-108.993 55.5 55.5 0 0 0 -6.917.426z" fill="#e5972d"/></g><path d="m462.421 209.836v-13.124a7 7 0 1 1 14 0v13.124a7 7 0 0 1 -14 0zm-21.43-21.4h13.124a7 7 0 1 0 0-14h-13.124a7 7 0 0 0 0 14zm35.6 156.7a7 7 0 0 0 -7 7v13.125a7 7 0 0 0 14 0v-13.124a7 7 0 0 0 -6.997-7.002zm8.108-156.7h13.124a7 7 0 0 0 0-14h-13.123a7 7 0 0 0 0 14zm-15.279-15.279a7 7 0 0 0 7-7v-13.128a7 7 0 0 0 -14 0v13.125a7 7 0 0 0 7.003 7.002zm.169 135.3v13.123a7 7 0 0 0 14 0v-13.125a7 7 0 0 0 -14 0zm-137.056-191.2h13.125a7 7 0 1 0 0-14h-13.122a7 7 0 0 0 0 14zm108.653 219.6a7 7 0 0 0 7 7h13.124a7 7 0 0 0 0-14h-13.118a7 7 0 0 0 -7.003 7.001zm-379.1-224.557a30.757 30.757 0 0 1 6.059-7.592v-34.253c0-16.161 7.285-38.331 41.99-52.178 25.878-10.325 57.439-12.185 73.949-12.377a244.776 244.776 0 0 1 29.521 1.319c13.134 1.507 16 3.5 17.66 5.243a7.529 7.529 0 0 1 1.443 8.367c-.636 1.386-1.457 2.949-2.325 4.6-1.413 2.693-4.507 8.589-4.958 11.5a35.582 35.582 0 0 1 24.283 33.523v34.264a30.9 30.9 0 0 1 -14.128 53.028 150.642 150.642 0 0 1 -3.248 19.6c-3.616 16.28-13.4 34.139-26.182 47.764-14.52 15.483-31.263 24.092-47.144 24.24h-.131c-15.893-.148-32.644-8.757-47.168-24.239-12.779-13.624-22.569-31.483-26.187-47.773a150.287 150.287 0 0 1 -3.247-19.59 30.874 30.874 0 0 1 -20.187-45.446zm155.731-6.782c-.019-.084-.043-.165-.059-.25s-.02-.167-.032-.251q-.717-3.867-1.566-8.044c-13.89-2.9-24.9-6.759-36.733-19.173-18.917 18.164-44.6 25.075-78.113 21.05-.428 2.146-.822 4.21-1.2 6.227-.009.064-.013.127-.024.191-.015.08-.038.156-.055.235-6.738 36.612-4.5 52.468-.851 68.8 6.222 28.014 33.667 60.754 59.752 61.054 26.07-.3 53.5-33.04 59.724-61.046 3.652-16.342 5.892-32.193-.843-68.797zm19.418 7.341a16.98 16.98 0 0 0 -4.247-1.711 225.846 225.846 0 0 1 3.112 31.719 16.906 16.906 0 0 0 1.135-30.008zm-155.086-15.452a30.948 30.948 0 0 1 5.326-.73c.457-2.311.938-4.674 1.461-7.128a7 7 0 0 1 7.939-5.458c35.066 5.531 60.4-1.422 77.449-21.26a7 7 0 0 1 10.762.17c11.9 14.77 20.809 17.78 38.3 21.129a7 7 0 0 1 5.532 5.419c.523 2.455 1 4.817 1.461 7.13a30.92 30.92 0 0 1 5.326.728v-26.952a21.474 21.474 0 0 0 -15.2-20.4 12.151 12.151 0 0 1 -8.1-7c-2.76-6.563.622-14.464 4.119-21.309-8.226-1.272-24.077-2.526-43.866-1.466-30.352 1.622-55.635 8.016-71.192 18-13 8.343-19.317 18.866-19.317 32.175zm-1.532 44.885c.37.211.751.4 1.136.584a225.641 225.641 0 0 1 3.11-31.718 16.924 16.924 0 0 0 -4.246 31.134zm424.383 187.564h-13.126a7 7 0 0 0 0 14h13.126a7 7 0 0 0 0-14zm-187.74-184.2a7 7 0 0 0 7-7v-13.124a7 7 0 0 0 -14 0v13.126a7 7 0 0 0 6.998 7.002zm0-43.682a7 7 0 0 0 7-7v-13.124a7 7 0 0 0 -14 0v13.126a7 7 0 0 0 6.998 7.002zm-28.4 15.278h13.124a7 7 0 1 0 0-14h-13.13a7 7 0 0 0 0 14zm56.375 194.038a61.5 61.5 0 1 1 61.514-61.513 61.583 61.583 0 0 1 -61.514 61.513zm0-14a47.495 47.495 0 1 0 -47.508-47.508 47.562 47.562 0 0 0 47.508 47.503zm7-12.726v-3.815a19.633 19.633 0 0 0 -7-37.969 5.613 5.613 0 1 1 5.316-7.474 7 7 0 1 0 13.182-4.724 19.712 19.712 0 0 0 -11.5-11.733v-3.82a7 7 0 0 0 -14 0v3.814a19.617 19.617 0 0 0 7 37.941 5.627 5.627 0 1 1 -5.274 7.535 7 7 0 1 0 -13.205 4.659 19.6 19.6 0 0 0 11.477 11.767v3.819a7 7 0 1 0 14 0zm155.669 212.12a7 7 0 0 1 -6.564 9.438h-155.2c-.133 0-.258-.024-.389-.032-.173.013-.344.032-.519.032h-156.102a7 7 0 0 1 -6.565-9.438l3.009-8.108h-178.574a7 7 0 0 1 -7-7.234c4.867-147.176 32.211-163.174 86.685-194.894.034-.021.069-.041.1-.061 12.554-7.31 26.784-15.6 42.561-26.665a7 7 0 0 1 4.022-1.271h51.109a7 7 0 0 1 4.022 1.271c15.756 11.053 29.965 19.333 42.505 26.636.074.041.146.083.218.127 24.014 13.986 43.786 25.536 58.1 47.838a20.2 20.2 0 0 1 11.192-11.076 86.034 86.034 0 1 1 89.436 0 20.359 20.359 0 0 1 11.555 11.86l26.663 71.854h32.236a20.247 20.247 0 0 1 19.151 13.33zm-162.669-174.879a72.015 72.015 0 1 0 -72.028-72.028 72.11 72.11 0 0 0 72.028 72.028zm-67.971 85.154h27.036c.153 0 .3.014.453.018.114-.006.225-.018.34-.018h80.477c.086 0 .17.01.255.013.114 0 .226-.013.34-.013h27.068l-24.842-66.959a6.244 6.244 0 0 0 -6.021-4.194h-74.241a6.211 6.211 0 0 0 -6.02 4.19zm-98.154-95.667 7.115 55.814 32.392-71.765c-8.912-5.216-18.6-11.008-29.076-17.964l-2.669 23.149c-.578 4.864-3.549 8.363-7.762 10.766zm-37.289-38.837 3.025 26.079a9.837 9.837 0 0 0 3.648 1.756c.045.014.091.024.135.04a35.97 35.97 0 0 0 10.268 1.353c7.879 0 12.954-2.009 14.107-3.167l3-26.061zm23.684 42.856a57.881 57.881 0 0 1 -6.6.375h-.079a57.694 57.694 0 0 1 -6.474-.371l-9.708 76.146 16.3 36.1 16.279-36.067zm-66.269-19.973 32.395 71.744 7.111-55.778c-4.221-2.4-7.2-5.906-7.761-10.772l-2.681-23.143c-10.475 6.95-20.156 12.737-29.064 17.949zm91.535 179.229 20.142-54.282a20.313 20.313 0 0 1 19.15-13.326h32.264l20.588-55.484c-11.615-23.875-28.175-34.958-52.138-49.034l-65.455 145.016a7 7 0 0 1 -12.763 0l-23.343-51.7a6.985 6.985 0 0 1 -.311-.688l-41.829-92.632c-22.42 13.173-38.965 24.134-50.469 45.741-13.107 24.615-19.862 62.646-22.347 126.389zm144.4 17.546-24.844-66.957a6.21 6.21 0 0 0 -6.022-4.192h-74.24a6.255 6.255 0 0 0 -6.031 4.219l-21.694 58.464a6.84 6.84 0 0 1 -.253.681l-2.888 7.785zm31.6-71.149h-43.066l21.532 58.029zm124.509 71.149-24.85-66.957a6.208 6.208 0 0 0 -6.021-4.192h-37.061-.044-.026-37.11a6.255 6.255 0 0 0 -6.031 4.219l-24.831 66.93z"/></svg>