<svg width="27" height="27" viewBox="0 0 27 27" fill="none" xmlns="http://www.w3.org/2000/svg">
<path d="M9.2772 3.35986C9.04611 3.44621 8.81884 3.54041 8.59571 3.64211M22.6106 17.7295C22.721 17.4905 22.8228 17.2467 22.9156 16.9985M20.2135 21.0392C20.399 20.866 20.5783 20.6863 20.7509 20.5004M16.7241 23.2081C16.9338 23.129 17.1403 23.0435 17.3434 22.9518M13.3611 23.8796C13.1117 23.8882 12.8605 23.8882 12.611 23.8796M8.6415 22.9575C8.83683 23.0454 9.03531 23.1276 9.2367 23.2037M5.27653 20.5596C5.4242 20.7162 5.57658 20.8682 5.73345 21.0155M3.07281 17.0417C3.15371 17.2553 3.24131 17.4657 3.33535 17.6724M2.39465 13.6287C2.38764 13.4039 2.38766 13.1777 2.39465 12.9526M3.06498 9.55788C3.14445 9.34669 3.23048 9.1387 3.3228 8.93416M5.25867 6.03826C5.41495 5.87179 5.57654 5.71037 5.74318 5.55428" stroke="#141B34" stroke-width="1.6205" stroke-linecap="round" stroke-linejoin="round"/>
<path d="M14.8133 13.0801C14.8133 13.9751 14.0877 14.7006 13.1928 14.7006C12.2978 14.7006 11.5723 13.9751 11.5723 13.0801C11.5723 12.1852 12.2978 11.4596 13.1928 11.4596M14.8133 13.0801C14.8133 12.1852 14.0877 11.4596 13.1928 11.4596M14.8133 13.0801H17.5141M13.1928 11.4596V6.59814" stroke="#141B34" stroke-width="1.6205" stroke-linecap="round"/>
<path d="M23.9962 13.0812C23.9962 7.11464 19.1593 2.27783 13.1929 2.27783" stroke="#141B34" stroke-width="1.6205" stroke-linecap="round"/>
</svg>
