<svg width="22" height="22" viewBox="0 0 22 22" fill="none" xmlns="http://www.w3.org/2000/svg">
<path d="M10.6733 13.6697C12.147 13.6697 13.3417 12.475 13.3417 11.0013C13.3417 9.52767 12.147 8.33301 10.6733 8.33301C9.19966 8.33301 8.005 9.52767 8.005 11.0013C8.005 12.475 9.19966 13.6697 10.6733 13.6697Z" stroke="#1C2A3A" stroke-width="1.33417" stroke-miterlimit="10" stroke-linecap="round" stroke-linejoin="round"/>
<path d="M1.77893 11.7836V10.2182C1.77893 9.29313 2.53496 8.52821 3.46888 8.52821C5.07878 8.52821 5.73697 7.38972 4.92757 5.99329C4.46506 5.19278 4.74079 4.15213 5.55019 3.68962L7.08893 2.80906C7.79159 2.39102 8.69883 2.64007 9.11687 3.34273L9.21471 3.51173C10.0152 4.90816 11.3316 4.90816 12.141 3.51173L12.2388 3.34273C12.6569 2.64007 13.5641 2.39102 14.2668 2.80906L15.8055 3.68962C16.6149 4.15213 16.8906 5.19278 16.4281 5.99329C15.6187 7.38972 16.2769 8.52821 17.8868 8.52821C18.8118 8.52821 19.5768 9.28424 19.5768 10.2182V11.7836C19.5768 12.7086 18.8207 13.4735 17.8868 13.4735C16.2769 13.4735 15.6187 14.612 16.4281 16.0085C16.8906 16.8179 16.6149 17.8496 15.8055 18.3121L14.2668 19.1927C13.5641 19.6107 12.6569 19.3617 12.2388 18.659L12.141 18.49C11.3405 17.0936 10.0241 17.0936 9.21471 18.49L9.11687 18.659C8.69883 19.3617 7.79159 19.6107 7.08893 19.1927L5.55019 18.3121C4.74079 17.8496 4.46506 16.809 4.92757 16.0085C5.73697 14.612 5.07878 13.4735 3.46888 13.4735C2.53496 13.4735 1.77893 12.7086 1.77893 11.7836Z" stroke="#1C2A3A" stroke-width="1.33417" stroke-miterlimit="10" stroke-linecap="round" stroke-linejoin="round"/>
</svg>
