<svg id="Capa_1" enable-background="new 0 0 512 512" height="512" viewBox="0 0 512 512" width="512" xmlns="http://www.w3.org/2000/svg"><g><g><g><path d="m38.951 124.002 418.322 10-29.843-52.236c-2.719-4.483-7.582-7.22-12.825-7.22h-336.545c-5.182 0-9.997 2.675-12.735 7.075z" fill="#935b44"/><path d="m447.429 81.766c-2.719-4.483-7.582-7.22-12.825-7.22h-30c5.243 0 10.106 2.738 12.825 7.22l25.62 42.236 14.223 10 15.777-10z" fill="#7c4b37"/><path d="m39.728 155.734h415.172v300.227h-415.172z" fill="#f9f7f8"/><path d="m442.272 155.734h30v300.227h-30z" fill="#e5e1e5"/><g fill="#feb237"><path d="m421.75 124.002h-66.3l-10 24.635 10 18.796c0 18.308 14.842 33.15 33.15 33.15 18.308 0 33.15-14.842 33.15-33.15l10-18.796z"/><path d="m289.15 124.002h-66.3l-10 20.669 10 22.762c0 18.308 14.842 33.15 33.15 33.15 18.308 0 33.15-14.842 33.15-33.15l10-18.796z"/><path d="m156.55 124.002h-66.3l-10 20.669 10 22.762c0 18.308 14.842 33.15 33.15 33.15 18.308 0 33.15-14.842 33.15-33.15l10-18.796z"/></g><path d="m204.423 245.223h-110.092c-2.761 0-5 2.238-5 5v194.557l120.091 10v-204.557c.001-2.761-2.238-5-4.999-5z" fill="#935b44"/><path d="m214.423 245.223h-30c2.761 0 5 2.239 5 5v204.557l30-10v-194.557c0-2.761-2.239-5-5-5z" fill="#7c4b37"/><path d="m90.251 124.002h-51.3c-8.284 0-15 6.716-15 15v28.431c0 18.308 14.842 33.15 33.15 33.15 18.308 0 33.15-14.842 33.15-33.15z" fill="#fff0ad"/><path d="m222.85 124.002h-66.3v43.431c0 18.308 14.842 33.15 33.15 33.15 18.308 0 33.15-14.842 33.15-33.15z" fill="#fff0ad"/><path d="m355.45 124.002h-66.3v43.431c0 18.308 14.842 33.15 33.15 33.15 18.308 0 33.15-14.842 33.15-33.15z" fill="#fff0ad"/><path d="m336.308 7.5h-170.616c-23.357 0-42.291 18.934-42.291 42.291 0 23.357 18.935 42.291 42.291 42.291h170.616c23.357 0 42.291-18.935 42.291-42.291.001-23.357-18.934-42.291-42.291-42.291z" fill="#ffd15b"/><path d="m346.308 7.5h-30c23.357 0 42.291 18.935 42.291 42.292 0 23.357-18.935 42.291-42.291 42.291h30c23.357 0 42.291-18.934 42.291-42.291.001-23.357-18.934-42.292-42.291-42.292z" fill="#feb237"/><path d="m484.5 444.78h-467c-5.523 0-10 4.477-10 10v39.72c0 5.523 4.477 10 10 10h467c5.523 0 10-4.477 10-10v-39.72c0-5.523-4.477-10-10-10z" fill="#baafb9"/><path d="m494.5 444.78h-30c5.523 0 10 4.477 10 10v39.72c0 5.523-4.477 10-10 10h30c5.523 0 10-4.477 10-10v-39.72c0-5.523-4.477-10-10-10z" fill="#9b8e99"/><path d="m407.668 400.139h-134.916c-2.761 0-5-2.239-5-5v-144.916c0-2.762 2.239-5 5-5h134.916c2.762 0 5 2.238 5 5v144.916c0 2.762-2.238 5-5 5z" fill="#82e7f1"/><path d="m417.668 245.223h-23c2.761 0 5 2.239 5 5v144.916c0 2.762-2.239 5-5 5h23c2.761 0 5-2.238 5-5v-144.916c0-2.761-2.238-5-5-5z" fill="#00dae9"/><path d="m364.96 298.028h-45.273c-2.659 0-5.047 1.626-6.021 4.1l-16.056 40.786c-.836 2.123.729 4.42 3.01 4.42h83.407c2.281 0 3.846-2.298 3.01-4.42l-16.056-40.786c-.974-2.474-3.362-4.1-6.021-4.1z" fill="#ffd15b"/><path d="m392.811 342.914-16.056-40.786c-.974-2.474-3.362-4.1-6.021-4.1h-17.322c2.659 0 5.047 1.626 6.021 4.1l16.057 40.786c.836 2.123-.729 4.42-3.01 4.42h17.322c2.28.001 3.845-2.297 3.009-4.42z" fill="#feb237"/><path d="m463.049 124.002h-41.3v43.431c0 12.908 7.377 24.092 18.145 29.568 4.505 2.291 9.604 2.582 15.004 2.582 18.308 0 23.15-13.842 23.15-32.15v-28.431c.001-8.284-6.714-15-14.999-15z" fill="#fff0ad"/><path d="m473.049 124.002h-30c8.284 0 15 6.716 15 15v28.431c0 12.907-7.382 24.084-18.15 29.559 4.505 2.291 9.599 3.591 15 3.591 18.308 0 33.15-14.842 33.15-33.15v-28.431c0-8.284-6.716-15-15-15z" fill="#ffd15b"/></g></g><g><path d="m338.246 49.791c0-4.143-3.357-7.5-7.5-7.5h-149.492c-4.143 0-7.5 3.357-7.5 7.5s3.357 7.5 7.5 7.5h149.492c4.143 0 7.5-3.357 7.5-7.5z"/><path d="m494.5 437.28h-14.728v-237.73c9.588-7.443 15.776-19.068 15.776-32.118v-28.431c0-10.867-7.744-19.958-18.003-22.048l-23.704-39.077c-4.053-6.681-11.424-10.831-19.237-10.831h-41.591c1.993-5.379 3.086-11.191 3.086-17.255.001-27.454-22.335-49.79-49.79-49.79h-180.618c-27.455 0-49.791 22.336-49.791 49.791 0 6.064 1.093 11.876 3.086 17.255h-40.925c-7.826 0-14.967 3.967-19.103 10.611l-24.449 39.287c-10.286 2.068-18.058 11.172-18.058 22.058v28.431c0 13.05 6.188 24.675 15.776 32.118v237.73h-14.727c-9.649 0-17.5 7.851-17.5 17.5v39.72c0 9.649 7.851 17.5 17.5 17.5h477c9.649 0 17.5-7.851 17.5-17.5v-39.72c0-9.65-7.851-17.501-17.5-17.501zm-13.951-269.847c0 14.144-11.506 25.65-25.649 25.65-14.144 0-25.65-11.507-25.65-25.65v-35.931h43.8c4.136 0 7.5 3.364 7.5 7.5v28.431zm-428.097-50.931 19.24-30.919c1.379-2.215 3.76-3.537 6.368-3.537h49.745c9.14 10.72 22.728 17.537 37.886 17.537h30.815c4.143 0 7.5-3.357 7.5-7.5s-3.357-7.5-7.5-7.5h-30.815c-19.184 0-34.791-15.607-34.791-34.792 0-19.184 15.608-34.791 34.791-34.791h180.617c19.184 0 34.791 15.607 34.791 34.791 0 19.185-15.607 34.792-34.791 34.792h-117.115c-4.143 0-7.5 3.357-7.5 7.5s3.357 7.5 7.5 7.5h117.115c15.158 0 28.747-6.817 37.886-17.537h50.41c2.605 0 5.061 1.384 6.413 3.61l18.711 30.846zm310.497 15h51.3v35.931c0 14.144-11.506 25.65-25.649 25.65-14.144 0-25.65-11.507-25.65-25.65v-35.931zm-66.3 0h51.3v35.931c0 14.144-11.506 25.65-25.649 25.65s-25.65-11.507-25.65-25.65v-35.931zm-66.298 0h51.299v35.931c0 14.144-11.506 25.65-25.649 25.65-14.144 0-25.649-11.507-25.649-25.65v-35.931zm-66.3 0h51.3v35.931c0 14.144-11.507 25.65-25.65 25.65s-25.649-11.507-25.649-25.65v-35.931zm-66.3 0h51.3v35.931c0 14.144-11.507 25.65-25.65 25.65-14.144 0-25.649-11.507-25.649-25.65v-35.931zm-66.3 7.5c0-4.136 3.364-7.5 7.5-7.5h43.8v35.931c0 14.144-11.507 25.65-25.65 25.65-14.144 0-25.649-11.507-25.649-25.65v-28.431zm15.777 67.862c3.162.792 6.468 1.219 9.873 1.219 13.671 0 25.778-6.79 33.15-17.168 7.372 10.377 19.479 17.168 33.149 17.168 13.671 0 25.778-6.79 33.15-17.168 7.372 10.377 19.479 17.168 33.149 17.168 13.671 0 25.778-6.79 33.15-17.168 7.372 10.377 19.479 17.168 33.149 17.168s25.777-6.79 33.149-17.168c7.373 10.377 19.479 17.168 33.15 17.168 13.67 0 25.777-6.79 33.149-17.168 7.373 10.377 19.48 17.168 33.15 17.168s25.777-6.79 33.149-17.168c7.373 10.377 19.479 17.168 33.15 17.168 3.405 0 6.711-.426 9.873-1.219v230.416h-237.85v-187.056c0-6.893-5.607-12.5-12.5-12.5h-120.087c-6.893 0-12.5 5.607-12.5 12.5v122.229c0 4.143 3.357 7.5 7.5 7.5s7.5-3.357 7.5-7.5v-119.729h115.092v184.556h-115.092v-32.14c0-4.142-3.357-7.5-7.5-7.5s-7.5 3.358-7.5 7.5v32.141h-34.603zm449.772 287.636c0 1.379-1.121 2.5-2.5 2.5h-477c-1.379 0-2.5-1.121-2.5-2.5v-39.72c0-1.379 1.121-2.5 2.5-2.5h477c1.379 0 2.5 1.121 2.5 2.5z"/><path d="m300.62 354.835h89.181c3.554 0 6.871-1.754 8.872-4.691 2.001-2.938 2.419-6.666 1.117-9.977l-16.058-40.788c-2.118-5.377-7.22-8.851-12.998-8.851h-51.048c-5.78 0-10.883 3.475-12.999 8.853l-16.058 40.788c-1.301 3.309-.883 7.037 1.118 9.975 2.002 2.937 5.319 4.691 8.873 4.691zm19.768-49.307h49.646l13.506 34.307h-76.657z"/><path d="m116.42 378.07c4.143 0 7.5-3.357 7.5-7.5v-24.306c0-4.142-3.357-7.5-7.5-7.5s-7.5 3.358-7.5 7.5v24.306c0 4.143 3.357 7.5 7.5 7.5z"/><path d="m272.752 407.64h144.917c6.893 0 12.5-5.607 12.5-12.5v-144.916c0-6.893-5.607-12.5-12.5-12.5h-144.917c-6.893 0-12.5 5.607-12.5 12.5v26.157c0 4.143 3.357 7.5 7.5 7.5 4.142 0 7.5-3.357 7.5-7.5v-23.657h139.917v139.916h-139.917v-83.572c0-4.143-3.358-7.5-7.5-7.5-4.143 0-7.5 3.357-7.5 7.5v86.072c0 6.892 5.607 12.5 12.5 12.5z"/></g></g></svg>