<svg id="Layer_1" enable-background="new 0 0 500 500" viewBox="0 0 500 500" xmlns="http://www.w3.org/2000/svg"><g clip-rule="evenodd" fill-rule="evenodd"><g><path d="m173.215 255.043 42.608-79.723 194.365 83.151 41.808 72.472-118.146 64.937z" fill="#999"/><path d="m362.449 238.048 47.739 20.423 41.808 72.472-118.146 64.937 15.163-103.784z" fill="#ccc"/><path d="m410.188 258.471-133.19-116.775-61.175 33.624 133.19 116.776z" fill="#999"/><path d="m55.07 319.98 42.607-79.722 194.366 83.151 41.807 72.471-118.146 64.937z" fill="#999"/><path d="m244.303 302.986 47.74 20.423 41.807 72.471-118.146 64.937 15.163-103.784z" fill="#ccc"/><path d="m292.043 323.409-133.19-116.776-61.176 33.625 133.19 116.775z" fill="#e0e0e0"/><path d="m314.942 231.261 56.97 48.249-104.979 57.7-133.476-116.618 35.25-62.041z" fill="#999"/><path d="m314.942 231.261 56.97 48.249-104.979 57.7 7.519-85.946 7.756-20.161z" fill="#ccc"/><path d="m314.942 231.261-102.171-92.168-44.064 19.458 105.745 92.713z" fill="#e0e0e0"/></g><path d="m256.492 76.601c0 3.668-2.974 6.643-6.642 6.643s-6.642-2.974-6.642-6.643v-30.776c0-3.668 2.974-6.643 6.642-6.643s6.642 2.974 6.642 6.643zm-156.822 82.511c2.694 2.479 2.868 6.673.389 9.366-2.479 2.694-6.673 2.868-9.366.389l-20.644-19.009c-2.694-2.479-2.868-6.673-.389-9.366 2.479-2.694 6.673-2.868 9.367-.389zm309.337 9.756c-2.694 2.479-6.888 2.304-9.367-.389-2.479-2.694-2.304-6.888.389-9.366l20.644-19.009c2.694-2.479 6.888-2.305 9.366.389 2.479 2.693 2.304 6.888-.389 9.366zm-345.19 58.593c3.582.745 5.882 4.253 5.138 7.835-.745 3.582-4.254 5.882-7.836 5.137l-25.015-5.203c-3.582-.744-5.882-4.253-5.137-7.835s4.253-5.882 7.835-5.137zm375.012 13.264c-3.582.731-7.079-1.581-7.81-5.163s1.581-7.079 5.163-7.81l25.046-5.164c3.582-.731 7.079 1.581 7.81 5.163s-1.581 7.079-5.163 7.81zm-96.642-136.583c-1.992 3.067-6.092 3.938-9.159 1.946s-3.938-6.093-1.946-9.159l14.187-21.807c1.991-3.066 6.092-3.938 9.159-1.946 3.066 1.992 3.938 6.092 1.946 9.159zm-172.507-8.131c2.149 2.951 1.499 7.087-1.453 9.236-2.952 2.15-7.088 1.499-9.237-1.453l-15.319-21.011c-2.149-2.952-1.498-7.087 1.453-9.237 2.952-2.15 7.087-1.499 9.237 1.453z" fill="#999"/></g></svg>