<svg id="_&#x43B;&#x43E;&#x439;_1" viewBox="0 0 2540 1676.93" xmlns="http://www.w3.org/2000/svg"><g transform="translate(-480 -911.54)"><path d="m2297.55 1929.57c-340.76-186.2-681.52-448.7-1000.92-675l-109.1 108.55c26.48 29.07 1177.6 1107.35 1279 1204.79l90.13-259.48c12.19-42.87 36-78.34 46.55-122-39.5-25.49-167.97-181.63-305.66-256.86z" fill="#a6afb2"/><path d="m1051.13 2011.34 1.6-1.09c-5.07-6.21-12.24-10.49-19.22-14.56l-17.19-10c17.26 10.98 29.58 19.83 34.81 25.65z" fill="none"/><path d="m843.93 1896.36c19.87.68 38 11 55.15 21l117.24 68.33c-95-60.56-340.09-186.4-382.16-231.43l-134.16 305.74 110.1 61.32c48.54-56.39 197.8-226.2 233.83-224.96z" fill="#a6afb2"/><path d="m1062.22 2042c-.93-10.29-2-21.08-7.85-29.6-.51-.75-1.07-1.44-1.63-2.14l-1.6 1.09c-5.23-5.82-17.55-14.67-34.81-25.67l-117.24-68.33c-17.18-10-28.66-26.49-48.53-27.18-36-1.24-191.9 174.76-240.44 231.16l456.34 322.25c-4.83-133.83 7.8-267.84-4.24-401.58z" fill="#879193"/><path d="m1563.65 1720.73c-3 1.18-5.89 2.51-8.74 3.83a3535.58 3535.58 0 0 0 -502.17 285.68c.57.69 1.12 1.39 1.63 2.14 5.83 8.53 6.93 19.32 7.85 29.6 12 133.75-.59 267.76 4.22 401.58l15.76 11.13c67.62-41.21 135.56-83.57 203.68-126.44a5647.39 5647.39 0 0 1 297.75-589.14z" fill="#a6afb2"/><path d="m1583.63 1739.13a5647.39 5647.39 0 0 0 -297.75 589.14c185.9-117 373-237.76 558.17-349.27z" fill="#798284"/><path d="m1233.82 1433.91q-307.65 148.67-604.18 319l-4.31 10.16c24.36 26.08 116.8 79.25 208.75 131.15 167.06-105.28 362.12-228.63 533.76-336.87z" fill="#dae9ef"/><path d="m1367.85 1557.36c-171.64 108.24-366.71 231.59-533.76 336.87 95.69 54 190.85 106.65 208.21 125.95a3535.56 3535.56 0 0 1 503.78-286.78c2.85-1.33 5.78-2.66 8.74-3.83z" fill="#cad2d6"/><path d="m2331.4 1948.66c78 80.61 155.09 162.55 248.63 223.81 3.89 2.55 8 5.09 12.51 5.94-37.55-25-79.08-58.51-112-87.52-106.54-93.89-57.34-88.35-149.14-142.23z" fill="none"/><path d="m2592.53 2205.28-21.1 60.75c8.42-21.52 17.47-42.71 24.33-65a17.24 17.24 0 0 0 -3.23 4.25z" fill="#cad2d6"/><path d="m2571.43 2266c-5.43 13.86-10.59 27.85-14.72 42.39z" fill="#cad2d6"/><path d="m2784.4 2035.6-1116.19-1018.45-234.36 103.37c81 91.92 163.11 182.87 252.2 266.86 185.83 175.2 400.11 318.56 582.37 497.47 21.29 20.89 42.17 42.3 63 63.81 91.8 53.89 42.6 48.33 149.14 142.23 32.92 29 82.45 67.76 120 92.77.29.04 128.31-103.89 183.84-148.06z" fill="#dae9ef"/><path d="m2268.42 1884.85c-182.27-178.91-396.54-322.26-582.37-497.47-89.09-84-171.24-174.94-252.2-266.86l-4.49 2-132.71 132c319.4 226.32 660.15 488.82 1000.92 675 13.06 7.14 24.23 13.44 33.85 19.09-20.83-21.46-41.72-42.87-63-63.76z" fill="#cad2d6"/><path d="m2965.48 1881.67-1103.16-950.13-194.11 85.62 1116.19 1018.44c-55.53 44.17 85.13-66.02 181.08-153.93z" fill="#cad2d6"/><path d="m2965.48 1881.67c-101.62 93.11-359.83 287.29-364.93 302-42 120.87-92 263.37-134 384.24l.6.58 532.85-433.76-25.36-245.17z" fill="#798284"/><g fill="none" stroke="#000" stroke-linecap="round" stroke-linejoin="round" stroke-width="40"><path d="m1233.82 1433.91q-307.65 148.67-604.18 319l-129.64 305.74 573.37 404.89c252.16-153.68 508.9-323.34 761.85-475.71"/><path d="m1115.49 1985.28c202.45-111.41 260.87-148.1 442.49-248.13"/><path d="m1060.71 2086.05c7.22 131.56 7.22 253.84 9.94 369.33"/><path d="m633.67 1759c116.33 76.47 290.84 187.1 408.45 261.6"/><path d="m2974.64 1889.56-1112.32-958-433 191-241.79 240.54c26.54 29.12 1182.15 1111.62 1279.64 1205.37l532.83-433.74z"/><path d="m1489.56 1193.56c63.15 45.67 604.19 552.59 1074.3 953.4"/><path d="m2660.33 2147c100.9-75.38 217.83-168.78 314.53-249.47"/><path d="m2576.09 2251.58c-30.49 92.6-74.73 225.54-108.7 316.58"/></g></g></svg>