<svg width="36" height="37" viewBox="0 0 36 37" fill="none" xmlns="http://www.w3.org/2000/svg">
<path d="M21.1219 4.46732L24.0082 10.2878C24.4019 11.098 25.4514 11.8751 26.3371 12.024L31.5686 12.9003C34.9142 13.4625 35.7015 15.9098 33.2906 18.3239L29.2235 22.4247C28.5346 23.1191 28.1575 24.4585 28.3706 25.4176L29.5351 30.4939C30.4534 34.512 28.3378 36.0664 24.8119 33.9663L19.9083 31.0396C19.0228 30.5105 17.5632 30.5105 16.6611 31.0396L11.7577 33.9663C8.24809 36.0664 6.11612 34.4954 7.03451 30.4939L8.1989 25.4176C8.41209 24.4585 8.0349 23.1191 7.3461 22.4247L3.27895 18.3239C0.884578 15.9098 1.65537 13.4625 5.00093 12.9003L10.2325 12.024C11.1017 11.8751 12.1512 11.098 12.5448 10.2878L15.4312 4.46732C17.0056 1.30907 19.5639 1.30907 21.1219 4.46732Z" stroke="url(#paint0_linear_1178_11702)" stroke-width="2.46024" stroke-linecap="round" stroke-linejoin="round"/>
<defs>
<linearGradient id="paint0_linear_1178_11702" x1="1.88672" y1="7.18314" x2="34.69" y2="34.9019" gradientUnits="userSpaceOnUse">
<stop offset="0.182692" stop-color="#49609C"/>
<stop offset="1" stop-color="#E9EFFF"/>
</linearGradient>
</defs>
</svg>
