<svg width="34" height="33" viewBox="0 0 34 33" fill="none" xmlns="http://www.w3.org/2000/svg">
<path d="M19.8914 2.46732L22.7778 8.28776C23.1714 9.09799 24.221 9.87514 25.1066 10.024L30.3381 10.9003C33.6837 11.4625 34.471 13.9098 32.0601 16.3239L27.993 20.4247C27.3041 21.1191 26.9271 22.4585 27.1401 23.4176L28.3046 28.4939C29.223 32.512 27.1073 34.0664 23.5815 31.9663L18.6779 29.0396C17.7923 28.5105 16.3328 28.5105 15.4307 29.0396L10.5272 31.9663C7.01762 34.0664 4.88565 32.4954 5.80405 28.4939L6.96843 23.4176C7.18162 22.4585 6.80443 21.1191 6.11563 20.4247L2.04848 16.3239C-0.34589 13.9098 0.424904 11.4625 3.77046 10.9003L9.002 10.024C9.87119 9.87514 10.9208 9.09799 11.3144 8.28776L14.2007 2.46732C15.7751 -0.690929 18.3334 -0.690929 19.8914 2.46732Z" fill="url(#paint0_linear_1178_11696)"/>
<defs>
<linearGradient id="paint0_linear_1178_11696" x1="0.656251" y1="5.18314" x2="33.4595" y2="32.9019" gradientUnits="userSpaceOnUse">
<stop offset="0.182692" stop-color="#49609C"/>
<stop offset="1" stop-color="#E9EFFF"/>
</linearGradient>
</defs>
</svg>
