<svg width="32" height="32" viewBox="0 0 32 32" fill="none" xmlns="http://www.w3.org/2000/svg">
<g opacity="0.42">
<path d="M11.1677 4C10.8825 4.10657 10.602 4.22283 10.3266 4.34835M27.6237 21.7348C27.7599 21.4399 27.8855 21.1389 28.0001 20.8327M24.6651 25.8196C24.8941 25.6059 25.1154 25.3841 25.3285 25.1547M20.3586 28.4964C20.6174 28.3988 20.8722 28.2933 21.1229 28.1801M16.2081 29.3252C15.9002 29.3359 15.5902 29.3359 15.2822 29.3252M10.3831 28.1872C10.6242 28.2956 10.8692 28.3971 11.1177 28.4911M6.23012 25.2277C6.41238 25.4209 6.60044 25.6085 6.79406 25.7904M3.51032 20.886C3.61016 21.1496 3.71828 21.4092 3.83435 21.6644M2.67335 16.6737C2.6647 16.3963 2.66472 16.1171 2.67335 15.8392M3.50066 11.6495C3.59874 11.3889 3.70491 11.1322 3.81886 10.8797M6.20808 7.30564C6.40096 7.10019 6.60039 6.90097 6.80606 6.70832" stroke="#0D0D0D" stroke-width="1.5" stroke-linecap="round" stroke-linejoin="round"/>
<path d="M18 16C18 17.1045 17.1045 18 16 18C14.8955 18 14 17.1045 14 16C14 14.8955 14.8955 14 16 14M18 16C18 14.8955 17.1045 14 16 14M18 16H21.3333M16 14V8" stroke="#0D0D0D" stroke-width="1.5" stroke-linecap="round"/>
<path d="M29.3333 16.0003C29.3333 8.63653 23.3637 2.66699 16 2.66699" stroke="#0D0D0D" stroke-width="1.5" stroke-linecap="round"/>
</g>
</svg>
