<svg height="512pt" viewBox="0 0 512 512" width="512pt" xmlns="http://www.w3.org/2000/svg"><path d="m512 256c0 141.386719-114.613281 256-256 256-61.230469 0-117.425781-21.492188-161.480469-57.355469-13.070312-10.625-25.066406-22.515625-35.796875-35.496093-36.6875-44.292969-58.722656-101.15625-58.722656-163.148438 0-141.386719 114.613281-256 256-256 3.90625 0 7.804688.0820312 11.671875.273438 132.09375 5.914062 238.140625 111.960937 244.054687 244.054687.191407 3.867187.273438 7.765625.273438 11.671875zm0 0" fill="#cbcbcb"/><path d="m278.871094 442.378906c-38.503906 0-76.148438-10.558594-108.871094-30.527344l-1.480469-.90625-89.136719 22.941407 24.289063-86.304688-1.003906-1.566406c-21.613281-33.65625-33.046875-72.699219-33.046875-112.886719 0-115.382812 93.871094-209.253906 209.25-209.253906 115.382812 0 209.253906 93.871094 209.253906 209.253906 0 115.378906-93.871094 209.25-209.253906 209.25zm0 0" fill="#4dc95c"/><g fill="#fff"><path d="m278.871094 0c-3.75 0-7.488282.09375-11.199219.273438-123.359375 5.859374-221.914063 108.0625-221.914063 232.855468 0 41.742188 11.0625 82.378906 32.085938 118.101563l-19.121094 67.917969c10.730469 12.980468 22.726563 24.871093 35.796875 35.496093l70.386719-18.117187c34.691406 19.464844 73.914062 29.714844 113.964844 29.714844 124.792968 0 226.996094-98.554688 232.855468-221.914063.179688-3.710937.273438-7.449219.273438-11.199219 0-128.546875-104.582031-233.128906-233.128906-233.128906zm0 426.703125c-35.628906 0-70.457032-9.769531-100.707032-28.230469l-7.136718-4.359375-69.179688 17.804688 18.816406-66.859375-4.796874-7.492188c-19.996094-31.140625-30.570313-67.25-30.570313-104.4375 0-106.75 86.839844-193.578125 193.574219-193.578125 106.738281 0 193.578125 86.828125 193.578125 193.578125 0 106.734375-86.839844 193.574219-193.578125 193.574219zm0 0"/><path d="m213.386719 124.621094-15.125-.824219c-4.75-.261719-9.410157 1.328125-13.003907 4.445313-7.332031 6.371093-19.058593 18.679687-22.664062 34.722656-5.367188 23.925781 2.929688 53.21875 24.414062 82.511718 21.480469 29.289063 61.515626 76.160157 132.304688 96.175782 22.8125 6.453125 40.757812 2.101562 54.601562-6.753906 10.964844-7.011719 18.527344-18.269532 21.25-31l2.414063-11.28125c.765625-3.582032-1.054687-7.222657-4.382813-8.757813l-51.125-23.5625c-3.316406-1.53125-7.253906-.566406-9.484374 2.328125l-20.070313 26.019531c-1.515625 1.964844-4.113281 2.742188-6.457031 1.917969-13.742188-4.828125-59.78125-24.113281-85.042969-72.773438-1.097656-2.109374-.824219-4.671874.730469-6.472656l19.179687-22.1875c1.960938-2.265625 2.453125-5.453125 1.277344-8.207031l-22.035156-51.554687c-1.171875-2.746094-3.800781-4.582032-6.78125-4.746094zm0 0"/></g></svg>